<?xml version="1.0" encoding="utf-8"?>
<!-- Generator: Adobe Illustrator 21.0.0, SVG Export Plug-In . SVG Version: 6.00 Build 0)  -->
<svg version="1.1" id="Ebene_1" xmlns="http://www.w3.org/2000/svg" xmlns:xlink="http://www.w3.org/1999/xlink" x="0px" y="0px"
	 viewBox="0 0 800 800" style="enable-background:new 0 0 800 800;" xml:space="preserve">
<style type="text/css">
	.st0{fill:none;stroke:#8E1919;stroke-width:70;stroke-miterlimit:10;}
	.st1{fill:#8E1919;}
	.st2{fill:#C92828;}
	.st3{fill:#DD0000;}
	.st4{fill:#FF6347;}
	.st5{fill:none;stroke:#FF6347;stroke-width:60;}
	.st6{fill:none;stroke:#8E1919;stroke-width:40;}
	.st7{fill:none;stroke:#8E1919;stroke-width:110;}
	.st8{fill:#8E4F4F;}
</style>
<line class="st0" x1="400" y1="-2625" x2="400" y2="-1494"/>
<path class="st1" d="M700.8-1452c-96.8-51.3-218.1-4-240.4,126c-15.2,88.6-48.5,209.3-110.5,232.4c-112.7,42-168.4,36.2-156.6,104.3
	c18.7,108.5,165.9,152.6,317.4,97.5c100.9-36.8,199.4-130.9,255.2-247.6C821.5-1255.5,797.6-1400.6,700.8-1452z"/>
<g>
	<circle class="st2" cx="400" cy="-2825" r="180"/>
	<circle class="st1" cx="400" cy="-2775" r="120"/>
	<ellipse class="st2" cx="400" cy="-2875" rx="30" ry="50"/>
	<path class="st3" d="M422.3-2614l147.6-126c-19.7-9.4-43.8-15-69.9-15c-66.3,0-120,35.8-120,80C380-2650.6,396.4-2628.7,422.3-2614
		z"/>
	<ellipse class="st4" cx="150" cy="-2825" rx="50" ry="90"/>
	<ellipse class="st4" cx="650" cy="-2825" rx="50" ry="90"/>
	<ellipse class="st4" cx="400" cy="-3055" rx="40" ry="50"/>
	<circle class="st1" cx="385" cy="-3070" r="5"/>
	<circle class="st1" cx="415" cy="-3070" r="5"/>
	<path class="st3" d="M376.8-2613.5c26.4-14.7,43.2-36.8,43.2-61.5c0-44.2-53.7-80-120-80c-29.2,0-56,7-76.8,18.5L376.8-2613.5z"/>
	<circle class="st5" cx="400" cy="-2825" r="200"/>
</g>
<path class="st0" d="M400-1494c0,64.6,52.4,117,117,117h132.3"/>
<path class="st6" d="M582,57.5c0,0,0,26.5,0,30.5c0,0,20,148-82,146s-158-6-100,116s244.6,94,250,27c6-75-193,8-182-71
	c10-71.8,210,4,212-42S634,87.6,698.7,85.8C765,84,748,274,717,344s61.2,83,13,115c-40.1,26.6-126,0-114,50s107,2,116,73
	c9.8,77.4,30,144-45,156s-249,1-233-49s259-11,207-89c-45.2-67.7-199,74-201,26c-0.9-21.2,63.6-52.9,79-86
	c19.5-41.9-42.7-110.9-79-48c-49,85-87.8-16-123,58c-27.5,57.8,53.2,93,35.2,153S196,761.3,198,657s116.5,0.3,112-49
	c-7-77-146-92-146,12s-58,195-64,41s-7-172,49-172s183.5,73.9,155-5c-22.2-61.4,109.6-52.8,16-114c-104-68-69,76-147,44
	s-73-83-21-127s107,12,132-37c12-23.4-83-100,44-104c38-1.2,179,19,165-43c-5.2-22.8-132.3-66.1-212-40.3
	c-52.8,17-88.1,111.6-135,113.3c-74.7,2.8,37-110.6-56-100.6C53.3,79.3,56.1,121,57,160c0.5,21.2,56,33,53,75
	c-5,69.8-90,90-32.8,148.9c43.6,44.8,20.2,59.7-4.2,117.1C41.5,575.1,91,742,0,742"/>
<path class="st7" d="M432.6-999.7C225.4-999.7,57.4-984,57.4-704C57.4-496.8,232-248,474-472.9C581.7-572.9,583.7-228.9,582.5-2
	c-0.1,16-0.2,31.4-0.3,46c0,6-0.1,11.9-0.1,17.7"/>
<path class="st6" d="M582,857.5c0,0,0,26.5,0,30.5c0,0,20,148-82,146s-158-6-100,116s244.6,94,250,27c6-75-193,8-182-71
	c10-71.8,210,4,212-42s-46-176.4,18.7-178.2C765,884,748,1074,717,1144s61.2,83,13,115c-40.1,26.6-126,0-114,50s107,2,116,73
	c9.8,77.4,30,144-45,156s-249,1-233-49s259-11,207-89c-45.2-67.7-199,74-201,26c-0.9-21.2,63.6-52.9,79-86
	c19.5-41.9-42.7-110.9-79-48c-49,85-87.8-16-123,58c-27.5,57.8,53.2,93,35.2,153S196,1561.3,198,1457s116.5,0.3,112-49
	c-7-77-146-92-146,12s-58,195-64,41s-7-172,49-172s183.5,73.9,155-5c-22.2-61.4,109.6-52.8,16-114c-104-68-69,76-147,44
	s-73-83-21-127s107,12,132-37c12-23.4-83-100,44-104c38-1.2,179,19,165-43c-5.2-22.8-132.3-66.1-212-40.3
	c-52.8,17-88.1,111.6-135,113.3c-74.7,2.8,37-110.6-56-100.6C53.3,879.3,56.1,921,57,960c0.5,21.2,56,33,53,75
	c-5,69.8-90,90-32.8,148.9c43.6,44.8,20.2,59.7-4.2,117.1c-21.9,51.6-4.6,148.3-22.8,202.1"/>
<path class="st8" d="M473.4,1704c0-58.2-32.8-105.3-73.4-105.3s-73.4,47.2-73.4,105.3c0,43,23.5,74.8,29.3,90.6
	c16.8,45.6,22.1,73.4,44,73.4s26.3-28.1,44-73.4C451.4,1775.8,473.4,1747.7,473.4,1704z"/>
<ellipse class="st8" cx="400" cy="1599" rx="67.5" ry="99.5"/>
<g>
	<circle class="st8" cx="92.4" cy="1470.7" r="40.2"/>
	<circle class="st8" cx="42.2" cy="1491.3" r="40.2"/>
</g>
<g>
	<circle class="st8" cx="92.4" cy="1409.3" r="40.2"/>
	<circle class="st8" cx="42.2" cy="1429.8" r="40.2"/>
</g>
<g>
	<circle class="st8" cx="92.4" cy="1347.8" r="40.2"/>
	<circle class="st8" cx="42.2" cy="1368.3" r="40.2"/>
</g>
<g>
	<circle class="st8" cx="92.4" cy="1286.3" r="40.2"/>
	<circle class="st8" cx="42.2" cy="1306.8" r="40.2"/>
</g>
<g>
	<circle class="st8" cx="92.4" cy="1224.8" r="40.2"/>
	<circle class="st8" cx="42.2" cy="1245.4" r="40.2"/>
</g>
<g>
	<circle class="st8" cx="92.4" cy="1163.3" r="40.2"/>
	<circle class="st8" cx="42.2" cy="1183.9" r="40.2"/>
</g>
<g>
	<circle class="st8" cx="92.4" cy="1101.9" r="40.2"/>
	<circle class="st8" cx="42.2" cy="1122.4" r="40.2"/>
</g>
<g>
	<circle class="st8" cx="92.4" cy="1040.4" r="40.2"/>
	<circle class="st8" cx="42.2" cy="1060.9" r="40.2"/>
</g>
<g>
	<circle class="st8" cx="92.4" cy="978.9" r="40.2"/>
	<circle class="st8" cx="42.2" cy="999.5" r="40.2"/>
</g>
<g>
	<circle class="st8" cx="92.4" cy="918.1" r="40.2"/>
	<circle class="st8" cx="42.2" cy="938.7" r="40.2"/>
</g>
<g>
	<circle class="st8" cx="92.4" cy="872.5" r="40.2"/>
	<circle class="st8" cx="42.2" cy="893.1" r="40.2"/>
</g>
<g>
	<circle class="st8" cx="758.9" cy="1470.7" r="40.2"/>
	<circle class="st8" cx="708.7" cy="1491.3" r="40.2"/>
</g>
<g>
	<circle class="st8" cx="758.9" cy="1409.3" r="40.2"/>
	<circle class="st8" cx="708.7" cy="1429.8" r="40.2"/>
</g>
<g>
	<circle class="st8" cx="758.9" cy="1347.8" r="40.2"/>
	<circle class="st8" cx="708.7" cy="1368.3" r="40.2"/>
</g>
<g>
	<circle class="st8" cx="758.9" cy="1286.3" r="40.2"/>
	<circle class="st8" cx="708.7" cy="1306.8" r="40.2"/>
</g>
<g>
	<circle class="st8" cx="758.9" cy="1224.8" r="40.2"/>
	<circle class="st8" cx="708.7" cy="1245.4" r="40.2"/>
</g>
<g>
	<circle class="st8" cx="758.9" cy="1163.3" r="40.2"/>
	<circle class="st8" cx="708.7" cy="1183.9" r="40.2"/>
</g>
<g>
	<circle class="st8" cx="758.9" cy="1101.9" r="40.2"/>
	<circle class="st8" cx="708.7" cy="1122.4" r="40.2"/>
</g>
<g>
	<circle class="st8" cx="758.9" cy="1040.4" r="40.2"/>
	<circle class="st8" cx="708.7" cy="1060.9" r="40.2"/>
</g>
<g>
	<circle class="st8" cx="758.9" cy="978.9" r="40.2"/>
	<circle class="st8" cx="708.7" cy="999.5" r="40.2"/>
</g>
<g>
	<circle class="st8" cx="758.9" cy="918.1" r="40.2"/>
	<circle class="st8" cx="708.7" cy="938.7" r="40.2"/>
</g>
<g>
	<circle class="st8" cx="758.9" cy="872.5" r="40.2"/>
	<circle class="st8" cx="708.7" cy="893.1" r="40.2"/>
</g>
<g>
	
		<ellipse transform="matrix(0.6794 -0.7337 0.7337 0.6794 -594.5444 374.4925)" class="st8" cx="131.3" cy="867.7" rx="40.2" ry="40.2"/>
	
		<ellipse transform="matrix(0.6794 -0.7337 0.7337 0.6794 -637.9247 376.8034)" class="st8" cx="112.3" cy="918.5" rx="40.2" ry="40.2"/>
</g>
<g>
	
		<ellipse transform="matrix(0.6794 -0.7337 0.7337 0.6794 -576.4468 415.9163)" class="st8" cx="187.8" cy="867.7" rx="40.2" ry="40.2"/>
	
		<ellipse transform="matrix(0.6794 -0.7337 0.7337 0.6794 -619.827 418.2272)" class="st8" cx="168.7" cy="918.5" rx="40.2" ry="40.2"/>
</g>
<g>
	
		<ellipse transform="matrix(0.6794 -0.7337 0.7337 0.6794 -558.3491 457.3401)" class="st8" cx="244.2" cy="867.7" rx="40.2" ry="40.2"/>
	
		<ellipse transform="matrix(0.6794 -0.7337 0.7337 0.6794 -601.7293 459.6509)" class="st8" cx="225.2" cy="918.5" rx="40.2" ry="40.2"/>
</g>
<g>
	
		<ellipse transform="matrix(0.6794 -0.7337 0.7337 0.6794 -540.2514 498.7639)" class="st8" cx="300.7" cy="867.7" rx="40.2" ry="40.2"/>
	
		<ellipse transform="matrix(0.6794 -0.7337 0.7337 0.6794 -583.6317 501.0747)" class="st8" cx="281.6" cy="918.5" rx="40.2" ry="40.2"/>
</g>
<g>
	
		<ellipse transform="matrix(0.6794 -0.7337 0.7337 0.6794 -522.1537 540.1876)" class="st8" cx="357.1" cy="867.7" rx="40.2" ry="40.2"/>
	
		<ellipse transform="matrix(0.6794 -0.7337 0.7337 0.6794 -565.534 542.4985)" class="st8" cx="338.1" cy="918.5" rx="40.2" ry="40.2"/>
</g>
<g>
	
		<ellipse transform="matrix(0.6794 -0.7337 0.7337 0.6794 -504.0561 581.6114)" class="st8" cx="413.6" cy="867.7" rx="40.2" ry="40.2"/>
	
		<ellipse transform="matrix(0.6794 -0.7337 0.7337 0.6794 -547.4363 583.9223)" class="st8" cx="394.6" cy="918.5" rx="40.2" ry="40.2"/>
</g>
<g>
	
		<ellipse transform="matrix(0.6794 -0.7337 0.7337 0.6794 -485.9584 623.0352)" class="st8" cx="470.1" cy="867.7" rx="40.2" ry="40.2"/>
	
		<ellipse transform="matrix(0.6794 -0.7337 0.7337 0.6794 -529.3386 625.3461)" class="st8" cx="451" cy="918.5" rx="40.2" ry="40.2"/>
</g>
<g>
	
		<ellipse transform="matrix(0.6794 -0.7337 0.7337 0.6794 -467.8607 664.459)" class="st8" cx="526.5" cy="867.7" rx="40.2" ry="40.2"/>
	
		<ellipse transform="matrix(0.6794 -0.7337 0.7337 0.6794 -511.241 666.7698)" class="st8" cx="507.5" cy="918.5" rx="40.2" ry="40.2"/>
</g>
<g>
	
		<ellipse transform="matrix(0.6794 -0.7337 0.7337 0.6794 -449.7631 705.8828)" class="st8" cx="583" cy="867.7" rx="40.2" ry="40.2"/>
	
		<ellipse transform="matrix(0.6794 -0.7337 0.7337 0.6794 -493.1433 708.1936)" class="st8" cx="563.9" cy="918.5" rx="40.2" ry="40.2"/>
</g>
<g>
	
		<ellipse transform="matrix(0.6794 -0.7337 0.7337 0.6794 -431.6654 747.3065)" class="st8" cx="639.4" cy="867.7" rx="40.2" ry="40.2"/>
	
		<ellipse transform="matrix(0.6794 -0.7337 0.7337 0.6794 -475.0456 749.6174)" class="st8" cx="620.4" cy="918.5" rx="40.2" ry="40.2"/>
</g>
<g>
	
		<ellipse transform="matrix(0.6794 -0.7337 0.7337 0.6794 -413.5677 788.7303)" class="st8" cx="695.9" cy="867.7" rx="40.2" ry="40.2"/>
	
		<ellipse transform="matrix(0.6794 -0.7337 0.7337 0.6794 -456.948 791.0411)" class="st8" cx="676.8" cy="918.5" rx="40.2" ry="40.2"/>
</g>
<g>
	<g>
		
			<ellipse transform="matrix(0.6794 -0.7337 0.7337 0.6794 -964.9841 782.9867)" class="st8" cx="413.6" cy="1495.9" rx="40.2" ry="40.2"/>
		
			<ellipse transform="matrix(0.6794 -0.7337 0.7337 0.6794 -1008.3643 785.2975)" class="st8" cx="394.6" cy="1546.7" rx="40.2" ry="40.2"/>
	</g>
	<g>
		
			<ellipse transform="matrix(0.6794 -0.7337 0.7337 0.6794 -946.8864 824.4105)" class="st8" cx="470.1" cy="1495.9" rx="40.2" ry="40.2"/>
		
			<ellipse transform="matrix(0.6794 -0.7337 0.7337 0.6794 -990.2667 826.7213)" class="st8" cx="451" cy="1546.7" rx="40.2" ry="40.2"/>
	</g>
	<g>
		
			<ellipse transform="matrix(0.6794 -0.7337 0.7337 0.6794 -928.7888 865.8342)" class="st8" cx="526.5" cy="1495.9" rx="40.2" ry="40.2"/>
		
			<ellipse transform="matrix(0.6794 -0.7337 0.7337 0.6794 -972.169 868.1451)" class="st8" cx="507.5" cy="1546.7" rx="40.2" ry="40.2"/>
	</g>
	<g>
		
			<ellipse transform="matrix(0.6794 -0.7337 0.7337 0.6794 -910.691 907.258)" class="st8" cx="583" cy="1495.9" rx="40.2" ry="40.2"/>
		
			<ellipse transform="matrix(0.6794 -0.7337 0.7337 0.6794 -954.0713 909.5688)" class="st8" cx="563.9" cy="1546.7" rx="40.2" ry="40.2"/>
	</g>
	<g>
		
			<ellipse transform="matrix(0.6794 -0.7337 0.7337 0.6794 -892.5934 948.6818)" class="st8" cx="639.4" cy="1495.9" rx="40.2" ry="40.2"/>
		
			<ellipse transform="matrix(0.6794 -0.7337 0.7337 0.6794 -935.9736 950.9927)" class="st8" cx="620.4" cy="1546.7" rx="40.2" ry="40.2"/>
	</g>
	<g>
		
			<ellipse transform="matrix(0.6794 -0.7337 0.7337 0.6794 -874.4957 990.1056)" class="st8" cx="695.9" cy="1495.9" rx="40.2" ry="40.2"/>
		
			<ellipse transform="matrix(0.6794 -0.7337 0.7337 0.6794 -917.876 992.4164)" class="st8" cx="676.8" cy="1546.7" rx="40.2" ry="40.2"/>
	</g>
</g>
</svg>
