<?xml version="1.0" encoding="utf-8"?>
<!-- Generator: Adobe Illustrator 21.0.0, SVG Export Plug-In . SVG Version: 6.00 Build 0)  -->
<svg version="1.1" id="Ebene_1" xmlns="http://www.w3.org/2000/svg" xmlns:xlink="http://www.w3.org/1999/xlink" x="0px" y="0px"
	 viewBox="0 0 800 800" style="enable-background:new 0 0 800 800;" xml:space="preserve">
<style type="text/css">
	.st0{fill:none;stroke:#8E1919;stroke-width:70;stroke-miterlimit:10;}
	.st1{fill:#8E1919;}
	.st2{fill:#C92828;}
	.st3{fill:#DD0000;}
	.st4{fill:#FF6347;}
	.st5{fill:none;stroke:#FF6347;stroke-width:60;}
	.st6{fill:none;stroke:#8E1919;stroke-width:40;}
	.st7{fill:none;stroke:#8E1919;stroke-width:110;}
</style>
<line class="st0" x1="400" y1="-3422.6" x2="400" y2="-2291.6"/>
<path class="st1" d="M700.8-2249.6c-96.8-51.3-218.1-4-240.4,126c-15.2,88.6-48.5,209.3-110.5,232.4
	c-112.7,42-168.4,36.2-156.6,104.3c18.7,108.5,165.9,152.6,317.4,97.5c100.9-36.8,199.4-130.9,255.2-247.6
	C821.5-2053.1,797.6-2198.2,700.8-2249.6z"/>
<g>
	<circle class="st2" cx="400" cy="-3622.6" r="180"/>
	<circle class="st1" cx="400" cy="-3572.6" r="120"/>
	<ellipse class="st2" cx="400" cy="-3672.6" rx="30" ry="50"/>
	<path class="st3" d="M422.3-3411.6l147.6-126c-19.7-9.4-43.8-15-69.9-15c-66.3,0-120,35.8-120,80
		C380-3448.2,396.4-3426.3,422.3-3411.6z"/>
	<ellipse class="st4" cx="150" cy="-3622.6" rx="50" ry="90"/>
	<ellipse class="st4" cx="650" cy="-3622.6" rx="50" ry="90"/>
	<ellipse class="st4" cx="400" cy="-3852.6" rx="40" ry="50"/>
	<circle class="st1" cx="385" cy="-3867.6" r="5"/>
	<circle class="st1" cx="415" cy="-3867.6" r="5"/>
	<path class="st3" d="M376.8-3411.1c26.4-14.7,43.2-36.8,43.2-61.5c0-44.2-53.7-80-120-80c-29.2,0-56,7-76.8,18.5L376.8-3411.1z"/>
	<circle class="st5" cx="400" cy="-3622.6" r="200"/>
</g>
<path class="st0" d="M400-2291.6c0,64.6,52.4,117,117,117h132.3"/>
<path class="st6" d="M582-740.1c0,0,0,26.5,0,30.5c0,0,20,148-82,146s-158-6-100,116s244.6,94,250,27c6-75-193,8-182-71
	c10-71.8,210,4,212-42S634-710,698.7-711.8C765-713.6,748-523.6,717-453.6s61.2,83,13,115c-40.1,26.6-126,0-114,50s107,2,116,73
	c9.8,77.4,30,144-45,156s-249,1-233-49s259-11,207-89c-45.2-67.7-199,74-201,26c-0.9-21.2,63.6-52.9,79-86
	c19.5-41.9-42.7-110.9-79-48c-49,85-87.8-16-123,58c-27.5,57.8,53.2,93,35.2,153S196-36.3,198-140.6s116.5,0.3,112-49
	c-7-77-146-92-146,12s-58,195-64,41s-7-172,49-172s183.5,73.9,155-5c-22.2-61.4,109.6-52.8,16-114c-104-68-69,76-147,44
	s-73-83-21-127s107,12,132-37c12-23.4-83-100,44-104c38-1.2,179,19,165-43c-5.2-22.8-132.3-66.1-212-40.3
	c-52.8,17-88.1,111.6-135,113.3c-74.7,2.8,37-110.6-56-100.6c-36.7,3.9-33.9,45.6-33,84.6c0.5,21.2,56,33,53,75
	c-5,69.8-90,90-32.8,148.9c43.6,44.8,20.2,59.7-4.2,117.1c-31.5,74.1,18,241-73,241"/>
<path class="st7" d="M432.6-1797.3c-207.2,0-375.2,15.7-375.2,295.7c0,207.2,174.6,456,416.6,231.1
	c107.7-100,109.7,243.9,108.5,470.9c-0.1,16-0.2,31.4-0.3,46c0,6-0.1,11.9-0.1,17.7"/>
<ellipse class="st1" cx="400" cy="132" rx="100" ry="110"/>
<ellipse class="st1" cx="400" cy="202" rx="100" ry="120"/>
<ellipse class="st1" cx="400" cy="202" rx="40" ry="50"/>
<line class="st0" x1="400" y1="2" x2="400" y2="107"/>
</svg>
