<?xml version="1.0" encoding="utf-8"?>
<!-- Generator: Adobe Illustrator 21.0.0, SVG Export Plug-In . SVG Version: 6.00 Build 0)  -->
<svg version="1.1" id="Ebene_1" xmlns="http://www.w3.org/2000/svg" xmlns:xlink="http://www.w3.org/1999/xlink" x="0px" y="0px"
	 viewBox="0 0 800 800" style="enable-background:new 0 0 800 800;" xml:space="preserve">
<style type="text/css">
	.st0{fill:none;stroke:#8E1919;stroke-width:70;stroke-miterlimit:10;}
	.st1{fill:#8E1919;}
	.st2{fill:#C92828;}
	.st3{fill:#DD0000;}
	.st4{fill:#FF6347;}
	.st5{fill:none;stroke:#FF6347;stroke-width:60;}
	.st6{fill:none;stroke:#8E1919;stroke-width:40;}
	.st7{fill:none;stroke:#8E1919;stroke-width:110;}
</style>
<line class="st0" x1="400" y1="-2624" x2="400" y2="-1493"/>
<path class="st1" d="M700.8-1451c-96.8-51.3-218.1-4-240.4,126c-15.2,88.6-48.5,209.3-110.5,232.4c-112.7,42-168.4,36.2-156.6,104.3
	c18.7,108.5,165.9,152.6,317.4,97.5c100.9-36.8,199.4-130.9,255.2-247.6C821.5-1254.5,797.6-1399.6,700.8-1451z"/>
<g>
	<circle class="st2" cx="400" cy="-2824" r="180"/>
	<circle class="st1" cx="400" cy="-2774" r="120"/>
	<ellipse class="st2" cx="400" cy="-2874" rx="30" ry="50"/>
	<path class="st3" d="M422.3-2613l147.6-126c-19.7-9.4-43.8-15-69.9-15c-66.3,0-120,35.8-120,80C380-2649.6,396.4-2627.7,422.3-2613
		z"/>
	<ellipse class="st4" cx="150" cy="-2824" rx="50" ry="90"/>
	<ellipse class="st4" cx="650" cy="-2824" rx="50" ry="90"/>
	<ellipse class="st4" cx="400" cy="-3054" rx="40" ry="50"/>
	<circle class="st1" cx="385" cy="-3069" r="5"/>
	<circle class="st1" cx="415" cy="-3069" r="5"/>
	<path class="st3" d="M376.8-2612.5c26.4-14.7,43.2-36.8,43.2-61.5c0-44.2-53.7-80-120-80c-29.2,0-56,7-76.8,18.5L376.8-2612.5z"/>
	<circle class="st5" cx="400" cy="-2824" r="200"/>
</g>
<path class="st0" d="M400-1493c0,64.6,52.4,117,117,117h132.3"/>
<path class="st6" d="M582,58.5c0,0,0,26.5,0,30.5c0,0,20,148-82,146s-158-6-100,116s244.6,94,250,27c6-75-193,8-182-71
	c10-71.8,210,4,212-42S634,88.6,698.7,86.8C765,85,748,275,717,345s61.2,83,13,115c-40.1,26.6-126,0-114,50s107,2,116,73
	c9.8,77.4,30,144-45,156s-249,1-233-49s259-11,207-89c-45.2-67.7-199,74-201,26c-0.9-21.2,63.6-52.9,79-86
	c19.5-41.9-42.7-110.9-79-48c-49,85-87.8-16-123,58c-27.5,57.8,53.2,93,35.2,153S196,762.3,198,658s116.5,0.3,112-49
	c-7-77-146-92-146,12s-58,195-64,41s-7-172,49-172s183.5,73.9,155-5c-22.2-61.4,109.6-52.8,16-114c-104-68-69,76-147,44
	s-73-83-21-127s107,12,132-37c12-23.4-83-100,44-104c38-1.2,179,19,165-43c-5.2-22.8-132.3-66.1-212-40.3
	c-52.8,17-88.1,111.6-135,113.3c-74.7,2.8,37-110.6-56-100.6C53.3,80.3,56.1,122,57,161c0.5,21.2,56,33,53,75
	c-5,69.8-90,90-32.8,148.9c43.6,44.8,20.2,59.7-4.2,117.1C41.5,576.1,91,743,0,743"/>
<path class="st7" d="M432.6-998.7C225.4-998.7,57.4-983,57.4-703C57.4-495.8,232-247,474-471.9C581.7-571.9,583.7-227.9,582.5-1
	c-0.1,16-0.2,31.4-0.3,46c0,6-0.1,11.9-0.1,17.7"/>
</svg>
