<svg id="Ebene_1" data-name="Ebene 1" xmlns="http://www.w3.org/2000/svg" viewBox="0 0 800 800"><defs><style>.cls-1{fill:none;stroke:#8e1919;stroke-width:40px;}.cls-2{fill:#8e4f4f;}</style></defs><path class="cls-1" d="M582,57.5S582,84,582,88c0,0,20,148-82,146s-158-6-100,116,244.64,94,250,27c6-75-193,8-182-71,10-71.78,210,4,212-42S634,87.65,698.73,85.85C765,84,748,274,717,344s61.22,83,13,115c-40.06,26.58-126,0-114,50s107,2,116,73c9.81,77.38,30,144-45,156s-249,1-233-49,259-11,207-89c-45.15-67.73-199,74-201,26-.88-21.2,63.59-52.88,79-86,19.48-41.88-42.74-110.89-79-48-49,85-87.83-16-123,58-27.47,57.8,53.17,93,35.17,153S196,761.34,198,657s116.48.27,112-49c-7-77-146-92-146,12s-58,195-64,41-7-172,49-172,183.5,73.89,155-5c-22.19-61.41,109.59-52.8,16-114-104-68-69,76-147,44s-73-83-21-127,107,12,132-37c12-23.43-83-100,44-104,38-1.2,179,19,165-43-5.16-22.84-132.26-66.1-212-40.34-52.76,17-88.07,111.56-135,113.34C71.33,178.83,183,65.38,90,75.38,53.3,79.32,56.06,121,57,160c.51,21.2,56,33,53,75-5,69.82-90,90-32.78,148.89C120.79,428.74,97.4,443.61,73,501c-21.95,51.62-4.59,148.25-22.78,202.15"/><path class="cls-2" d="M473.36,904c0-58.16-32.85-105.31-73.36-105.31S326.64,845.83,326.64,904c0,43,23.53,74.83,29.35,90.64,16.77,45.64,22.14,73.36,44,73.36s26.25-28.1,44-73.36C451.39,975.84,473.36,947.68,473.36,904Z"/><ellipse class="cls-2" cx="400" cy="798.96" rx="67.48" ry="99.46"/><circle class="cls-2" cx="92.44" cy="670.73" r="40.23"/><circle class="cls-2" cx="42.23" cy="691.27" r="40.23"/><circle class="cls-2" cx="92.44" cy="609.25" r="40.23"/><circle class="cls-2" cx="42.23" cy="629.79" r="40.23"/><circle class="cls-2" cx="92.44" cy="547.77" r="40.23"/><circle class="cls-2" cx="42.23" cy="568.32" r="40.23"/><circle class="cls-2" cx="92.44" cy="486.3" r="40.23"/><circle class="cls-2" cx="42.23" cy="506.84" r="40.23"/><circle class="cls-2" cx="92.44" cy="424.82" r="40.23"/><circle class="cls-2" cx="42.23" cy="445.36" r="40.23"/><circle class="cls-2" cx="92.44" cy="363.34" r="40.23"/><circle class="cls-2" cx="42.23" cy="383.89" r="40.23"/><circle class="cls-2" cx="92.44" cy="301.87" r="40.23"/><circle class="cls-2" cx="42.23" cy="322.41" r="40.23"/><circle class="cls-2" cx="92.44" cy="240.39" r="40.23"/><circle class="cls-2" cx="42.23" cy="260.93" r="40.23"/><circle class="cls-2" cx="92.44" cy="178.91" r="40.23"/><circle class="cls-2" cx="42.23" cy="199.46" r="40.23"/><circle class="cls-2" cx="92.44" cy="118.14" r="40.23"/><circle class="cls-2" cx="42.23" cy="138.68" r="40.23"/><circle class="cls-2" cx="92.44" cy="72.53" r="40.23"/><circle class="cls-2" cx="42.23" cy="93.07" r="40.23"/><circle class="cls-2" cx="758.87" cy="670.73" r="40.23"/><circle class="cls-2" cx="708.65" cy="691.27" r="40.23"/><circle class="cls-2" cx="758.87" cy="609.25" r="40.23"/><circle class="cls-2" cx="708.65" cy="629.79" r="40.23"/><circle class="cls-2" cx="758.87" cy="547.77" r="40.23"/><circle class="cls-2" cx="708.65" cy="568.32" r="40.23"/><circle class="cls-2" cx="758.87" cy="486.3" r="40.23"/><circle class="cls-2" cx="708.65" cy="506.84" r="40.23"/><circle class="cls-2" cx="758.87" cy="424.82" r="40.23"/><circle class="cls-2" cx="708.65" cy="445.36" r="40.23"/><circle class="cls-2" cx="758.87" cy="363.34" r="40.23"/><circle class="cls-2" cx="708.65" cy="383.89" r="40.23"/><circle class="cls-2" cx="758.87" cy="301.87" r="40.23"/><circle class="cls-2" cx="708.65" cy="322.41" r="40.23"/><circle class="cls-2" cx="758.87" cy="240.39" r="40.23"/><circle class="cls-2" cx="708.65" cy="260.93" r="40.23"/><circle class="cls-2" cx="758.87" cy="178.91" r="40.23"/><circle class="cls-2" cx="708.65" cy="199.46" r="40.23"/><circle class="cls-2" cx="758.87" cy="118.14" r="40.23"/><circle class="cls-2" cx="708.65" cy="138.68" r="40.23"/><circle class="cls-2" cx="758.87" cy="72.53" r="40.23"/><circle class="cls-2" cx="708.65" cy="93.07" r="40.23"/><circle class="cls-2" cx="131.32" cy="67.67" r="40.23" transform="translate(-7.56 118.04) rotate(-47.2)"/><circle class="cls-2" cx="112.27" cy="118.47" r="40.23" transform="translate(-50.94 120.35) rotate(-47.2)"/><circle class="cls-2" cx="187.77" cy="67.67" r="40.23" transform="translate(10.54 159.47) rotate(-47.2)"/><circle class="cls-2" cx="168.73" cy="118.47" r="40.23" transform="translate(-32.84 161.78) rotate(-47.2)"/><circle class="cls-2" cx="244.23" cy="67.67" r="40.23" transform="translate(28.64 200.89) rotate(-47.2)"/><circle class="cls-2" cx="225.18" cy="118.47" r="40.23" transform="translate(-14.74 203.2) rotate(-47.2)"/><circle class="cls-2" cx="300.68" cy="67.67" r="40.23" transform="translate(46.73 242.32) rotate(-47.2)"/><circle class="cls-2" cx="281.64" cy="118.47" r="40.23" transform="translate(3.35 244.63) rotate(-47.2)"/><circle class="cls-2" cx="357.14" cy="67.67" r="40.23" transform="translate(64.83 283.74) rotate(-47.2)"/><circle class="cls-2" cx="338.1" cy="118.47" r="40.23" transform="translate(21.45 286.05) rotate(-47.2)"/><circle class="cls-2" cx="413.6" cy="67.67" r="40.23" transform="translate(82.93 325.16) rotate(-47.2)"/><circle class="cls-2" cx="394.55" cy="118.47" r="40.23" transform="translate(39.55 327.47) rotate(-47.2)"/><circle class="cls-2" cx="470.05" cy="67.67" r="40.23" transform="translate(101.03 366.59) rotate(-47.2)"/><circle class="cls-2" cx="451.01" cy="118.47" r="40.23" transform="translate(57.65 368.9) rotate(-47.2)"/><circle class="cls-2" cx="526.51" cy="67.67" r="40.23" transform="translate(119.12 408.01) rotate(-47.2)"/><circle class="cls-2" cx="507.46" cy="118.47" r="40.23" transform="translate(75.74 410.32) rotate(-47.2)"/><circle class="cls-2" cx="582.97" cy="67.67" r="40.23" transform="translate(137.22 449.43) rotate(-47.2)"/><circle class="cls-2" cx="563.92" cy="118.47" r="40.23" transform="translate(93.84 451.74) rotate(-47.2)"/><circle class="cls-2" cx="639.42" cy="67.67" r="40.23" transform="translate(155.32 490.86) rotate(-47.2)"/><circle class="cls-2" cx="620.38" cy="118.47" r="40.23" transform="translate(111.94 493.17) rotate(-47.2)"/><circle class="cls-2" cx="695.88" cy="67.67" r="40.23" transform="translate(173.42 532.28) rotate(-47.2)"/><circle class="cls-2" cx="676.83" cy="118.47" r="40.23" transform="translate(130.04 534.59) rotate(-47.2)"/><circle class="cls-2" cx="413.6" cy="695.87" r="40.23" transform="translate(-378 526.54) rotate(-47.2)"/><circle class="cls-2" cx="394.55" cy="746.67" r="40.23" transform="translate(-421.38 528.85) rotate(-47.2)"/><circle class="cls-2" cx="470.05" cy="695.87" r="40.23" transform="translate(-359.9 567.96) rotate(-47.2)"/><circle class="cls-2" cx="451.01" cy="746.67" r="40.23" transform="translate(-403.28 570.27) rotate(-47.2)"/><circle class="cls-2" cx="526.51" cy="695.87" r="40.23" transform="translate(-341.8 609.39) rotate(-47.2)"/><circle class="cls-2" cx="507.46" cy="746.67" r="40.23" transform="translate(-385.18 611.7) rotate(-47.2)"/><circle class="cls-2" cx="582.97" cy="695.87" r="40.23" transform="translate(-323.71 650.81) rotate(-47.2)"/><circle class="cls-2" cx="563.92" cy="746.67" r="40.23" transform="translate(-367.09 653.12) rotate(-47.2)"/><circle class="cls-2" cx="639.42" cy="695.87" r="40.23" transform="translate(-305.61 692.23) rotate(-47.2)"/><circle class="cls-2" cx="620.38" cy="746.67" r="40.23" transform="translate(-348.99 694.54) rotate(-47.2)"/><circle class="cls-2" cx="695.88" cy="695.87" r="40.23" transform="translate(-287.51 733.66) rotate(-47.2)"/><circle class="cls-2" cx="676.83" cy="746.67" r="40.23" transform="translate(-330.89 735.97) rotate(-47.2)"/></svg>