<?xml version="1.0" encoding="utf-8"?>
<!-- Generator: Adobe Illustrator 21.0.0, SVG Export Plug-In . SVG Version: 6.00 Build 0)  -->
<svg version="1.1" id="Ebene_1" xmlns="http://www.w3.org/2000/svg" xmlns:xlink="http://www.w3.org/1999/xlink" x="0px" y="0px"
	 viewBox="0 0 800 800" style="enable-background:new 0 0 800 800;" xml:space="preserve">
<style type="text/css">
	.st0{fill:none;stroke:#8E1919;stroke-width:40;}
	.st1{fill:none;stroke:#8E1919;stroke-width:110;}
</style>
<path class="st0" d="M582,58.5c0,0,0-17.5,0,30.5c0,87.3,43.7,146-82,146s-180.2,35.8-100,116s244.6,94,250,27c6-75-182-1.7-182-71
	s171.8-1.8,212-42S609.8,86.8,698.7,86.8S785,277,717,345s56.7,71.3,13,115s-114-19.7-114,30.3s61.8,38.5,116,92.7s73,156-45,156
	s-233,21.3-233-49s285-11,207-89s-201,91-201,26s42-49,79-86s-6.5-120.5-79-48s-79.5,14.5-123,58s35.2,69,35.2,153S198,742,198,658
	s112,17,112-49s-146-128-146,12s-64,155-64,41s-7-172,49-172s183.5,73.9,155-5c-22.2-61.4,68.7-61.3,16-114s-93.7,97.3-147,44
	s-48.3-99.7-21-127s88.7-37,132-37s-64-104,44-104s165,1,165-43S377.7,63.7,281,63.7S192.9,175.2,146,177
	c-74.7,2.8-11.7-100.6-56-100.6S57,134,57,181s56,13,53,55c-5,69.8-90,90-32.8,148.9C120.8,429.7,73,439,73,502s40,241-73,241"/>
<path class="st1" d="M432.6-998.7C225.4-998.7,57.4-983,57.4-703C57.4-495.8,232-247,474-471.9C581.7-571.9,583.7-227.9,582.5-1
	c-0.1,16-0.2,31.4-0.3,46c0,6-0.1,11.9-0.1,17.7"/>
</svg>
