<svg id="Ebene_1" data-name="Ebene 1" xmlns="http://www.w3.org/2000/svg" viewBox="0 0 800 800"><defs><style>.cls-1,.cls-2{fill:none;stroke:#8e1919;}.cls-1{stroke-width:40px;}.cls-2{stroke-width:110px;}</style></defs><path class="cls-1" d="M582,57.5S582,84,582,88c0,0,20,148-82,146s-158-6-100,116,244.64,94,250,27c6-75-193,8-182-71,10-71.78,210,4,212-42S634,87.65,698.73,85.85C765,84,748,274,717,344s61.22,83,13,115c-40.06,26.58-126,0-114,50s107,2,116,73c9.81,77.38,30,144-45,156s-249,1-233-49,259-11,207-89c-45.15-67.73-199,74-201,26-.88-21.2,63.59-52.88,79-86,19.48-41.88-42.74-110.89-79-48-49,85-87.83-16-123,58-27.47,57.8,53.17,93,35.17,153S196,761.34,198,657s116.48.27,112-49c-7-77-146-92-146,12s-58,195-64,41-7-172,49-172,183.5,73.89,155-5c-22.19-61.41,109.59-52.8,16-114-104-68-69,76-147,44s-73-83-21-127,107,12,132-37c12-23.43-83-100,44-104,38-1.2,179,19,165-43-5.16-22.84-132.26-66.1-212-40.34-52.76,17-88.07,111.56-135,113.34C71.33,178.83,183,65.38,90,75.38,53.3,79.32,56.06,121,57,160c.51,21.2,56,33,53,75-5,69.82-90,90-32.78,148.89C120.79,428.74,97.4,443.61,73,501,41.49,575.11,91,742,0,742"/><path class="cls-2" d="M432.6-999.73C225.36-999.73,57.36-984,57.36-704,57.36-496.76,232-248,474-472.86,581.67-572.91,583.69-228.92,582.46-2c-.09,16-.19,31.39-.27,46q-.05,9-.09,17.65"/></svg>