<?xml version="1.0" encoding="utf-8"?>
<!-- Generator: Adobe Illustrator 21.0.0, SVG Export Plug-In . SVG Version: 6.00 Build 0)  -->
<svg version="1.1" id="Ebene_1" xmlns="http://www.w3.org/2000/svg" xmlns:xlink="http://www.w3.org/1999/xlink" x="0px" y="0px"
	 viewBox="0 0 21.7 23.8" style="enable-background:new 0 0 21.7 23.8;" xml:space="preserve">
<style type="text/css">
	.st0{fill:#F9C5AF;}
	.st1{fill:#E30613;}
</style>
<g>
	<path class="st0" d="M10.7,23.7c-1.5-1.1-2.5-3-2.2-5.1c0.2-2.1,1.5-3.8,3.3-4.6c0.2,0.1,0.4,0.3,0.5,0.4c-0.1-0.2-0.2-0.4-0.3-0.6
		c1.2-1.6,3.1-2.5,5.2-2.3c2.1,0.2,3.7,1.5,4.5,3.2c-0.9,1.2-2.2,2-3.7,2.2c1.3,1.6,1.5,3.7,0.9,5.5c-1.9,0.3-3.9-0.4-5.2-2
		C13.1,22,12,23.1,10.7,23.7"/>
	<path class="st1" d="M7.6,19.1c-2.5,2-4.9,1.1-5.4-2.1l-1-6.5L0.1,4c-0.5-3.2,1.5-4.8,4.5-3.7l6.1,2.4l6.1,2.4
		c3,1.2,3.4,3.7,0.9,5.7L12.7,15C12.7,15,7.6,19.1,7.6,19.1z"/>
	<path class="st0" d="M15.9,7.7c0.2,0.3,0.2,0.7-0.1,1s-0.7,0.2-1-0.1c-0.2-0.3-0.2-0.7,0.1-1C15.2,7.3,15.6,7.4,15.9,7.7"/>
	<path class="st0" d="M12.6,10.3c0.2,0.3,0.2,0.7-0.1,1c-0.3,0.2-0.7,0.2-1-0.1c-0.2-0.3-0.2-0.7,0.1-1C11.9,10,12.3,10,12.6,10.3"
		/>
	<path class="st0" d="M9.2,13c0.2,0.3,0.2,0.7-0.1,1c-0.3,0.2-0.7,0.2-1-0.1c-0.2-0.3-0.2-0.7,0.1-1C8.6,12.7,9,12.7,9.2,13"/>
	<path class="st0" d="M5.9,15.7c0.2,0.3,0.2,0.7-0.1,1c-0.3,0.2-0.7,0.2-1-0.1s-0.2-0.7,0.1-1C5.3,15.4,5.7,15.4,5.9,15.7"/>
	<path class="st0" d="M11.9,6.2c0.2,0.3,0.2,0.7-0.1,1c-0.3,0.2-0.7,0.2-1-0.1c-0.2-0.3-0.2-0.7,0.1-1C11.3,5.8,11.7,5.9,11.9,6.2"
		/>
	<path class="st0" d="M8.6,8.9c0.2,0.3,0.2,0.7-0.1,1C8.2,10,7.8,10,7.5,9.7C7.3,9.4,7.4,9,7.6,8.8C7.9,8.5,8.4,8.6,8.6,8.9"/>
	<path class="st0" d="M5.3,11.5c0.2,0.3,0.2,0.7-0.1,1c-0.3,0.2-0.7,0.2-1-0.1c-0.2-0.3-0.2-0.7,0.1-1C4.6,11.2,5,11.3,5.3,11.5"/>
	<path class="st0" d="M8,4.7c0.2,0.3,0.2,0.7-0.1,1c-0.3,0.2-0.7,0.2-1-0.1C6.7,5.2,6.7,4.8,7,4.6C7.3,4.3,7.7,4.4,8,4.7"/>
	<path class="st0" d="M4.6,7.4c0.2,0.3,0.2,0.7-0.1,1c-0.3,0.2-0.7,0.2-1-0.1c-0.2-0.3-0.2-0.7,0.1-1C4,7,4.4,7.1,4.6,7.4"/>
	<path class="st0" d="M4,3.2c0.2,0.3,0.2,0.7-0.1,1C3.6,4.4,3.2,4.3,3,4c-0.2-0.3-0.2-0.7,0.1-1S3.8,2.9,4,3.2"/>
</g>
</svg>
