<svg id="Ebene_1" data-name="Ebene 1" xmlns="http://www.w3.org/2000/svg" viewBox="0 0 800 800"><defs><style>.cls-1,.cls-3{fill:none;stroke:#8e1919;}.cls-1{stroke-miterlimit:10;stroke-width:70px;}.cls-2{fill:#8e1919;}.cls-3{stroke-width:110px;}</style></defs><line class="cls-1" x1="400" y1="-1025" x2="400" y2="106"/><path class="cls-2" d="M700.78,148c-96.84-51.34-218.07-4-240.35,126-15.17,88.56-48.54,209.32-110.49,232.42-112.71,42-168.36,36.17-156.58,104.31C212,719.28,359.26,763.38,510.71,708.31c100.93-36.75,199.4-130.91,255.17-247.59C821.54,344.51,797.62,199.37,700.78,148Z"/><path class="cls-1" d="M400,106A117,117,0,0,0,517,223H649.26"/><path class="cls-3" d="M432.6,600.27C225.36,600.27,57.36,616,57.36,896c0,207.24,174.64,456,416.64,231.14,107.67-100,109.69,243.95,108.46,470.86-.09,16-.19,31.39-.27,46q-.05,9-.09,17.65"/></svg>