<svg id="Ebene_1" data-name="Ebene 1" xmlns="http://www.w3.org/2000/svg" viewBox="0 0 800 800"><defs><style>.cls-1,.cls-6{fill:none;}.cls-1{stroke:#8e1919;stroke-miterlimit:10;stroke-width:70px;}.cls-2{fill:#c92828;}.cls-3{fill:#8e1919;}.cls-4{fill:#d00;}.cls-5{fill:tomato;}.cls-6{stroke:tomato;stroke-width:60px;}</style></defs><line class="cls-1" x1="400" y1="576" x2="400" y2="1707"/><circle class="cls-2" cx="400" cy="376" r="180"/><circle class="cls-3" cx="400" cy="426" r="120"/><ellipse class="cls-2" cx="400" cy="326" rx="30" ry="50"/><path class="cls-4" d="M422.3,587,569.9,461c-19.7-9.4-43.8-15-69.9-15-66.3,0-120,35.8-120,80C380,550.4,396.4,572.3,422.3,587Z"/><ellipse class="cls-5" cx="150" cy="376" rx="50" ry="90"/><ellipse class="cls-5" cx="650" cy="376" rx="50" ry="90"/><ellipse class="cls-5" cx="400" cy="146" rx="40" ry="50"/><circle class="cls-3" cx="385" cy="131" r="5"/><circle class="cls-3" cx="415" cy="131" r="5"/><path class="cls-4" d="M376.8,587.5C403.2,572.8,420,550.7,420,526c0-44.2-53.7-80-120-80-29.2,0-56,7-76.8,18.5Z"/><circle class="cls-6" cx="400" cy="376" r="200"/></svg>