<svg id="Ebene_1" data-name="Ebene 1" xmlns="http://www.w3.org/2000/svg" viewBox="0 0 800 800"><defs><style>.cls-1,.cls-6{fill:none;}.cls-1{stroke:#8e1919;stroke-miterlimit:10;stroke-width:70px;}.cls-2{fill:#c92828;}.cls-3{fill:#8e1919;}.cls-4{fill:#d00;}.cls-5{fill:tomato;}.cls-6{stroke:tomato;stroke-width:60px;}</style></defs><line class="cls-1" x1="400" y1="575" x2="400" y2="1706"/><circle class="cls-2" cx="400" cy="375" r="180"/><circle class="cls-3" cx="400" cy="425" r="120"/><ellipse class="cls-2" cx="400" cy="325" rx="30" ry="50"/><path class="cls-4" d="M422.3,586,569.9,460c-19.7-9.4-43.8-15-69.9-15-66.3,0-120,35.8-120,80C380,549.4,396.4,571.3,422.3,586Z"/><ellipse class="cls-5" cx="150" cy="375" rx="50" ry="90"/><ellipse class="cls-5" cx="650" cy="375" rx="50" ry="90"/><ellipse class="cls-5" cx="400" cy="145" rx="40" ry="50"/><circle class="cls-3" cx="385" cy="130" r="5"/><circle class="cls-3" cx="415" cy="130" r="5"/><path class="cls-4" d="M376.8,586.5C403.2,571.8,420,549.7,420,525c0-44.2-53.7-80-120-80-29.2,0-56,7-76.8,18.5Z"/><circle class="cls-6" cx="400" cy="375" r="200"/></svg>