<?xml version="1.0" encoding="utf-8"?>
<!-- Generator: Adobe Illustrator 21.0.0, SVG Export Plug-In . SVG Version: 6.00 Build 0)  -->
<svg version="1.1" id="Ebene_1" xmlns="http://www.w3.org/2000/svg" xmlns:xlink="http://www.w3.org/1999/xlink" x="0px" y="0px"
	 viewBox="0 0 1000 1000" style="enable-background:new 0 0 1000 1000;" xml:space="preserve">
<style type="text/css">
	.st0{fill:#404355;}
	.st1{fill:#4C4F6C;}
	.st2{fill:#AAD0D9;}
	.st3{fill:#FFFFFF;}
</style>
<path id="Finne" class="st0" d="M539.7,495c13.5,0,50.8-25.3,55.3-25.3s7.3,40.5,23,40.5S526.2,495,539.7,495z"/>
<path id="schwanzflosse" class="st0" d="M629,401.4c0,0-3.6,41.1,12.2,41.3c15.8,0.2,25.4-23.7,25.4-23.7S642,401.4,629,401.4z"/>
<path id="koerper" class="st1" d="M308.5,484.9c0,0,59,0,68,0s17-6,33-6s32,6,50.5,6s56.5,10,74.5,10s62,7,95.5-38
	s45.5-40.5,45.5-40.5s17.3,52.3-17.5,87s-63,88.5-131.5,88s-223.5-73-223.5-73s-12-11.8-12-20.9C291,488.4,303.5,484.9,308.5,484.9z
	"/>
<path id="bauch" class="st2" d="M303,518.4c0,0,75,19.5,96,15.5c0,0,28.5,19,46,23.5s53.2,9.5,53.2,9.5s9.3,16,6.3,30.5
	c0,0-113,0-156.8-32.9C307.6,534.4,303,518.4,303,518.4z"/>
<path id="flosse" class="st0" d="M444,553.4c0,0,38,35,46.5,40s25.5,14.5,34.5,13s0.5-8.5-6-13.5s-14.1-18-20.8-27.5
	s-18.7-16.5-24.7-16.5s-10,2.5-16.5,0S444,553.4,444,553.4z"/>
<circle id="Auge" class="st3" cx="394.2" cy="523.1" r="4.6"/>
<circle id="Pupille" cx="394.2" cy="523.1" r="2.3"/>
<path id="mund" class="st0" d="M301.2,486.3c0,0-4,6.9,7.9,10.9s49.9,13.4,60.6,15.9s16.2,7.1,16.2,7.1s-37.7-6.6-52-7.6
	s-33.7-5.1-40.3-11.1C287,495.4,293.9,487.7,301.2,486.3z"/>
<path id="schwanzflosse2" class="st0" d="M670.2,419.5c8-8,23-26,36-26s-22,54-29,54S662.2,427.5,670.2,419.5z"/>
</svg>
