<?xml version="1.0" encoding="utf-8"?>
<!-- Generator: Adobe Illustrator 21.0.0, SVG Export Plug-In . SVG Version: 6.00 Build 0)  -->
<svg version="1.1" id="Ebene_1" xmlns="http://www.w3.org/2000/svg" xmlns:xlink="http://www.w3.org/1999/xlink" x="0px" y="0px"
	 viewBox="0 0 800 800" style="enable-background:new 0 0 800 800;" xml:space="preserve">
<style type="text/css">
	.st0{fill:#FFCD9D;}
	.st1{fill:#8E1919;}
	.st2{fill:#FF8673;}
	.st3{fill:#CAFF76;}
</style>
<g>
	<path class="st0" d="M562.2,1820.8l-70-1.2l3.3-200c0.1-11.3,0.1-22.5,0.2-33.7c0.6-86.2,1.1-167.7-5.3-233.5
		c-8.2-84.3-25.4-109.2-35-116.5c-2.4-1.9-8.1-6.3-23.5-2.1c-63,17-115.5,24-160.4,21.3c-45.1-2.6-82.9-15.4-112.4-38
		c-36.4-27.9-60.5-70.2-73.4-129.2C74,1034.5,72.4,972,72.4,918c0-9.1,0-18,0-26.8c-0.2-159.5-0.4-285.4,79.8-363.5
		c29.9-29.1,68.7-49.4,118.6-62c49-12.4,108.8-17.4,182.9-15.4l-2,70c-67.5-1.9-121,2.4-163.7,13.3c-37.7,9.5-66.1,24-87,44.3
		c-59,57.4-58.8,164.7-58.6,313.2c0,8.8,0,17.8,0,26.9c0,50.3,1.4,108,11.7,154.8c9.3,42.2,24.9,71.2,47.6,88.7
		c18.4,14.1,42.6,21.9,73.9,23.7c36.8,2.2,83.2-4.2,138.1-19c40.4-10.9,68.3,1.8,84.5,14.3c34.2,26.4,53.3,77.3,61.9,165.1
		c6.8,69.4,6.2,152.6,5.6,240.7c-0.1,11.2-0.2,22.5-0.2,33.8l0,0.4L562.2,1820.8z"/>
</g>
<g>
	<path class="st1" d="M532.8,232.5c-51.2,0-91.9-15.3-120.7-45.3C370,143.4,369.8,83.7,370,75.6V-1025h60V76.8l0,0.3
		c0,2.3-0.2,42.2,25.7,68.8c17.1,17.6,43.1,26.5,77.1,26.5V232.5z"/>
</g>
<g>
	<path class="st1" d="M532.8,232.5c-51.2,0-91.9-15.3-120.7-45.3C370,143.4,369.8,83.7,370,75.6V-1025h60V76.8l0,0.3
		c0,2.3-0.2,42.2,25.7,68.8c17.1,17.6,43.1,26.5,77.1,26.5V232.5z"/>
</g>
<g>
	<path class="st0" d="M562.2,1820.8l-70-1.2l3.3-200c0.1-11.3,0.1-22.5,0.2-33.7c0.6-86.2,1.1-167.7-5.3-233.5
		c-8.2-84.3-25.4-109.2-35-116.5c-2.4-1.9-8.1-6.3-23.5-2.1c-63,17-115.5,24-160.4,21.3c-45.1-2.6-82.9-15.4-112.4-38
		c-36.4-27.9-60.5-70.2-73.4-129.2C74,1034.5,72.4,972,72.4,918c0-9.1,0-18,0-26.8c-0.2-159.5-0.4-285.4,79.8-363.5
		c29.9-29.1,68.7-49.4,118.6-62c49-12.4,108.8-17.4,182.9-15.4l-2,70c-67.5-1.9-121,2.4-163.7,13.3c-37.7,9.5-66.1,24-87,44.3
		c-59,57.4-58.8,164.7-58.6,313.2c0,8.8,0,17.8,0,26.9c0,50.3,1.4,108,11.7,154.8c9.3,42.2,24.9,71.2,47.6,88.7
		c18.4,14.1,42.6,21.9,73.9,23.7c36.8,2.2,83.2-4.2,138.1-19c40.4-10.9,68.3,1.8,84.5,14.3c34.2,26.4,53.3,77.3,61.9,165.1
		c6.8,69.4,6.2,152.6,5.6,240.7c-0.1,11.2-0.2,22.5-0.2,33.8l0,0.4L562.2,1820.8z"/>
</g>
<path class="st2" d="M672.4,129.9c-81.3-43.1-183.2-3.4-201.9,105.8c-12.8,74.4-40.7,175.8-92.8,195.2
	c-94.7,35.3-141.4,30.4-131.5,87.6c1.7,9.7,4.6,18.8,8.6,27.2c4.9,10.3,11.4,19.6,19.3,27.9c46.5,48.8,141.6,62.1,238.7,26.7
	c84.7-30.9,167.5-109.9,214.3-208C773.8,294.9,753.7,173,672.4,129.9z"/>
<path class="st3" d="M562.9,482.4c-18-4.1-64.5-21.6-110.3,2.9c-34.8,18.6-66.7,17.8-111.7,2.8s-94.5,4.8-94.5,4.8l0,0
	c-1.9,6.9-2,15.2-0.2,25.6c1.7,9.7,4.6,18.8,8.6,27.2c4.9,10.3,11.4,19.6,19.3,27.9c46.5,48.8,141.6,62.1,238.7,26.7
	c57.4-20.9,113.9-64,158.9-120C639.6,505.6,580.9,486.6,562.9,482.4z"/>
</svg>
