<?xml version="1.0" encoding="utf-8"?>
<!-- Generator: Adobe Illustrator 21.0.0, SVG Export Plug-In . SVG Version: 6.00 Build 0)  -->
<svg version="1.1" id="Ebene_1" xmlns="http://www.w3.org/2000/svg" xmlns:xlink="http://www.w3.org/1999/xlink" x="0px" y="0px"
	 viewBox="0 0 800 800" style="enable-background:new 0 0 800 800;" xml:space="preserve">
<style type="text/css">
	.st0{fill:#8E1919;}
	.st1{fill:none;stroke:#8E1919;stroke-width:60;stroke-miterlimit:10;}
	.st2{fill:#A46946;}
	.st3{fill:#FF976E;}
	.st4{fill:#C92828;}
	.st5{fill:#FFFFFF;}
</style>
<g>
	<path class="st0" d="M532.8,1832.5c-51.2,0-91.9-15.3-120.7-45.3c-42-43.8-42.2-103.4-42.1-111.5V575h60v1101.8l0,0.3
		c0,2.3-0.2,42.2,25.7,68.8c17.1,17.6,43.1,26.5,77.1,26.5V1832.5z"/>
</g>
<path class="st1" d="M400,575v1101c0,0-5.2,126.5,132.8,126.5"/>
<path class="st2" d="M237.9,212.4c43.4-43.4,101.2-67.4,162.6-67.4c61.4,0,119.2,23.9,162.6,67.4c3.9,3.9,7.5,7.8,11.1,11.9
	l54.7-76.1l-69,9l-10.5-52.5L479,122.5l-43.6-74.8L385,106.9L264.4,64.7l-0.4,94.8l-85.8,7.8l38.1,69.9
	C222.8,228.5,230,220.2,237.9,212.4z"/>
<path class="st3" d="M650,285c-11.6,0-22.2,7.1-30.7,18.9c-11.1-34.1-30.1-65.4-56.2-91.5C519.7,168.9,461.9,145,400.5,145
	c-61.4,0-119.2,23.9-162.6,67.4c-26.4,26.4-45.5,58-56.5,92.5c-8.6-12.4-19.5-19.9-31.3-19.9c-27.6,0-50,40.3-50,90s22.4,90,50,90
	c11.9,0,22.8-7.4,31.3-19.9c11,34.5,30.2,66.2,56.5,92.5c43.4,43.4,101.2,67.4,162.6,67.4s119.2-23.9,162.6-67.4
	c26.1-26.1,45.2-57.4,56.2-91.5c8.5,11.8,19.1,18.9,30.7,18.9c27.6,0,50-40.3,50-90S677.6,285,650,285z"/>
<g>
	<rect x="230.1" y="371" class="st4" width="339.7" height="8"/>
</g>
<g>
	<circle class="st0" cx="385" cy="330.2" r="5"/>
	<circle class="st0" cx="415" cy="330.2" r="5"/>
</g>
<g>
	<g>
		<ellipse class="st5" cx="321.9" cy="242.9" rx="31" ry="42.1"/>
		<circle cx="321.9" cy="266.9" r="9.1"/>
	</g>
	<g>
		<ellipse class="st5" cx="479" cy="242.9" rx="31" ry="42.1"/>
		<circle cx="479" cy="266.9" r="9.1"/>
	</g>
</g>
</svg>
