<?xml version="1.0" encoding="utf-8"?>
<!-- Generator: Adobe Illustrator 21.0.0, SVG Export Plug-In . SVG Version: 6.00 Build 0)  -->
<svg version="1.1" id="Ebene_1" xmlns="http://www.w3.org/2000/svg" xmlns:xlink="http://www.w3.org/1999/xlink" x="0px" y="0px"
	 viewBox="0 0 800 800" style="enable-background:new 0 0 800 800;" xml:space="preserve">
<style type="text/css">
	.st0{fill:#C92828;}
	.st1{fill:#8E1919;}
	.st2{fill:#DD0000;}
	.st3{fill:#FF976E;}
</style>
<circle class="st0" cx="400" cy="375" r="180"/>
<g>
	<path class="st1" d="M532.7,1832.5c-51.2,0-91.9-15.3-120.7-45.3c-42-43.8-42.2-103.4-42.1-111.5V575h60v1101.8l0,0.3
		c0,2.3-0.2,42.2,25.7,68.8c17.1,17.6,43.1,26.5,77.1,26.5V1832.5z"/>
</g>
<circle class="st1" cx="400" cy="425" r="120"/>
<path class="st2" d="M569.9,460c-19.7-9.4-43.8-15-69.9-15c-41.8,0-78.5,14.2-100,35.8c-21.5-21.6-58.2-35.8-100-35.8
	c-29.2,0-56,7-76.8,18.5l153.6,123c8.9-5,16.7-10.8,23.2-17.3c6.2,6.3,13.7,11.9,22.3,16.8L569.9,460z"/>
<path class="st3" d="M650,285c-11.7,0-22.5,7.2-31,19.4c-11-34.3-30.1-65.8-56.4-92c-33.9-33.9-76.5-55.9-122.7-63.9
	c0.1-1.1,0.1-2.3,0.1-3.4c0-27.6-17.9-50-40-50s-40,22.4-40,50c0,1.2,0,2.3,0.1,3.4c-46.3,8-88.9,30.1-122.7,63.9
	c-26.2,26.2-45.3,57.7-56.4,92c-8.5-12.1-19.3-19.4-31-19.4c-27.6,0-50,40.3-50,90s22.4,90,50,90c11.7,0,22.5-7.2,31-19.4
	c11,34.3,30.1,65.8,56.4,92C280.8,581.1,338.6,605,400,605c61.4,0,119.2-23.9,162.6-67.4c26.2-26.2,45.3-57.7,56.4-92
	c8.5,12.1,19.3,19.4,31,19.4c27.6,0,50-40.3,50-90S677.6,285,650,285z M400,545c-93.7,0-170-76.3-170-170c0-93.7,76.3-170,170-170
	s170,76.3,170,170C570,468.7,493.7,545,400,545z"/>
<circle class="st1" cx="385" cy="130" r="5"/>
<circle class="st1" cx="415" cy="130" r="5"/>
</svg>
