<svg id="Ebene_1" data-name="Ebene 1" xmlns="http://www.w3.org/2000/svg" viewBox="0 0 800 117.91"><defs><style>.cls-1{fill:#ba8d1c;}.cls-2{fill:#4c4535;}.cls-3{fill:#755a20;}</style></defs><title>boden</title><rect class="cls-1" y="61.69" width="800" height="56.22"/><path class="cls-2" d="M748.67,616.74l-140-14-129,16-148-15-137.88,24-121.12-11L0,623.55v41.56l116.67-1.37,164,6,180-3,145-8,126.12,2s34,6,68.22,5.51V610.67Z" transform="translate(0 -602.74)"/><polygon class="cls-3" points="721.78 36 605.67 54 470.67 32 280.67 65 115.67 41 0 60.37 0 84.08 158.67 68 330.67 97 532.78 64 688.78 94 800 81 800 61.51 721.78 36"/></svg>