<?xml version="1.0" encoding="utf-8"?>
<!-- Generator: Adobe Illustrator 21.0.0, SVG Export Plug-In . SVG Version: 6.00 Build 0)  -->
<svg version="1.1" id="Ebene_1" xmlns="http://www.w3.org/2000/svg" xmlns:xlink="http://www.w3.org/1999/xlink" x="0px" y="0px"
	 viewBox="0 0 800 800" style="enable-background:new 0 0 800 800;" xml:space="preserve">
<style type="text/css">
	.st0{fill:#E5A345;}
	.st1{fill:#8C664A;}
	.st2{fill:#D97D43;}
	.st3{fill:#9A5433;}
	.st4{fill:#E77715;}
	.st5{fill:#B96A4D;}
	.st6{fill:#D78228;}
	.st7{fill:#CF6621;}
	.st8{fill:#BB7843;}
	.st9{fill:#9B4319;}
</style>
<polygon class="st0" points="801.2,661.6 638.3,656.6 544,633.8 536,603 483.1,596 483.1,557.3 483.1,447.1 487.4,434.2 
	487.4,418.3 503.2,386.5 496.3,310 496.3,289.2 509.2,284.2 509.2,254.4 532,246.5 536,233.6 530.1,222.6 545.9,212.7 544,201.8 
	578.7,201.8 609.5,201.8 608.5,181.9 617.4,171 637.3,171 642.1,180.9 673.1,194.8 801.2,138.4 "/>
<polyline class="st1" points="483.1,596 536,603 638.3,656.6 801.2,661.6 801.2,606.4 483.1,570.3 "/>
<polygon class="st2" points="801.2,506.8 483.1,557.3 483.1,447.1 801.2,433.3 "/>
<polygon class="st3" points="509.2,284.2 509.2,254.4 532,246.5 631,255 614.3,287.7 "/>
<polygon class="st4" points="801.2,661.6 638.3,656.6 544,633.8 536,603 659.6,610.3 801.2,635.8 "/>
<polygon class="st5" points="801.2,170.8 694.9,188.9 688.9,171 801.2,138.4 "/>
<polygon class="st6" points="608.5,181.9 617.4,171 637.3,171 642.1,180.9 "/>
<polygon class="st7" points="801.2,570.3 668.6,550.3 668.6,495.3 801.2,495.3 "/>
<polygon class="st8" points="496.3,310 503.2,386.5 688.9,398.3 688.9,360.8 "/>
<polygon class="st9" points="801.2,367.6 638.6,367.6 660.3,324.1 801.2,324.1 "/>
</svg>
