<svg xmlns="http://www.w3.org/2000/svg" version="1.1" x="0" y="0" viewBox="0 0 800 800" xml:space="preserve">
	<style type="text/css">
		.st0 {
			fill: #FF1400;
		}
		.st1 {
			fill: #CBB19B;
		}
		.st2 {
			fill: #E2C6AA;
		}
		.st3 {
			fill: #585646;
		}
		.st4 {
			fill: #FFFFFF;
		}
		.st5 {
			fill: #2F2C2C;
		}

	</style>
	<polygon class="st0" points="154.7 577.1 102.1 614 136.8 789.3 154.7 640.3 296.6 624.7 "/>
	<polygon class="st0" points="199.4 592.1 182.1 693.9 328.8 800 242.9 677.3 296.6 624.7 "/>
	<polygon class="st0" points="296.6 608.1 275.1 668.9 382.5 789.3 328.8 672.5 387.3 627.2 "/>
	<polygon class="st0" points="647.7 577.1 700.3 614 665.6 789.3 647.7 640.3 505.9 624.7 "/>
	<polygon class="st0" points="603 592.1 620.4 693.9 473.7 800 559.6 677.3 505.9 624.7 "/>
	<polygon class="st0" points="505.9 608.1 527.4 668.9 420 789.3 473.7 672.5 415.2 627.2 "/>
	<ellipse class="st0" cx="408" cy="547.8" rx="276" ry="100.7"/>
	<path class="st0" d="M157.1 528.1l-85.9-52.6c0 0-118.1-72.6-50.1-221.6s234.3-57.2 234.3-57.2 -97.5 47-123.4 84.6 -15.6 76.4-15.6 76.4 20.9-11.1 51.9-47.8 39.9-76.4 39.9-76.4 57.2 91.8 19.1 155.1 -59.6 71.6-59.6 71.6l56 44.2"/>
	<path class="st0" d="M660.3 528.1l68-56.4c0 0 123.4-77.8 46.5-223.6s-229-54.6-229-54.6 69.8 28.1 116.8 90.7c47 62.6 61.4 119.3 61.4 119.3s-49.9-31.8-78.2-66.2c-28.3-34.3-56.4-98-56.4-98s-58.1 79.1-29.5 142.2 64 76 64 76l-21.1 34"/>
	<path class="st1" d="M479.5 408.9c0 0 6.3-21.7 15.1-17.4 8.7 4.4 15.5 14.6 11.2 38.4 -4.4 23.8-0.1 46.6-12.4 49.1 -12.3 2.4-21.6-16.5-23-21.9C468.9 451.8 479.5 408.9 479.5 408.9z"/>
	<path class="st1" d="M311.9 479.2c0 0-4.9 13.4-17.5 8.5 -12.6-4.9-18-13.1-18.9-23.3s-6.8-30.1-7.8-32.6c-1-2.4-0.5-28.4 18-23 18.5 5.5 26.2 30.7 26.2 30.7V479.2z"/>
	<path
		class="st2"
		d="M295.4 423.6c0 0-0.5 62.2 20.4 92.3 20.9 30.1 49.1 60.2 79.7 60.2s81.1-34 85.5-94.7c4.4-60.7 3.4-124.9 2.4-126.3 -1-1.5-1.9-62.7-22.3-78.7 -20.4-16-67.5-32.6-94.7-24.8 -27.2 7.8-71.9 15.5-77.3 59.3C283.7 354.6 295.4 423.6 295.4 423.6z"/>
		<path
		class="st3"
		d="M295.4 423.6c0 0 7.3-67 4.9-78.7s-2.2-45.7-2.2-45.7 11.9 16 13.8 19.9c1.9 3.9 14.6-15.1 8.3-19.9s38.4 0.5 47.1 10.2c8.7 9.7 25.8 4.9 33 3.9 7.3-1 14.6-14.6 28.7-10.7s21.9 8.5 22.3-5.2c0.5-13.7 6.3-13 10.2 0s11.2 49.9 14.6 63c3.4 13.1 1.6 29.3 12.5 31.9 10.9 2.6 14.2-14.9 14.2-25.1s1.5-54.9-8.3-66.1c-9.7-11.2-24.8-37.4-32.6-43.7 -7.8-6.3-29.6-25.8-40.8-29.2s-41.8-8.3-47.6-8.3c-5.8 0-32.6 10.2-41.3 14.1s-26.2 27.2-32.6 33.5 -25.8 33.5-29.2 54.2c-3.4 20.6-1.5 62.7 3.4 69.1C278.9 397.3 295.4 423.6 295.4 423.6z"/>
		<path class="st4" d="M339.4 419.3c-12-1.1-20.7-11.4-19.8-23.4 0.9-12.1 11-20.9 23.1-20.1 12.8 0.8 22 11.7 20.5 24.3C361.9 411.9 351.4 420.4 339.4 419.3z"/>
		<path class="st5" d="M347.2 407.7c-5.6-0.5-9.7-5.4-9.3-11 0.4-5.7 5.2-9.8 10.9-9.4 6 0.4 10.3 5.5 9.6 11.4C357.8 404.3 352.9 408.3 347.2 407.7z"/>
		<path class="st5" d="M393.1 521.1c-17.8-1.7-30.7-17-29.4-34.9 1.4-17.9 16.4-31 34.4-29.9 19.1 1.2 32.7 17.3 30.5 36.1C426.6 510.1 410.9 522.7 393.1 521.1z"/>
		<path class="st4" d="M436 413.2c11.9-2 19.7-13 17.9-24.9 -1.8-12-12.6-19.9-24.6-18.2 -12.7 1.8-21 13.3-18.6 25.8C412.9 407.6 424.1 415.2 436 413.2z"/>
		<path class="st5" d="M427.3 402.3c5.6-1 9.3-6.1 8.4-11.7 -0.9-5.6-5.9-9.4-11.6-8.6 -6 0.8-9.9 6.3-8.7 12.1C416.5 399.7 421.7 403.3 427.3 402.3z"/>
	</svg>
