<?xml version="1.0" encoding="utf-8"?>
<!-- Generator: Adobe Illustrator 21.0.0, SVG Export Plug-In . SVG Version: 6.00 Build 0)  -->
<svg version="1.1" id="Ebene_1" xmlns="http://www.w3.org/2000/svg" xmlns:xlink="http://www.w3.org/1999/xlink" x="0px" y="0px"
	 viewBox="0 0 800 800" style="enable-background:new 0 0 800 800;" xml:space="preserve">
<style type="text/css">
	.st0{fill:#FF1400;}
	.st1{fill:#E6EAED;}
</style>
<polygon class="st0" points="256.7,450.8 227.3,471.4 246.7,569.4 256.7,486.1 336,477.4 "/>
<polygon class="st0" points="281.7,459.2 272,516.1 354,575.4 306,506.8 336,477.4 "/>
<polygon class="st0" points="336,468.1 324,502.1 384,569.4 354,504.1 386.7,478.8 "/>
<polygon class="st0" points="532.3,450.8 561.7,471.4 542.3,569.4 532.3,486.1 453,477.4 "/>
<polygon class="st0" points="507.3,459.2 517,516.1 435,575.4 483,506.8 453,477.4 "/>
<polygon class="st0" points="453,468.1 465,502.1 405,569.4 435,504.1 402.3,478.8 "/>
<ellipse class="st0" cx="398.3" cy="434.4" rx="154.3" ry="56.3"/>
<circle class="st1" cx="354" cy="369.1" r="41"/>
<circle class="st1" cx="427.7" cy="369.1" r="41"/>
<path class="st0" d="M258,423.4L210,394c0,0-66-40.6-28-123.9s131-32,131-32s-54.5,26.3-69,47.3s-8.7,42.7-8.7,42.7
	s11.7-6.2,29-26.7s22.3-42.7,22.3-42.7s32,51.3,10.7,86.7s-33.3,40-33.3,40l31.3,24.7"/>
<path class="st0" d="M539.3,423.4l38-31.5c0,0,69-43.5,26-125s-128-30.5-128-30.5s39,15.7,65.3,50.7c26.3,35,34.3,66.7,34.3,66.7
	s-27.9-17.8-43.7-37s-31.5-54.8-31.5-54.8s-32.5,44.2-16.5,79.5s35.8,42.5,35.8,42.5l-11.8,19"/>
<circle cx="363.1" cy="369.1" r="19.7"/>
<circle cx="418.5" cy="369.1" r="19.7"/>
</svg>
