<?xml version="1.0" encoding="utf-8"?>
<!-- Generator: Adobe Illustrator 21.0.0, SVG Export Plug-In . SVG Version: 6.00 Build 0)  -->
<svg version="1.1" id="Ebene_1" xmlns="http://www.w3.org/2000/svg" xmlns:xlink="http://www.w3.org/1999/xlink" x="0px" y="0px"
	 viewBox="0 0 800 800" style="enable-background:new 0 0 800 800;" xml:space="preserve">
<style type="text/css">
	.st0{fill:#907C59;}
	.st1{fill:#603D1F;}
	.st2{fill:#BEBBA9;}
	.st3{fill:none;stroke:#6B675B;stroke-width:8;stroke-miterlimit:10;}
	.st4{fill:#6B675B;}
	.st5{fill:#FFFFFF;}
	.st6{fill:#71F8FF;}
</style>
<polygon class="st0" points="511.6,442.4 499.3,415.1 598.5,370.6 592.5,406.2 "/>
<path class="st0" d="M711.9,358c-48.4,13-113.5,4.2-121.6-26c-8.1-30.2,43.9-70.4,92.3-83.3c48.4-13,61.4,9.8,69.5,40
	S760.3,345,711.9,358z"/>
<ellipse class="st1" cx="317.6" cy="550.8" rx="103" ry="44.9"/>
<polygon class="st2" points="180.3,584 152.7,528.4 169.7,552.4 164,524.4 188.7,572 188.7,548.4 196.3,561.7 183,507.2 209.7,573 
	209.7,559.4 216.7,572.4 210.7,509.7 233.3,582.4 225.3,520.7 247.7,578 246.3,545.6 257.7,577 259.3,560 267,579.4 259,537 
	284,588.4 275.7,528 294,578.7 294,552.7 302,577.7 300.3,540 321.3,592.7 315.3,548.4 327.7,579 321,545.7 333.3,574.7 
	324.7,540.4 339,569 342,544.7 351.3,571.4 344.3,602 185,605.7 "/>
<path class="st2" d="M211,422.4L197.7,465l17-41L204,467l21.3-39.7l-13.8,41.3l21.5-34l-10,39.7l22.3-31.7L231,474.4l26.4-21.3
	l-15.7,31.3l28.7-31l-18.3,42l24.3-36.5c0,0-12.7,40.5-12,39.5c0.7-1,21.2-27.7,21.2-27.7l-14.6,26l35-36.3l-22.7,40.3l32-32.7
	l-25,39.5l29.3-28.8l-24.3,44l31.3-40l-15.7,29l22-22.7l-19,37l22.7-26.7L324,526l22-23.3l-12.3,22l15-13.3l7.7-27L255.7,427
	L211,422.4z"/>
<line class="st3" x1="135.7" y1="201" x2="231.9" y2="386"/>
<path class="st4" d="M172.7,582c0,0,0,31.5,9,40.5s42,2,78.5,12.5s76.5,25.5,118,12s80.5-38.5,101-89s28.5-62.5,34.5-99.5
	c6-37,44.8-79.4,98.9-104.3L600,299.5c0,0-73.3-25.5-122.8-50s-97.5-32-135-14s-62,35.5-92,81.5c-27.7,42.5-35.5,57-45.5,107
	c0,0,57.5,29,95,56.5s75,73.5,75,73.5s-49.5,17.5-97.5,22C229.4,580.5,172.7,582,172.7,582z"/>
<circle class="st5" cx="293.4" cy="364.3" r="18.8"/>
<circle cx="293.4" cy="364.3" r="9.8"/>
<path class="st0" d="M527.4,271.8c-12.5,26.8-61.2,63.6-93,48.7c-31.9-14.9-34.9-75.8-22.4-102.6s48.5-36.4,80.3-21.5
	S539.9,245,527.4,271.8z"/>
<ellipse transform="matrix(0.4231 -0.9061 0.9061 0.4231 -68.7171 580.2301)" class="st4" cx="421.3" cy="344.1" rx="46" ry="46"/>
<circle class="st6" cx="135.8" cy="201.4" r="19.8"/>
</svg>
