<?xml version="1.0" encoding="utf-8"?>
<!-- Generator: Adobe Illustrator 21.0.0, SVG Export Plug-In . SVG Version: 6.00 Build 0)  -->
<svg version="1.1" id="Ebene_1" xmlns="http://www.w3.org/2000/svg" xmlns:xlink="http://www.w3.org/1999/xlink" x="0px" y="0px"
	 viewBox="0 0 800 800" style="enable-background:new 0 0 800 800;" xml:space="preserve">
<style type="text/css">
	.st0{fill:#4B97CC;}
	.st1{fill:#BBCFE0;}
	.st2{fill:#FFFFFF;}
</style>
<polygon class="st0" points="800,323.1 566.4,315.7 569.1,720.7 580.4,707.4 588.7,701.2 590.8,690.8 598.7,684.2 604.9,664.7 
	622.3,640.2 636.8,631.1 634.8,622 650.1,612 655.5,612 658,604.6 681.6,577.6 697.8,569.7 709.8,558.9 723.1,555.2 728.9,545.7 
	748.8,534.5 754.6,520.4 766.6,518.3 773.3,501.3 779.5,501.3 800,476.8 "/>
<polygon class="st1" points="800,164.8 461.6,133.3 312.2,286.2 365.1,431.1 374.8,439.8 438.5,543.4 438.5,553.7 447.5,567 
	459.6,592.9 479.5,627.8 491.2,649.3 501.1,672.6 512.2,686.4 519.9,679.8 524.3,690.8 533.7,693 536.5,701.3 569.1,720.7 
	574.6,694.1 605.6,634.4 600.6,606.2 602.3,590.2 612.2,576.4 601.7,575.8 646.5,460.7 643.8,534.3 674.2,487.9 694.6,406.1 
	750.5,364 766.5,350.2 783.6,342.5 800,334.8 "/>
<polygon class="st2" points="574.6,694.1 569.1,720.7 536.5,701.3 533.7,693 560.1,697.5 "/>
<path class="st2" d="M521.3,604.6l-11.1,6.6l5.5,13.3h5.5v12.2c0,0,14.9-14.4,11.1-2.8c-3.9,11.6-3.9,11.6-3.9,11.6l15.5,3.9
	l39.3-22.4l-28.8,4.7l35.9-27.1L539,619l33.7-20.5l0.6-12.2h-7.2l-4.9,8.3L521.3,604.6z"/>
<path class="st2" d="M489.6,391.5l20.6-29.2l-10.3-41.2l-15.5-21.5l8.6-19.7l17.2-11.2l4.3-28.3l26.6,52.4l-12,6.9l-3.4,30.9
	l11.2,75.6l22.3,45.5h-9.4L538.5,437l-16.7-1.7v11.2l-15.9,5.2l0.9,13.7l-16.3,10.3l-6,24c0,0-30.1,31.8-21.5,12s8.6-19.7,8.6-19.7
	l-10.1-1.7v-7.7l15.3-6l0.9-10.3l-16.1-3.4v-12l22.1-0.9L489.6,391.5z"/>
<polygon class="st2" points="613,600.1 613,590.2 630.4,575.2 646,575.2 632.7,584.5 657.6,581.6 "/>
<path class="st2" d="M717.1,515.1l8.1-12.7l-4-8.1c0,0-2.3-1.2,13.3-11.6c15.6-10.4,15.6-10.4,15.6-10.4l-13.3,21.4l-3.2,9.8
	l10.7-1.7l18.5-9.3l8.1-4v8.1l-8.7,5.2l-12.7,13.3H717.1z"/>
<path class="st2" d="M590.4,229.5l12.3,74.2l10.3,18.2l7.4-16.2l3.9-26l24.6,56.5v-36.8l3.9-16.5c0,0,4.4,82.3,11.3,46.9
	c6.9-35.4,6.9-35.4,6.9-35.4l9.8,25l-2.5-38.8l8.8,23.1l-11.3-62.4l-13.8-17.2l-2.9-29l-29.5-13.8l-8.3,25l1,15.7L590.4,229.5z"/>
</svg>
