<?xml version="1.0" encoding="utf-8"?>
<!-- Generator: Adobe Illustrator 21.0.0, SVG Export Plug-In . SVG Version: 6.00 Build 0)  -->
<svg version="1.1" id="Ebene_1" xmlns="http://www.w3.org/2000/svg" xmlns:xlink="http://www.w3.org/1999/xlink" x="0px" y="0px"
	 viewBox="0 0 1500 1500" style="enable-background:new 0 0 1500 1500;" xml:space="preserve">
<style type="text/css">
	.st0{fill:none;stroke:#CC8166;stroke-width:10;stroke-linecap:round;stroke-linejoin:round;stroke-miterlimit:10;}
	.st1{fill:#CC8166;}
	.st2{fill:none;stroke:#BF7862;stroke-width:10;stroke-linecap:round;stroke-linejoin:round;stroke-miterlimit:10;}
	.st3{fill:#BF7862;}
	.st4{fill:#DB9679;}
	.st5{fill:#D9E6DF;}
	.st6{fill:#023C40;}
	.st7{fill:#CC8A72;}
	.st8{fill:none;stroke:#DB9679;stroke-width:7;stroke-linecap:round;stroke-linejoin:round;stroke-miterlimit:10;}
</style>
<path id="Tentakel2" class="st0" d="M50.2,671.5c0,0,51-30.5,73.6-9s19.4,53.5-22.1,93s-68.8,75.5-44.1,99s136.6-10,185-56
	s71.5-114,115.6-114S429.1,699,467,735s106.7,18.5,106.7,18.5"/>
<path id="flosse2" class="st1" d="M82.6,671.1c-4.8,3.1-13.2,7.3-23.9,5.9c-10.7-1.4-36.7,3.3-31.9,1.7s24-14.6,29.1-18.9
	s12.9-9.7,22.1-11.7s24.1,5.3,24.1,5.3S87.5,668,82.6,671.1z"/>
<path id="tentakel1" class="st2" d="M92.1,661.5c0,0,48.5-30.5,70-9s18.5,53.5-21,93s-65.5,75.5-42,99s130-10,176-56s68-114,110-114
	S452.6,689,488.6,725s101.5,18.5,101.5,18.5"/>
<path id="flosse1" class="st3" d="M124.6,661.1c-4.8,3.1-13.2,7.3-23.9,5.9c-10.7-1.4-36.7,3.3-31.9,1.7s24-14.6,29.1-18.9
	s12.9-9.7,22.1-11.7s24.1,5.3,24.1,5.3S129.5,658,124.6,661.1z"/>
<ellipse id="Stirn" class="st4" cx="620.1" cy="739" rx="13.5" ry="44.5"/>
<ellipse id="Kopf" class="st4" cx="610.1" cy="739" rx="54" ry="37"/>
<circle id="Auge" class="st5" cx="599.1" cy="739" r="14.5"/>
<circle id="Pupille" class="st6" cx="599.1" cy="739" r="9.5"/>
<path id="Kappe" class="st7" d="M620.6,694.7c0,0,69.9-3.1,128.8,15.2c58.9,18.4,135.2,45,135.2,45s-84.7,31.8-146.7,32.6
	s-119.3-3.6-119.3-3.6s12.3-15.6,15.3-37.7C636.9,724.1,627.8,699.4,620.6,694.7z"/>
<path id="eins" class="st8" d="M188.6,680c0,0,46,48,63,65s37,24,60,24s80-36,141-36s121,0,121,0"/>
<path id="drei" class="st8" d="M193.6,737c0,0,59-31,118-31s38,0,103,0c54,0,138,22,159,22"/>
<path id="vier" class="st8" d="M204.6,650c0,0,15.5,25.5,41,51s123,65,154,65s33-25,174-25"/>
<path id="fuenf" class="st8" d="M193.6,714c0,0,27-19,48-19s88.5,36.5,104,52s65,32,99,32s56-21,86-21c30,0,43,0,43,0"/>
<path id="sechs" class="st8" d="M190.6,657.9c0,0,14.3,22.4,36.7,22.4s41.8-7.1,59.1-7.1c43.8,0,77.5,38.7,94.8,56.1
	c29.1,29.1,102,43.8,125.4,43.8s45.9-13.3,67.3-13.3"/>
<path id="sieben" class="st8" d="M226.6,652c0,0,13,38,47,38s62-38,126-38s63,65,174,65"/>
<path id="acht" class="st8" d="M251.6,669c0,0,42-29,81-29s70,41,93,64s148,19,148,19"/>
<path id="zwei" class="st8" d="M233,775.5c0,0,44.4,14,85.7,14s74-19.8,98.4-30.9s156.5-9.2,156.5-9.2"/>
<path id="spitze" class="st4" d="M862.2,747.4l-28.5-9.7c0,0,13.9-3.6,21.8-6c7.9-2.4,20.8-3.9,34.4,7.5
	c13.5,11.4,50.1,22.8,43,22.1c-7-0.7-38.6,9.7-47.4,14.1c-8.8,4.4-21.6,9-34.8,5.6s-29.4-29.7-29.4-29.7L862.2,747.4z"/>
</svg>
