<?xml version="1.0" encoding="utf-8"?>
<!-- Generator: Adobe Illustrator 21.0.0, SVG Export Plug-In . SVG Version: 6.00 Build 0)  -->
<svg version="1.1" id="Ebene_1" xmlns="http://www.w3.org/2000/svg" xmlns:xlink="http://www.w3.org/1999/xlink" x="0px" y="0px"
	 viewBox="0 0 1500 1500" style="enable-background:new 0 0 1500 1500;" xml:space="preserve">
<style type="text/css">
	.st0{fill:none;stroke:#CC8166;stroke-width:10;stroke-linecap:round;stroke-linejoin:round;stroke-miterlimit:10;}
	.st1{fill:#CC8166;}
	.st2{fill:none;stroke:#BF7862;stroke-width:10;stroke-linecap:round;stroke-linejoin:round;stroke-miterlimit:10;}
	.st3{fill:#BF7862;}
	.st4{fill:#DB9679;}
	.st5{fill:#CC8A72;}
	.st6{fill:none;stroke:#DB9679;stroke-width:7;stroke-linecap:round;stroke-linejoin:round;stroke-miterlimit:10;}
	.st7{fill:#D9E6DF;}
	.st8{fill:#023C40;}
</style>
<path id="tentakel1" class="st0" d="M67.3,712.5c0,0,86.7-8.1,150.7-8.1s170.1,17.8,190,37.7s119.6,28.4,119.6,28.4s110,9,154.2,9
	s133.7-42.9,154.8-64S964.1,726,991.4,726s156.6,18.5,156.6,18.5"/>
<path id="flosse1_1_" class="st1" d="M82.6,722.1c-4.8,3.1-13.2,7.3-23.9,5.9c-10.7-1.4-36.7,3.3-31.9,1.7s24-14.6,29.1-18.9
	s12.9-9.7,22.1-11.7s24.1,5.3,24.1,5.3S87.5,719,82.6,722.1z"/>
<path id="tentakel2" class="st2" d="M117.3,697.5c0,0,86.7-8.1,150.7-8.1s170.1,17.8,190,37.7s119.6,28.4,119.6,28.4s110,9,154.2,9
	s133.7-42.9,154.8-64s127.5,10.5,154.8,10.5s156.6,18.5,156.6,18.5"/>
<path id="flosse2" class="st3" d="M124.6,712.1c-4.8,3.1-13.2,7.3-23.9,5.9c-10.7-1.4-36.7,3.3-31.9,1.7s24-14.6,29.1-18.9
	s12.9-9.7,22.1-11.7s24.1,5.3,24.1,5.3S129.5,709,124.6,712.1z"/>
<ellipse id="Stirn" class="st4" cx="1166" cy="739" rx="13.5" ry="44.5"/>
<ellipse id="Kopf" class="st4" cx="1156" cy="739" rx="54" ry="37"/>
<path id="Kappe" class="st5" d="M1166.5,694.7c0,0,69.9-3.1,128.8,15.2c58.9,18.4,135.2,45,135.2,45s-84.7,31.8-146.7,32.6
	s-119.3-3.6-119.3-3.6s12.3-15.6,15.3-37.7S1173.7,699.4,1166.5,694.7z"/>
<path id="eins" class="st6" d="M357.8,680c0,0,91,48,124.6,65s73.2,24,118.7,24s158.2-36,278.9-36s239.3,0,239.3,0"/>
<path id="drei" class="st6" d="M367.7,737c0,0,116.7-31,233.4-31s75.2,0,203.7,0c106.8,0,272.9,22,314.5,22"/>
<path id="vier" class="st6" d="M389.4,650c0,0,30.7,25.5,81.1,51s243.3,65,304.6,65s65.3-25,344.1-25"/>
<path id="fuenf" class="st6" d="M367.7,714c0,0,53.4-19,94.9-19s175,36.5,205.7,52s128.6,32,195.8,32s110.8-21,170.1-21
	c59.3,0,85,0,85,0"/>
<path id="sechs" class="st6" d="M361.7,657.9c0,0,28.3,22.4,72.6,22.4s82.7-7.1,116.9-7.1c86.6,0,153.3,38.7,187.5,56.1
	c57.6,29.1,201.7,43.8,248,43.8s90.8-13.3,133.1-13.3"/>
<path id="sieben" class="st6" d="M432.9,652c0,0,25.7,38,93,38s122.6-38,249.2-38s124.6,65,344.1,65"/>
<path id="acht" class="st6" d="M482.4,669c0,0,83.1-29,160.2-29s138.4,41,183.9,64s292.7,19,292.7,19"/>
<path id="spitze" class="st4" d="M1408.1,747.4l-28.5-9.7c0,0,13.9-3.6,21.8-6s20.8-3.9,34.4,7.5c13.5,11.4,50.1,22.8,43,22.1
	c-7-0.7-38.6,9.7-47.4,14.1c-8.8,4.4-21.6,9-34.8,5.6c-13.2-3.4-29.4-29.7-29.4-29.7L1408.1,747.4z"/>
<circle id="Auge" class="st7" cx="1145" cy="739" r="23.5"/>
<circle id="Pupille" class="st8" cx="1145" cy="739" r="15.4"/>
<path id="zwei" class="st6" d="M452.3,775.5c0,0,87.1,14,167.9,14s145.1-19.8,192.8-30.9c47.7-11.1,306.8-9.2,306.8-9.2"/>
</svg>
