<?xml version="1.0" encoding="utf-8"?>
<!-- Generator: Adobe Illustrator 21.0.0, SVG Export Plug-In . SVG Version: 6.00 Build 0)  -->
<svg version="1.1" id="Ebene_1" xmlns="http://www.w3.org/2000/svg" xmlns:xlink="http://www.w3.org/1999/xlink" x="0px" y="0px"
	 viewBox="0 0 800 800" style="enable-background:new 0 0 800 800;" xml:space="preserve">
<style type="text/css">
	.st0{fill:#232524;}
	.st1{fill:#565752;}
	.st2{fill:#FFFFFF;}
</style>
<path class="st0" d="M762.2,453.1c8-3.4,4.2-42.5,4.2-42.5c-17.5,0-44.7,24.8-44.7,24.8s-5.4,19.4,10.4,26.7
	C747.9,469.5,762.2,453.1,762.2,453.1z"/>
<path class="st1" d="M119.5,506.5C114,507.9,79,492,76,469.5s-4-32-7-41s-5-25.5,20.5-38s123.5-37.3,291.5-33c0,0,57.5,0.5,77.5-4.5
	s37.5-3,54,9.5c16.5,12.5,46.5,15,46.5,15s7,2.1,20.1,9.5c13.9,7.8,23.4,3,60.4,16c0,0,17,14.5,54.5,20s70,22.5,70,29
	c0,6.5-22.5,12-65,14.5s-48,3-64,6.5s-29-1-36.5,3s-16.5,12-30,12s-32,0.5-40.5,7.5s-26,7-34.5,8s-27,14.5-53,15s-298.8,4.5-304,4.5
	S119,512,151,510.5s95.2-9,95.2-9l1-6c0,0-105.3,3.3-109.8,3.3S125,505.2,119.5,506.5z"/>
<path class="st0" d="M332.4,496.4c0.5,0.8,19.8,32.2,29.7,34.7c9.9,2.5,18.3-4.6,15.7-14.7s-17.2-24.6-17.2-24.6L332.4,496.4z"/>
<circle class="st2" cx="286" cy="476.6" r="7.8"/>
<circle cx="286" cy="476.6" r="4.6"/>
<path class="st0" d="M720.8,453.1c0,0,0.4,5.7,8.1,29.5c7.7,23.7,32.8,36.2,31.1,29.7c-1.6-6.5,6.3-39.8,7.9-48
	c1.6-8.2-3.9-11.3-3.9-11.3H720.8z"/>
</svg>
