<?xml version="1.0" encoding="utf-8"?>
<!-- Generator: Adobe Illustrator 21.0.0, SVG Export Plug-In . SVG Version: 6.00 Build 0)  -->
<svg version="1.1" id="Ebene_1" xmlns="http://www.w3.org/2000/svg" xmlns:xlink="http://www.w3.org/1999/xlink" x="0px" y="0px"
	 viewBox="0 0 800 800" style="enable-background:new 0 0 800 800;" xml:space="preserve">
<style type="text/css">
	.st0{fill:#A9CEED;}
	.st1{fill:none;stroke:#A9CEED;stroke-width:11;stroke-linecap:round;stroke-miterlimit:10;}
</style>
<g>
	<path class="st0" d="M516.8,218.5c0,34.9-52.3,40.9-116.8,40.9s-116.8-6-116.8-40.9S329.3,116.6,400,116.6S516.8,183.6,516.8,218.5
		z"/>
	<path class="st1" d="M366.9,249.3c0,0-27,47.2-27,86.4s-23.6,91.6-23.6,122.5S334,535.9,334,580.9s-30.8,85.2-30.8,133.1"/>
	<path class="st1" d="M434.2,249.3c0,0,21,36.4,21,75.7c0,49.2,47.8,92.2,47.8,137c0,54.7-15,84-15,129s20,75.2,20,123.1"/>
	<path class="st1" d="M380.5,249.3c0,0-17,57.2-17,96.4S385,417.3,385,448.1s-27.5,77.8-27.5,122.8S326.7,686.1,326.7,734"/>
	<path class="st1" d="M404.1,249.3c0,0-15.1,57.2-15.1,96.4s20,91.6,20,122.5s-32,77.8-32,122.8s28.3,78.2,28.3,163.1"/>
	<path class="st1" d="M406.4,249.3c0,0,13.9,57.2,13.9,96.4s14,81.6,14,112.5S409,535.9,409,580.9s19.3,115.2,19.3,163.1"/>
	<path class="st1" d="M425.3,249.3c0,0,11.9,57.2,11.9,96.4s23,71.6,23,102.5S450,525.9,450,570.9s38,115.2,38,163.1"/>
	<ellipse class="st0" cx="400" cy="257.2" rx="55.6" ry="9.9"/>
</g>
</svg>
