<?xml version="1.0" encoding="utf-8"?>
<!-- Generator: Adobe Illustrator 21.0.0, SVG Export Plug-In . SVG Version: 6.00 Build 0)  -->
<svg version="1.1" id="Ebene_1" xmlns="http://www.w3.org/2000/svg" xmlns:xlink="http://www.w3.org/1999/xlink" x="0px" y="0px"
	 viewBox="0 0 800 800" style="enable-background:new 0 0 800 800;" xml:space="preserve">
<style type="text/css">
	.st0{fill:#696352;}
	.st1{fill:#523422;}
	.st2{fill:#454A4E;}
	.st3{fill:#919CA3;}
	.st4{fill:#424359;}
	.st5{fill:#D6D3B2;}
	.st6{fill:none;stroke:#000000;stroke-miterlimit:10;}
</style>
<g>
	<path class="st0" d="M387.2,317.7c0,1.6-4.3,2.9-5.9,2.9s-2.9-1.3-2.9-2.9c0-1.6,1.3-2.9,2.9-2.9S387.2,316.1,387.2,317.7z"/>
	<path class="st0" d="M386.4,316.5c1.6,0,2.9,4.3,2.9,5.9c0,1.6-1.3,2.9-2.9,2.9c-1.6,0-2.9-1.3-2.9-2.9
		C383.5,320.9,384.8,316.5,386.4,316.5z"/>
	<path class="st0" d="M386.4,317.6c-1.6,0-2.9-4.3-2.9-5.9s1.3-2.9,2.9-2.9c1.6,0,2.9,1.3,2.9,2.9S388,317.6,386.4,317.6z"/>
</g>
<path class="st1" d="M380,239.8c0,0,0,5.5-5.9,8.2c-5.9,2.8-10.5,5.3-10.2,16.2c0.4,10.9-2.5,34.8,4.6,40.7s22.1,14.9,22.1,14.9
	l1.6-5.2l-13.9-8.7c0,0-2-19.6-1.7-25.5c0.4-6.9,7.5-6.9,13.3-0.9c5.8,6-6-37.4-6-37.4L380,239.8z"/>
<path class="st1" d="M800,505.2L381.4,247.6l8.1,47.5c0,0,3.4,17.4-1.2,20.4c-4.5,3-7.9,7.7-2.7,11c5.2,3.3,39.6,11.9,59.3,29.6
	c19.7,17.7,57.2,53.2,78.5,68.5c17,12.2,202.6,102.3,276.6,138V505.2z"/>
<path class="st2" d="M800,430.1L373.8,223.8c0,0,5.8,42.6,37.4,70.4s101.6,73.9,118.9,83c17.3,9.1,269.8,144.4,269.8,144.4l0.1,0
	V430.1z"/>
<path class="st3" d="M800,359l-53-27.4l1.5-5l-4.7-1.5l-0.5-7.6l-118.8-53.2l-18.7,3.7l-13.4,0.9l-25.5-8.5l-9.2,0.6l-62.3-26
	l2.1-9.9l-135.1-57.4c0,0-6,5.6-10.1,16.4c-4.2,11.1-2.4,20.2,1.7,25.8s19.8,14,19.8,14L800,430.1V359z"/>
<rect x="694" y="170.3" transform="matrix(0.9102 0.4142 -0.4142 0.9102 161.1573 -274.4278)" class="st4" width="38.9" height="128.2"/>
<g>
	
		<rect x="618.2" y="281.7" transform="matrix(0.9069 0.4213 -0.4213 0.9069 178.6703 -237.0558)" class="st5" width="15.2" height="8.3"/>
	
		<rect x="650.5" y="296.7" transform="matrix(0.9069 0.4213 -0.4213 0.9069 187.9787 -249.242)" class="st5" width="15.2" height="8.3"/>
	
		<rect x="682" y="311.3" transform="matrix(0.9069 0.4213 -0.4213 0.9069 197.0762 -261.1522)" class="st5" width="15.2" height="8.3"/>
	
		<rect x="713.7" y="326" transform="matrix(0.9069 0.4213 -0.4213 0.9069 206.2444 -273.1548)" class="st5" width="15.2" height="8.3"/>
</g>
<g>
	
		<rect x="369.4" y="192.2" transform="matrix(0.9164 0.4003 -0.4003 0.9164 109.914 -134.2612)" class="st5" width="13.8" height="7.5"/>
	
		<rect x="398.9" y="205.1" transform="matrix(0.9164 0.4003 -0.4003 0.9164 117.5393 -144.9925)" class="st5" width="13.8" height="7.5"/>
	
		<rect x="427.8" y="217.7" transform="matrix(0.9164 0.4003 -0.4003 0.9164 124.9919 -155.4807)" class="st5" width="13.8" height="7.5"/>
	
		<rect x="456.8" y="230.4" transform="matrix(0.9164 0.4003 -0.4003 0.9164 132.5024 -166.0505)" class="st5" width="13.8" height="7.5"/>
</g>
<g>
	
		<rect x="417.1" y="257.9" transform="matrix(0.8968 0.4424 -0.4424 0.8968 158.6508 -159.6002)" class="st5" width="8.8" height="4.8"/>
	
		<rect x="435.4" y="267" transform="matrix(0.8968 0.4424 -0.4424 0.8968 164.5525 -166.7882)" class="st5" width="8.8" height="4.8"/>
	
		<rect x="453.4" y="275.8" transform="matrix(0.8968 0.4424 -0.4424 0.8968 170.3205 -173.8133)" class="st5" width="8.8" height="4.8"/>
	
		<rect x="471.5" y="284.7" transform="matrix(0.8968 0.4424 -0.4424 0.8968 176.1334 -180.893)" class="st5" width="8.8" height="4.8"/>
</g>
<g>
	
		<rect x="510.6" y="304" transform="matrix(0.8968 0.4424 -0.4424 0.8968 188.7148 -196.2164)" class="st5" width="8.8" height="4.8"/>
	
		<rect x="529" y="313.1" transform="matrix(0.8968 0.4424 -0.4424 0.8968 194.6165 -203.4044)" class="st5" width="8.8" height="4.8"/>
	
		<rect x="546.9" y="321.9" transform="matrix(0.8968 0.4424 -0.4424 0.8968 200.3845 -210.4295)" class="st5" width="8.8" height="4.8"/>
	
		<rect x="565" y="330.9" transform="matrix(0.8968 0.4424 -0.4424 0.8968 206.1974 -217.5092)" class="st5" width="8.8" height="4.8"/>
</g>
<g>
	
		<rect x="543.4" y="351.6" transform="matrix(0.8968 0.4424 -0.4424 0.8968 213.1385 -205.8123)" class="st5" width="8.8" height="4.8"/>
	
		<rect x="561.7" y="360.7" transform="matrix(0.8968 0.4424 -0.4424 0.8968 219.0402 -213.0002)" class="st5" width="8.8" height="4.8"/>
	
		<rect x="579.7" y="369.5" transform="matrix(0.8968 0.4424 -0.4424 0.8968 224.8083 -220.0253)" class="st5" width="8.8" height="4.8"/>
	
		<rect x="597.8" y="378.4" transform="matrix(0.8968 0.4424 -0.4424 0.8968 230.6211 -227.105)" class="st5" width="8.8" height="4.8"/>
</g>
<g>
	
		<rect x="451.2" y="306.1" transform="matrix(0.8968 0.4424 -0.4424 0.8968 183.5142 -169.7316)" class="st5" width="8.8" height="4.8"/>
	
		<rect x="469.6" y="315.2" transform="matrix(0.8968 0.4424 -0.4424 0.8968 189.4159 -176.9195)" class="st5" width="8.8" height="4.8"/>
	
		<rect x="487.5" y="324" transform="matrix(0.8968 0.4424 -0.4424 0.8968 195.184 -183.9446)" class="st5" width="8.8" height="4.8"/>
	
		<rect x="505.6" y="333" transform="matrix(0.8968 0.4424 -0.4424 0.8968 200.9968 -191.0244)" class="st5" width="8.8" height="4.8"/>
</g>
<g>
	
		<rect x="735.6" y="446.4" transform="matrix(0.8968 0.4424 -0.4424 0.8968 274.943 -281.0865)" class="st5" width="8.8" height="4.8"/>
	
		<rect x="754" y="455.5" transform="matrix(0.8968 0.4424 -0.4424 0.8968 280.8447 -288.2744)" class="st5" width="8.8" height="4.8"/>
	
		<rect x="771.9" y="464.4" transform="matrix(0.8968 0.4424 -0.4424 0.8968 286.6127 -295.2996)" class="st5" width="8.8" height="4.8"/>
	
		<rect x="790" y="473.3" transform="matrix(0.8968 0.4424 -0.4424 0.8968 292.4256 -302.3793)" class="st5" width="8.8" height="4.8"/>
</g>
<g>
	
		<rect x="633.4" y="396" transform="matrix(0.8968 0.4424 -0.4424 0.8968 242.0907 -241.0744)" class="st5" width="8.8" height="4.8"/>
	
		<rect x="651.8" y="405.1" transform="matrix(0.8968 0.4424 -0.4424 0.8968 247.9924 -248.2623)" class="st5" width="8.8" height="4.8"/>
	
		<rect x="669.7" y="413.9" transform="matrix(0.8968 0.4424 -0.4424 0.8968 253.7605 -255.2874)" class="st5" width="8.8" height="4.8"/>
	
		<rect x="687.8" y="422.9" transform="matrix(0.8968 0.4424 -0.4424 0.8968 259.5733 -262.3671)" class="st5" width="8.8" height="4.8"/>
</g>
<g>
	
		<rect x="600.6" y="348.4" transform="matrix(0.8968 0.4424 -0.4424 0.8968 217.6468 -231.454)" class="st5" width="8.8" height="4.8"/>
	
		<rect x="619" y="357.5" transform="matrix(0.8968 0.4424 -0.4424 0.8968 223.5485 -238.642)" class="st5" width="8.8" height="4.8"/>
	
		<rect x="636.9" y="366.3" transform="matrix(0.8968 0.4424 -0.4424 0.8968 229.3166 -245.6671)" class="st5" width="8.8" height="4.8"/>
	
		<rect x="655" y="375.3" transform="matrix(0.8968 0.4424 -0.4424 0.8968 235.1294 -252.7468)" class="st5" width="8.8" height="4.8"/>
</g>
<g>
	
		<rect x="698.1" y="396.5" transform="matrix(0.8968 0.4424 -0.4424 0.8968 248.9855 -269.6227)" class="st5" width="8.8" height="4.8"/>
	
		<rect x="716.4" y="405.6" transform="matrix(0.8968 0.4424 -0.4424 0.8968 254.8872 -276.8106)" class="st5" width="8.8" height="4.8"/>
	
		<rect x="734.4" y="414.4" transform="matrix(0.8968 0.4424 -0.4424 0.8968 260.6552 -283.8357)" class="st5" width="8.8" height="4.8"/>
	
		<rect x="752.5" y="423.4" transform="matrix(0.8968 0.4424 -0.4424 0.8968 266.468 -290.9154)" class="st5" width="8.8" height="4.8"/>
</g>
<line class="st6" x1="373.8" y1="223.8" x2="800" y2="430.1"/>
</svg>
