<?xml version="1.0" encoding="utf-8"?>
<!-- Generator: Adobe Illustrator 21.0.0, SVG Export Plug-In . SVG Version: 6.00 Build 0)  -->
<svg version="1.1" id="Ebene_1" xmlns="http://www.w3.org/2000/svg" xmlns:xlink="http://www.w3.org/1999/xlink" x="0px" y="0px"
	 viewBox="0 0 800 800" style="enable-background:new 0 0 800 800;" xml:space="preserve">
<style type="text/css">
	.st0{fill:#404355;}
	.st1{fill:#4C4F6C;}
	.st2{fill:#9CCBE5;}
	.st3{fill:#FFFFFF;}
	.st4{fill:#B6BFFF;}
</style>
<path class="st0" d="M657.7,158c0,0-39.7,58.7-6.8,81.7c22.5,15.8,43.9-19.8,43.9-19.8S676.4,170.6,657.7,158z"/>
<path class="st0" d="M401.8,334.1c0,0,117.5-33.7,105.3-17.4c-9.5,12.7,10.4,28.1,10.4,28.1L401.8,334.1z"/>
<path class="st1" d="M64.5,316.7c0,0,102.7,0,118.3,0s29.6-10.4,57.4-10.4s55.7,10.4,87.9,10.4s98.3,17.4,129.6,17.4
	S565.7,346.3,624,268c58.3-78.3,79.2-70.5,79.2-70.5s30,90.9-30.5,151.4S563.1,502.9,443.9,502C324.7,501.2,55,375,55,375
	s-20.9-20.5-20.9-36.3C34.1,322.8,55.8,316.7,64.5,316.7z"/>
<path class="st2" d="M55,375c0,0,130.5,33.9,167,27c0,0,47.1,34.6,102.8,52.9S486.3,498,486.3,498c-64.5,21.7-277.4,14.5-353.6-42.8
	C63.1,402.9,55,375,55,375z"/>
<circle class="st3" cx="229.4" cy="372.9" r="8"/>
<circle cx="229.4" cy="372.9" r="4.1"/>
<path class="st4" d="M49.9,320c0,0-6.4,15-0.6,20.7c5.8,5.7,42.2,16.7,65.4,18.7s84.4,13.5,84.4,13.5s-3.2-5.4-12.8-12.6
	c-9.6-7.3-92.5-20.1-111.8-28.2c-19.3-8.1-10-15.3-10-15.3S57.8,316.6,49.9,320z"/>
<path class="st0" d="M769.2,211.9c0,0-54.3,1.7-72.4,9.8c-18.1,8-27,38.9-18.8,47C686.2,276.8,766.7,234.3,769.2,211.9z"/>
<path class="st0" d="M300.4,445.7c0,0,71.1,55,86.6,62.4c15.5,7.4,46.4,21.3,61.7,17.4c15.4-3.9-0.4-14.8-12.4-22.5
	c-12-7.7-27.1-29.1-40.1-44.6c-13.1-15.5-34.9-25.8-45.3-24.9c-10.4,0.9-17,5.8-28.6,2.5S300.4,445.7,300.4,445.7z"/>
</svg>
