<?xml version="1.0" encoding="utf-8"?>
<!-- Generator: Adobe Illustrator 21.0.0, SVG Export Plug-In . SVG Version: 6.00 Build 0)  -->
<svg version="1.1" id="Ebene_1" xmlns="http://www.w3.org/2000/svg" xmlns:xlink="http://www.w3.org/1999/xlink" x="0px" y="0px"
	 viewBox="0 0 1000 1000" style="enable-background:new 0 0 1000 1000;" xml:space="preserve">
<style type="text/css">
	.st0{fill:#404355;}
	.st1{fill:#4C4F6C;}
	.st2{fill:#AAD0D9;}
	.st3{fill:#FFFFFF;}
</style>
<g id="fest">
	<path id="Finne" class="st0" d="M476.7,478.5c31.2,0,117.5-58.5,127.9-58.5c10.4,0,68.1,78.7,53.2,93.7S445.5,478.5,476.7,478.5z"
		/>
	<path id="koerper_1_" class="st1" d="M57,465c0,0,136.5,0,157.3,0s39.3-13.9,76.3-13.9s74,13.9,116.8,13.9s130.7,23.1,172.3,23.1
		c41.6,0,207,50.1,207,99.7c0,49.5-67.1,124.7-225.5,123.5c-158.4-1.2-517-168.8-517-168.8s-27.8-27.3-27.8-48.3
		C16.6,473.1,45.5,465,57,465z"/>
	<path id="bauch" class="st2" d="M44.3,542.5c0,0,173.5,45.1,222,35.9c0,0,65.9,43.9,106.4,54.4c40.5,10.4,123.1,22,123.1,22
		s21.5,37,14.6,70.5c0,0-261.4,0-362.7-76.1C55,579.5,44.3,542.5,44.3,542.5z"/>
	<path class="st3" d="M164.2,628.3c65.9,38.9,173.5,85.3,311.7,85.3c0,0,0.1,0,0.1,0l0-9.3c0,0-0.1,0-0.1,0
		c-135.9,0-241.8-45.6-306.7-83.8c-46.7-27.5-79.4-55.2-96.3-71c-7-1.7-13-3.2-17.7-4.3C64.7,555,102.5,591.9,164.2,628.3z"/>
	<path class="st3" d="M133.2,563.1c58.3,47.6,169.8,131.3,343.2,131.3c0,0,0.1,0,0.1,0l0-9.3c-0.1,0-0.1,0-0.1,0
		c-158.5,0-261.4-68.8-323.6-118.1C146.2,565.7,139.6,564.4,133.2,563.1z"/>
	<circle id="Auge" class="st3" cx="255.3" cy="553.4" r="6.7"/>
	<circle id="Pupille" cx="255.3" cy="553.4" r="3.4"/>
	<path id="mund" class="st0" d="M40.2,468.2c0,0-9.3,16,18.3,25.2c27.5,9.3,115.4,31,140.2,36.8s37.5,16.4,37.5,16.4
		s-87.2-15.3-120.3-17.6s-77.9-11.8-93.2-25.7C7.3,489.3,23.3,471.5,40.2,468.2z"/>
	<g>
		<path class="st3" d="M483.3,675c0,0,0.1,0,0.1,0l0-9.3c0,0-0.1,0-0.1,0c-112.5,0-198-46.6-251-86.9c-5.4-0.4-11.1-1-17.1-1.7
			C268,620,359.7,675,483.3,675z"/>
	</g>
	<path id="flosse" class="st0" d="M370.5,623.4c0,0,87.9,81,107.6,92.5c19.7,11.6,59,33.5,79.8,30.1c20.8-3.5,1.2-19.7-13.9-31.2
		c-15-11.6-32.6-41.6-48.1-63.6c-15.5-22-43.3-38.2-57.1-38.2s-23.1,5.8-38.2,0S370.5,623.4,370.5,623.4z"/>
</g>
<path id="schwanzflosse" class="st0" d="M875.3,867.5c0,0-22.2-55.3-58.8-54.8c-36.5,0.5-28.2,95.5-28.2,95.5
	C818.4,908.2,875.3,867.5,875.3,867.5z"/>
<path id="Schwanz" class="st1" d="M561.3,711.3c172.3,0,198.2,55.7,260.2,117.7s47.9,62.8,84.5,62.8c36.6,0-68.5-279.5-115.2-326.2
	S594,488.1,579.8,488.1C565.6,488.1,389,711.3,561.3,711.3z"/>
<path id="schwanzflosse2" class="st0" d="M899.8,801.6c16.2,0,97.1,124.9,67.1,124.9s-64.8-41.6-83.3-60.1
	C865.2,847.9,883.7,801.6,899.8,801.6z"/>
</svg>
