<?xml version="1.0" encoding="utf-8"?>
<!-- Generator: Adobe Illustrator 21.0.0, SVG Export Plug-In . SVG Version: 6.00 Build 0)  -->
<svg version="1.1" id="Ebene_1" xmlns="http://www.w3.org/2000/svg" xmlns:xlink="http://www.w3.org/1999/xlink" x="0px" y="0px"
	 viewBox="0 0 800 800" style="enable-background:new 0 0 800 800;" xml:space="preserve">
<style type="text/css">
	.st0{fill:#404355;}
	.st1{fill:#4C4F6C;}
	.st2{fill:#9CCBE5;}
	.st3{fill:#FFFFFF;}
	.st4{fill:#B6BFFF;}
</style>
<path class="st0" d="M748.4,601c0,0,6.3-71.6-21.2-71.9c-27.5-0.3-44.2,41.2-44.2,41.2S725.7,601,748.4,601z"/>
<g>
	<path class="st1" d="M514.5,355.2l0.5,0l0.3,0l0.5,0.1l0.9,0.1l1.6,0.3l2.8,0.5c1.8,0.4,3.5,0.7,5.2,1.1c3.4,0.8,6.7,1.6,9.9,2.5
		c6.5,1.7,12.8,3.6,19,5.6c12.5,4.1,24.7,8.7,36.7,14c12,5.3,23.8,11.3,35.4,18.2c11.5,6.9,22.7,14.7,33.4,23.5
		c10.6,8.9,20.6,18.9,29.2,30.2c8.6,11.3,16,23.7,21.1,36.9c1.3,3.3,2.4,6.6,3.5,9.9c1,3.4,1.9,6.7,2.7,10c1.5,6.7,2.6,13.4,3,20
		c0.3,3.3,0.3,6.6,0.4,9.8c-0.1,3.3,0,6.5-0.3,9.7c-0.3,6.4-1.3,12.6-2.3,18.6c-1.7,10.1-11.3,16.9-21.5,15.2
		c-7.4-1.3-13.1-6.8-14.9-13.7l-0.4-1.6c-1.2-4.7-2.5-9.3-4.2-13.6c-0.4-1.1-0.8-2.2-1.3-3.2l-1.3-3.1c-1-2-1.9-4-3-5.9
		c-2.1-3.8-4.5-7.4-7-10.6c-1.2-1.6-2.6-3.2-4-4.7c-1.4-1.5-2.8-2.9-4.3-4.2c-11.7-10.8-26-17.3-41.8-21.5
		c-15.9-4.1-33.3-5.8-51-5.6c-8.9,0.1-17.8,0.7-26.7,1.7c-4.4,0.5-8.8,1.1-13.1,1.9c-2.1,0.4-4.2,0.8-6.2,1.2c-1,0.2-2,0.4-2.8,0.7
		c-0.5,0.1-0.9,0.2-1.2,0.4c-0.2,0.1-0.4,0.1-0.5,0.2c0,0-0.1,0.1-0.1,0.1l0,0.1c0,0,0,0,0,0l0.3,0c-40-0.4-72.2-33.2-71.7-73.3
		C441.7,386.9,474.5,354.8,514.5,355.2z"/>
</g>
<path class="st0" d="M406.3,357.2c0,0,117.5-33.7,105.3-17.4c-9.5,12.7,10.4,28.1,10.4,28.1L406.3,357.2z"/>
<path class="st1" d="M69.1,339.8c0,0,102.7,0,118.3,0s29.6-10.4,57.4-10.4s55.7,10.4,87.9,10.4s149.8,21,180.3,17.9
	c13.4-1.4,55.3,123.9,23.2,138.2c-40.3,18-88.6,29.2-137.8,29.2c-248.2,0-338.9-127-338.9-127s-20.9-20.5-20.9-36.3
	C38.6,345.9,60.4,339.8,69.1,339.8z"/>
<path class="st2" d="M59.5,398.1c0,0,130.5,33.9,167,27c0,0,49.6,33.1,80,40.9s78.7,17.8,78.7,17.8s16.2,16.2,11,41.4
	c0,0-182.8,10.4-259-46.9C67.6,425.9,59.5,398.1,59.5,398.1z"/>
<path class="st0" d="M304.8,464.9c0,0,66.1,60.9,80.9,69.6c14.8,8.7,44.4,25.2,60,22.6c15.7-2.6,0.9-14.8-10.4-23.5
	c-11.3-8.7-24.5-31.3-36.2-47.9s-32.6-28.7-43-28.7s-17.4,4.4-28.7,0C316.2,452.8,304.8,464.9,304.8,464.9z"/>
<circle class="st3" cx="233.9" cy="395.9" r="8"/>
<circle cx="233.9" cy="395.9" r="4.1"/>
<path class="st4" d="M69.1,339.8c0,0-9.4,7.2,10,15.3c19.3,8.1,102.3,21,111.8,28.2c9.6,7.3,12.8,12.6,12.8,12.6
	s-61.2-11.5-84.4-13.5s-59.6-13-65.4-18.7c-5.8-5.7-5.6-13.1,0.6-20.7"/>
<path class="st0" d="M620.8,607.7c0,0,49.7-21.7,63.6-35.9c13.8-14.2,10.6-46.1,0-50.7S614.8,585.9,620.8,607.7z"/>
</svg>
