<?xml version="1.0" encoding="utf-8"?>
<!-- Generator: Adobe Illustrator 21.0.0, SVG Export Plug-In . SVG Version: 6.00 Build 0)  -->
<svg version="1.1" id="Ebene_1" xmlns="http://www.w3.org/2000/svg" xmlns:xlink="http://www.w3.org/1999/xlink" x="0px" y="0px"
	 viewBox="0 0 800 800" style="enable-background:new 0 0 800 800;" xml:space="preserve">
<style type="text/css">
	.st0{fill:#404355;}
	.st1{fill:#4C4F6C;}
	.st2{fill:#9CCBE5;}
	.st3{fill:#FFFFFF;}
	.st4{fill:#B6BFFF;}
</style>
<path class="st0" d="M401.8,334.1c0,0,117.5-33.7,105.3-17.4c-9.5,12.7,10.4,28.1,10.4,28.1L401.8,334.1z"/>
<path class="st0" d="M617.3,187c0,0,9.9,71.1,36.8,65.3s33.8-50.1,33.8-50.1S639.3,181.9,617.3,187z"/>
<path class="st1" d="M64.5,316.7c0,0,102.7,0,118.3,0s29.6-10.4,57.4-10.4s55.7,10.4,87.9,10.4s98.3,17.4,129.6,17.4
	S565.7,346.3,624,268c58.3-78.3,79.2-70.5,79.2-70.5s30,90.9-30.5,151.4S563.1,502.9,443.9,502C324.7,501.2,55,375,55,375
	s-20.9-20.5-20.9-36.3C34.1,322.8,55.8,316.7,64.5,316.7z"/>
<path class="st2" d="M55,375c0,0,130.5,33.9,167,27c0,0,49.6,33.1,80,40.9s92.6,16.5,92.6,16.5s16.2,27.8,10.9,53.1
	c0,0-196.6,0-272.9-57.3C63.1,402.9,55,375,55,375z"/>
<path class="st0" d="M309.5,425.1c0,0,56.3,70.1,69.7,80.9c13.3,10.8,40.1,31.5,56,31.3c15.9-0.3,3.1-14.5-6.8-24.8
	c-9.9-10.3-19.5-34.6-28.6-52.7c-9.1-18.1-27.9-33.2-38.3-34.8c-10.3-1.6-17.9,1.7-28.4-4.3C322.5,414.7,309.5,425.1,309.5,425.1z"
	/>
<circle class="st3" cx="229.4" cy="372.9" r="8"/>
<circle cx="229.4" cy="372.9" r="4.1"/>
<path class="st4" d="M49.9,320c0,0-6.4,15-0.6,20.7c5.8,5.7,42.2,16.7,65.4,18.7s84.4,13.5,84.4,13.5s-3.2-5.4-12.8-12.6
	c-9.6-7.3-92.5-20.1-111.8-28.2c-19.3-8.1-10-15.3-10-15.3S57.8,316.6,49.9,320z"/>
<path class="st0" d="M769,192.4c0,0-54.1,4.8-71.7,13.9c-17.6,9.1-24.7,40.4-16.1,48.1C689.8,262.1,767.8,215,769,192.4z"/>
</svg>
