<?xml version="1.0" encoding="utf-8"?>
<!-- Generator: Adobe Illustrator 21.0.0, SVG Export Plug-In . SVG Version: 6.00 Build 0)  -->
<svg version="1.1" id="Ebene_1" xmlns="http://www.w3.org/2000/svg" xmlns:xlink="http://www.w3.org/1999/xlink" x="0px" y="0px"
	 viewBox="0 0 800 91.8" style="enable-background:new 0 0 800 91.8;" xml:space="preserve">
<style type="text/css">
	.st0{fill:#FFFFFF;}
	.st1{fill:#B3DDDD;}
	.st2{fill:#78D2D6;}
</style>
<rect y="0" class="st0" width="800" height="72"/>
<path class="st1" d="M728.7,41.9c-47.5-1.6-78.9-13-140-14c-70.6-1.2-88.5,18-156,18s-95-12-151-11s-75.4,11-127.9,14
	s-74.6-11-121.1-11c-11,0-21.9,0.9-32.7,2.8v19.6c26.8-6.4,60.8-8.5,116.7-1.4c47.1,6,100.1,15,164,6c62.5-8.8,114-14,180-3
	c61.5,10.3,97,0,145-8s61.1-7,126.1,2c13.6,1.9,34,6,68.2,5.5V27.8C777.6,37.9,753.2,42.7,728.7,41.9z"/>
<path class="st2" d="M731.8,55.9c-65-9-78.1-10-126.1-2s-83.5,18.3-145,8c-66-11-117.5-5.8-180,3c-63.9,9-116.9,0-164-6
	c-55.9-7.1-89.9-5-116.7,1.4V84c1.2,0.3,106.3,13,168.7,3.9c69.1-10,112.1-9,192-1c84.7,8.5,134.1,5,182.1-3s77.7-6.8,146,0
	c31.4,3.1,81.9,4,111.2-3V61.4C765.8,61.9,745.4,57.7,731.8,55.9z"/>
</svg>
