<svg id="Ebene_1" data-name="Ebene 1" xmlns="http://www.w3.org/2000/svg" viewBox="0 0 800 91.8"><defs><style>.cls-1{fill:#fff;}.cls-2{fill:#b3dddd;}.cls-3{fill:#78d2d6;}</style></defs><title>wellen</title><rect class="cls-1" width="800" height="72"/><path class="cls-2" d="M728.67,41.89c-47.53-1.61-78.88-13-140-14-70.63-1.16-88.5,18-156,18s-95-12-151-11-75.39,11-127.88,14-74.62-11-121.12-11A192.06,192.06,0,0,0,0,40.7V60.26c26.78-6.37,60.8-8.49,116.67-1.37,47.12,6,100.12,15,164,6,62.45-8.8,114-14,180-3,61.54,10.26,97,0,145-8s61.12-7,126.12,2c13.61,1.88,34,6,68.22,5.51V27.82A160.42,160.42,0,0,1,728.67,41.89Z"/><path class="cls-3" d="M731.78,55.89c-65-9-78.12-10-126.12-2s-83.46,18.26-145,8c-66-11-117.55-5.8-180,3-63.88,9-116.88,0-164-6C60.8,51.78,26.78,53.89,0,60.26V84c1.2.3,106.25,13,168.67,3.92,69.12-10,112.12-9,192-1,84.67,8.48,134.12,5,182.12-3s77.68-6.83,146,0c31.38,3.14,81.86,4,111.22-3V61.4C765.78,61.89,745.4,57.77,731.78,55.89Z"/></svg>