<?xml version="1.0" encoding="utf-8"?>
<!-- Generator: Adobe Illustrator 21.0.0, SVG Export Plug-In . SVG Version: 6.00 Build 0)  -->
<svg version="1.1" id="Layer_3" xmlns="http://www.w3.org/2000/svg" xmlns:xlink="http://www.w3.org/1999/xlink" x="0px" y="0px"
	 viewBox="0 0 1200 1200" style="enable-background:new 0 0 1200 1200;" xml:space="preserve">
<style type="text/css">
	.st0{fill:#F2F2F2;}
	.st1{fill:#FDDCBE;}
	.st2{fill:#7E9689;}
	.st3{fill:#333333;}
	.st4{fill:#ECEDED;}
	.st5{fill:#E3E4E5;}
	.st6{fill:#E0E0E0;}
	.st7{fill:#BDBDBD;}
	.st8{fill:#5C5C5C;}
</style>
<path class="st0" d="M434.4,170.1c0-85.3-94.4-154.5-210.9-154.5S12.6,84.8,12.6,170.1S107,324.6,223.5,324.6
	c38.7,0,75-7.6,106.1-21c19.8,11.2,39.9,27.4,48.9,49.5c14,34,13.3-30.6,3.3-81C414.6,244.9,434.4,209.2,434.4,170.1z"/>
<g>
	<g>
		<path class="st1" d="M275.1,348.1c-12.1,0.6-8.3,36.9-6,53.4c-0.9-3.9-2.3-8.2-4.2-7.9c-12.8,2.1-9.3,9.3-8.8,13.1
			c-0.6-3.1-2.5-9.2-8.1-8c-5.1,1.1-6.8,6.8-7.3,10.3c-0.5-2.4-2.2-6.1-6.8-5.1c-19.1,4,6.7,45.6,6.7,45.6l47.1-1.1
			C287.6,448.3,290.8,347.3,275.1,348.1z"/>
		<g>
			<ellipse class="st2" cx="606.6" cy="1071.6" rx="252.8" ry="49.1"/>
			<g>
				<path class="st3" d="M527.8,878.1l0.2,152.6c0,0-59.6-64.6-78.7-6.5c-20.1,61.4,108.4,35.7,108.4,35.7l20-177.7L527.8,878.1z"/>
				<path class="st3" d="M716.6,902.6l-7.2,155.6c0,0-53.9-68-80.2-6.5c-25.5,59.3,108.4,35.7,108.4,35.7l29-180.7L716.6,902.6z"/>
				<path class="st1" d="M468.2,634.3c0,0-75.4-484.6,274.5-343.5c0,0,139.7,0.5,82.9,356.5L468.2,634.3z"/>
				<polygon class="st0" points="443.4,591.7 458,912.8 831.2,927.3 858.6,595.3 				"/>
				<path class="st3" d="M370.4,149.7c0,0,46.4,266.8,338.8,197l43.1,82.8c0,0,36.5-38.2,48.2,1.8c11.7,39.9-38.3,27.2-38.3,27.2
					c0,0,24.1,90.9,74.5,116.9c0,0,128.4-422.4-51.8-348.6c0,0-43.2-65-128.1-68.1C571.9,155.5,525.9,287.2,370.4,149.7z"/>
				
					<ellipse transform="matrix(3.632500e-02 -0.9993 0.9993 3.632500e-02 69.7364 946.9139)" class="st3" cx="525.8" cy="437.3" rx="19.9" ry="11.6"/>
				
					<ellipse transform="matrix(3.628379e-02 -0.9993 0.9993 3.628379e-02 205.1711 1093.5623)" class="st3" cx="669.6" cy="440.4" rx="19.9" ry="11.6"/>
				<path class="st0" d="M446.6,604.8c0,0-117.7,244-151.8-166.8l-64.1,5.7c0,0,38.6,448.1,224.4,236.2L446.6,604.8z"/>
				<polygon class="st4" points="480.2,592.3 601.5,758.1 730.9,594.5 				"/>
				<polygon class="st5" points="480.2,592.3 477.6,662.5 517.6,670.9 511.6,724.8 601.5,758.1 				"/>
				<polygon class="st5" points="601.5,758.1 689.1,716.3 686.2,677.1 728.4,662.1 730.9,594.5 				"/>
				<polygon class="st3" points="574.2,627 587.6,607.4 621.6,606.4 634,630.3 620.2,646.3 630.7,721.2 601.5,758.1 569.1,713.9 
					590,646.8 				"/>
				<path class="st3" d="M650.4,503.6c-0.9,17.6-13.9,46.1-62.8,46c-50.2,0-50.2-49.3-50.2-49.3S603.2,486.7,650.4,503.6z"/>
				<g>
					<path class="st5" d="M843,777.5c0.3,0,0.4-0.2,0.4-0.3C842.5,777.4,843.7,777.1,843,777.5z"/>
					<path class="st5" d="M827.5,780.7c-0.2,0-0.5-0.2-0.7,0.1c-0.2-0.1,0.1-0.4-0.2-0.3c-0.2,0.3,0.3,0.5,0.8,0.5c0,0,0,0,0.1,0.1
						C827.4,781,827.4,780.9,827.5,780.7z"/>
					<path class="st5" d="M827.8,780.5c-0.2,0.1-0.2,0.1-0.3,0.2C827.6,780.7,827.7,780.7,827.8,780.5z"/>
					<path class="st5" d="M827.4,781.1C827.5,781.1,827.5,781.1,827.4,781.1C827.5,781.1,827.5,781.1,827.4,781.1z"/>
					<path class="st5" d="M763.3,825.4c0-0.1-0.1-0.2-0.1-0.3C763.3,825.2,763.3,825.3,763.3,825.4z"/>
					<path class="st5" d="M765.7,834.1C765.7,834,765.7,834,765.7,834.1C765.6,834,765.6,834,765.7,834.1z"/>
					<path class="st5" d="M782.8,798.9C782.8,798.9,782.8,798.9,782.8,798.9c-0.1,0-0.2,0-0.3,0.1L782.8,798.9z"/>
					<path class="st5" d="M762.7,824.2C762.7,824.2,762.8,824.2,762.7,824.2C762.8,824.2,762.8,824.2,762.7,824.2
						C762.8,824.2,762.8,824.2,762.7,824.2z"/>
					<path class="st5" d="M841.7,777.5c-0.3,0.4,0.3,0.3,0.5,0.5C842.1,777.7,841.8,777.6,841.7,777.5z"/>
					<path class="st5" d="M828.1,780.9c0-0.1,0-0.2,0.2-0.3c-0.2-0.1-0.3,0.1-0.4,0.2C827.9,780.9,828.1,781,828.1,780.9z"/>
					<path class="st5" d="M824.6,781.8l1.2-0.7C825.3,781.2,824.6,781.6,824.6,781.8z"/>
					<path class="st5" d="M821.1,781.9c0.1-0.1,0.2-0.2,0.1-0.3C820.8,781.7,820.8,781.9,821.1,781.9z"/>
					<path class="st5" d="M821,782.4c0-0.3-0.5,0.1-0.6-0.1C820.5,782.4,820.7,782.5,821,782.4z"/>
					<path class="st5" d="M813.6,783.9c0.1-0.3-0.5,0.3-0.7,0.2C813.1,784.2,813.5,783.9,813.6,783.9z"/>
					<path class="st5" d="M810.4,785.1l-0.2-0.2c-0.2,0.1-0.3,0.3-0.1,0.3L810.4,785.1z"/>
					<polygon class="st5" points="757.2,809.7 757.4,810 757.4,809.7 					"/>
					<path class="st5" d="M766.2,836.3c0-0.1,0.3-0.1,0.1-0.4C766.5,836.4,766.1,836,766.2,836.3z"/>
					<polygon class="st5" points="774.6,848.6 774.8,848.3 774.5,848.5 					"/>
				</g>
			</g>
		</g>
	</g>
	<g>
		<path class="st2" d="M1029.7,799.2c9.2,2.9,14.4,12.9,11.4,22.1l-41.7,130.9c-2.9,9.2-12.9,14.4-22.1,11.4l-188-59.9
			c-9.2-2.9-14.4-12.9-11.4-22.1l41.7-130.9c2.9-9.2,12.9-14.4,22.1-11.4L1029.7,799.2z"/>
		
			<rect x="842.7" y="757.3" transform="matrix(0.3035 -0.9528 0.9528 0.3035 -177.8792 1459.5509)" class="st6" width="133.6" height="188.2"/>
		<path class="st7" d="M822.6,783.7l-13,21.4l-10.8,0c0,0-0.8-8.1-12.6-9.9c-10.3-1.5-14.9,11-14.9,11s-5.3,13.3,7.1,19.2
			c9,4.2,14-0.5,14-0.5l9.4,5.4l-1.9,24.4l15.4,9.5l25.8-81.1L822.6,783.7z M783.6,811.7c-0.6,1.7-2.4,2.7-4.2,2.1
			c-1.7-0.6-2.7-2.4-2.1-4.2c0.6-1.7,2.4-2.7,4.2-2.1C783.2,808.1,784.2,810,783.6,811.7z"/>
		<g>
			<path class="st7" d="M827.8,878.5c-0.1,0.4,0.3-0.1,0,0.3C827.8,878.7,827.7,878.6,827.8,878.5z"/>
			<path class="st7" d="M860.2,781.8c0.4,1.4-0.9,2.7-0.8,4.1c0,0.2-0.4-0.2-0.4,0.2c0.2,1.4-0.8,3.3-1.8,4.6l-0.1-0.1
				c-0.2,0.3,0.1,0.7-0.1,1c-0.1,0-0.1-0.1-0.2-0.1c0.2,0.2-0.1,0.6,0.1,0.8c-0.1,0.1-0.3,0-0.5,0.1l0.2,0.3
				c0.5,0.7-0.4,1.2-0.3,1.9c0-0.1-0.1-0.1-0.2-0.1c0,1.2-0.5,2.5-0.7,3.7c-0.1-0.1-0.2-0.2-0.4-0.1c0.3,0.2,0.2,0.5,0.2,0.9
				c-0.3,0,0.1,0.6-0.2,1l-0.1-0.1c0.2,0.4-0.3,0.3,0,0.7l-0.3,0.1c0.4,0.3-0.3,0.3-0.2,0.6l0.1,0c0,0.2-0.2,0.3-0.2,0.5l-0.1,0
				c0,0.5-0.4,0.7,0,0.8c-0.3,0.1,0-0.5-0.4-0.4c-0.2,1.6-0.8,3.2-1.3,4.7c-0.2,0.1-0.3,0.2-0.4,0.2c0,0.2-0.1,0.6,0,0.8
				c0-0.1-0.2,0-0.2,0.1c-0.2,0.2,0.2,0.4,0,0.7c0-0.2-0.1-0.2-0.3-0.2c0.2,0.3,0,0.7,0,1l-0.1-0.2c0.2,0.4-0.3,0.6-0.2,1l-0.2-0.2
				c-0.4,0.4,0.3,0.3,0.1,0.6c0-0.1-0.1-0.1-0.2-0.1c0.2,0.5-0.1,1.1-0.1,1.5l-0.1,0c-0.1,0.4-0.3,0.8-0.4,1.3
				c-0.1,0.1-0.4-0.2-0.5,0.3c0.4,0.1-0.1,0.8,0.4,0.7c-0.2,0.4-0.5,0.9-0.5,1.2c-0.1-0.2-0.5,0-0.4-0.3l-0.3,0.2
				c-0.1-0.1,0.1-0.2-0.1-0.2c0,0.2,0,0.7-0.1,0.8c0.1,0.4,0.5,0.8,0.4,1.3c-0.1-0.3-0.5,0-0.5-0.2l0.5,0.9c0,0.2-0.3-0.1-0.3,0.2
				c0.1,0,0.1,0.1,0.2,0.2c-0.1,0-0.1,0.7-0.5,0.6c-0.2,0,0-0.3-0.2-0.1c-0.1,0.3,0,0.3-0.1,0.6l-0.1,0c-0.1,0.2,0,0.6,0.2,0.5
				c0.1-0.1-0.2,0-0.1-0.2c0.2,0.2,0.1,0.6,0,0.9l-0.2-0.2c0.2,0.5,0.1,0.9,0.1,1.4c0.2,0.1-0.3-0.3-0.1-0.3c-0.4,0.5,0,1.3-0.5,1.6
				c0-0.1,0.3,0,0.2,0c-0.1,0.3-0.4,0.2-0.3,0.4c-0.2,0,0,0.2,0,0.4c0.1,0.1-0.1,0-0.1-0.1c0,0.3-0.1,1.4-0.5,1.9
				c0.1,0,0.2,0.5,0.2,0.6l-0.2-0.1c-0.2,0.1-0.1,0.5-0.3,0.4c0.2,0.4,0.1-1.2,0.2-0.7c-0.2,0,0.2,0.7-0.1,0.5
				c-0.1,0.3,0.1,0.6-0.2,0.8c0.1-0.1-0.2-0.3-0.3-0.1c-0.1,0.4,0.1,0.1,0,0.5l0,0.2c0.2,0.1-0.1,0.3,0.2,0.3
				c-0.2,0-0.1,0.6-0.4,0.4l-0.3-0.1c0,0.2,0.2,0.4,0.3,0.5l-0.2,0c0.4,0.2-0.2,0.4,0.1,0.7c-0.3,0.3-0.3,0.9-0.6,0.9
				c0,0.3,0.1,0.6-0.1,0.9l-0.1-0.2c-0.2,0.1-0.1,0.2-0.1,0.4c-0.1-0.1-0.4,0.3-0.6,0.5c0,0.3,0.3,0.3,0.5,0.4c-0.5,0.1,0,0.8-0.5,1
				c0-0.1-0.1-0.5-0.3-0.3c-0.5,0.1,0.2,0.6-0.2,0.9l0.4,0c-0.3,0.1,0,0.6-0.3,0.5c0.1,0.2-0.3,0.4,0.1,0.5
				c-0.5,0.5-0.3,1.6-1.1,1.8c0,0.1-0.1,0.3,0.1,0.3c0.2-0.1-0.1-0.3,0.1-0.3l0.1,0.2c-0.1,0.2-0.2,0.3-0.5,0
				c-0.4,0.4,0.5,0.7,0.1,1.2c-0.1-0.1-0.2-0.1-0.2,0.1l0.2,0.4c-0.2,0.3-0.4,0.1-0.7,0c0,0.2-0.1,0.4,0,0.6l-0.4,0.1
				c0.3-0.1,0.1,0.2,0.1,0.3l0-0.1c-0.1,0-0.1,0.2-0.1,0.4c0.2,0,0.3-0.2,0.4-0.3l0.1,0.5c-0.2-0.1-0.3,0.3-0.4,0.4
				c-0.1,0.2,0.2,0.3,0.1,0.3c-0.1,0-0.1,0.3-0.2,0.1c0-0.1,0.2-0.1,0.1-0.2c-0.1,0.1-0.3,0-0.3,0.3c0.1,0.2,0.5,0.1,0.2,0.4
				l-0.2-0.3l-0.2,0.3l0.2,0.1l-0.1,0c0.2,0.2-0.1,0.5,0.1,0.7c0,0.2-0.3,0.3-0.3,0.4l0,0c-0.2,0.1-0.2,0.4-0.1,0.6l0,0
				c-0.1,0.1-0.1,0.4,0,0.5c-0.3,0.2-0.9-0.2-0.7,0.2c-0.1,0.3,0.3,0.6,0.4,0.5c-0.3,0.4-0.1,1.1-0.6,1.4c0.1,0.1,0.1,0.1,0.1,0.2
				c-0.3,0.7-0.2,1.6-0.9,2c0-0.2-0.2-0.1-0.3-0.1c0.1,0.2-0.3,0.1,0,0.3c0.2,0,0.3,0.1,0.4-0.1c0,0.5-0.2,1.1-0.5,1.3
				c0.1-0.1,0.2,0,0.2,0.1c-0.3-0.1-0.5,0.2-0.4,0.4l0.2,0.1l-0.2,0.1c0,0.1,0.4,0.2,0.1,0.4l-0.2,0c0.1,0.3,0.2,0.7,0,0.9l-0.4,0.1
				c0,0.1,0.1,0.4,0.3,0.2c-0.3,0.4-0.4,0.7-0.7,0.7c0.3,1,0,2.1-0.3,3l-0.1-0.1c-0.2,0.2,0.2,0.2,0.1,0.3c-0.1-0.1-0.4,0.1-0.5-0.2
				c-0.3,0.3,0.1,0.5,0.1,0.8c0.2,0.1-0.1-0.2,0.2-0.1c0.1,0.1-0.3,0.4,0,0.6c-0.1,0-0.3-0.1-0.4-0.2l0.1,0.3
				c-0.4,0.1-0.4-0.8-0.9-0.7l0,0.2c-0.4,0.1-0.2-0.6-0.4-0.2c0.1,0.3,0.4,0.6,0.6,0.4c-0.1,0.5,0.6,0.4,0.4,0.9
				c-0.2,0.1,0.1-0.4-0.2-0.4c-0.3,0.1,0,0.5-0.2,0.7c0.2-0.2,0.4,0.1,0.4,0.3c-0.2,0.2-0.2-0.3-0.4,0.1c0.2,0.1,0.2,0.5,0.4,0.2
				c0.3,0.2-0.2,0.3,0,0.6c-0.3,0-0.5-0.6-0.8-0.2c0.3,0,0.2,0.6,0.6,0.5c-0.1,0.1-0.3,0.1-0.5-0.1c-0.2,0.2,0.3,0.7-0.2,0.6
				l0.2,0.2l-0.4,0.2c-0.1,0.2,0.2,0.7-0.2,0.6c0,0.1-0.1,0.5,0.2,0.4c0.3-0.2-0.1-0.4,0.3-0.4c-0.4,0.1-0.1,0.4,0,0.6l-0.2,0
				c0,0.1-0.1,0.3,0.1,0.4c-0.1-0.1-0.2-0.1-0.2,0l0.2,0.2c0,0.4-0.4-0.1-0.5,0.3l-0.1-0.3c0,0.1-0.2,0.1-0.2,0.3l0.6,0.5
				c0,0.2-0.3,0-0.1,0.3l-0.2-0.3c-0.1-0.1-0.4,0.1-0.5,0.3c0,0.2,0.2,0.6,0.4,0.3c0,0.1-0.2,0.3-0.4,0.1c0,0.3,0.2,0,0.3,0.3
				c-0.2,0.1-0.5,0.3-0.8,0.5l-0.3-0.4l-0.1,0.2c-0.2-0.3-0.3,0-0.5-0.2c-0.1,0.1,0,0.3,0,0.4c0.6-0.2,0.5,0.6,1,0.7
				c0,0.5-1.2,0-0.7,0.7c0.1,0,0.4,0.3,0.4,0c-0.2,0.3,0.4,0.4,0.1,0.7c-0.1-0.3-0.5,0.1-0.7-0.3c0.1,0.1,0.2-0.2,0.2-0.3
				c-0.2,0.1-0.4-0.2-0.5,0.1c0,0.2-0.1,0.5,0.1,0.5c0.3,0.1,0.1-0.3,0.3-0.1c0,0.4-0.4,0.4-0.1,0.7c0-0.3,0.3-0.2,0.5-0.2l0,0.3
				l-0.1-0.1c-0.3,0.4,0.3,0.2,0.1,0.7l-0.4,0.1c-0.2-0.2,0.3-0.6-0.2-0.7c-0.1,0.3,0.1,0.5-0.1,0.7l0-0.2c0,0.1-0.7,0-0.5,0.5
				c0.1,0.3,0.1,0.1,0.3,0.2c-0.1,0.5,0,0.7,0,1c-0.3-0.2-0.2,0.5-0.4,0.1c0.3-0.1,0.5-0.8,0.2-1c-0.5,0,0.2-0.3-0.2-0.6
				c-0.1,0.4-0.5,0.2-0.8,0.2l0,0.3c0.2,0.1,0.3,0,0.5,0.1c-0.2,0.4-0.2,0.8,0,1.1c-0.2,0.1-0.4,0-0.4-0.2c-0.1,0.5-0.3,1-0.5,1.5
				c0.5-0.2-0.1,0.6,0.3,0.5c0.2-0.2,0.5-0.3,0.7-0.1c-0.1,0.1-0.2-0.1-0.3,0c0.2,0.3-0.5,0.2-0.2,0.5c0-0.5-0.5-0.2-0.7-0.4
				c0.1,0.4-0.2-0.1-0.3,0.2l0,1.2c-0.4,0.4-0.4,1.1-0.5,1.6c-0.2,0.2-0.5-0.1-0.7,0.1c-0.1,0.3,0.4-0.1,0.2,0.3l-0.1-0.1
				c0,0.2-0.5,0.7,0,0.9l-0.3-0.3c-0.1,0.1,0,0.2,0,0.2c-0.1,0-0.3,0-0.3-0.1c-0.3,0.2-0.1,0.5-0.2,0.8l0.3-0.1
				c0,0.5-0.3,0.7-0.4,1.2l-0.2-0.1l0,0.3c-0.2-0.1-0.4,0.1-0.3,0.3l-0.3-0.9c0.2-0.1,0.2,0.3,0.5,0.3c0.2,0,0.3-0.5,0.1-0.6l0,0.3
				c-0.3-0.1-0.2-0.3-0.4-0.5c0,0.1-0.1,0.2-0.1,0.2c-0.1-0.2-0.1-0.4,0-0.7c0.1,0.2,0.2,0,0.3,0.1c-0.3-0.1-0.3-0.4-0.1-0.7
				c0.4-0.1,0-0.7,0.2-1.1c0.2,0.3,0.4,0.5,0.4,0.8c0.2-0.2,0.1-0.3,0.3-0.5c-0.2-0.2-0.5-0.4-0.5-0.7l0.2,0.1
				c0-0.3-0.3-0.4-0.1-0.8c0.3-0.6,0.5-1.2,0.7-1.7l0.2,0c-0.3-0.4,0.1-0.9,0.1-1.4c0.4-0.5,0.2-1.4,0.7-1.6
				c0.2-1.1,0.4-2.1,0.8-3.2l0.2,0.3c-0.2-0.3,0.2-0.1,0.2-0.3c-0.3,0.1-0.2-0.4-0.4-0.6c0.4-0.4,0.4-1.1,0.3-1.6l0.2,0
				c-0.2-0.6,0.3-1,0.5-1.5c0.1,0,0.3-0.1,0.4-0.2c-0.2-0.4-0.2-0.6-0.2-1.1c0.1-0.3,0.4-0.8,0.6-1.1c-0.1-1.4,0.6-2.5,0.8-3.8
				l0.3,0c-0.1-1.4,0.9-2.7,0.9-3.9l0.4,0.2c0.2-0.3,0.1-0.8-0.2-0.8c0.2-0.3,0.1-0.9,0.5-1c0.2-0.3-0.1-0.5,0-0.8
				c0.4-0.6,0.4-0.9,0.6-1.5l-0.1,0.1c0.1,0.1,0.2,0.2,0.3,0c0-0.3,0.4-0.8-0.2-0.8c0.5-0.6,0.3-1.6,0.9-2.2c-0.2,0-0.1-0.2-0.2-0.3
				c0.2-0.6,0.7-1.1,0.6-1.7c0.1-0.1,0.2,0.2,0.3,0c0-0.2-0.2-0.1-0.2-0.3c0.1-1,0.9-1.8,1.1-2.7c0.3-1.6,0.9-3.2,1.4-4.7l0.1,0
				c-0.2-0.6,0.8-1,0.3-1.6c0.1-0.1,0.2-0.4,0.4-0.3c-0.1-0.5,0.6-1,0.5-1.7l0,0.2c0.4-0.5,0.3-1.1,0.7-1.7l0.1,0.2
				c0.3-0.2-0.2-0.7,0.3-0.7c0-0.1-0.2-0.2-0.2-0.1c0.6-1.3,0.8-2.8,1.2-4.2c0.6-0.9,0.8,0.2,0.7-0.7c0.1,0-0.2-0.1-0.1-0.1
				c0-0.3,0.7-0.3,0.5-0.6c-0.3,0-0.1-0.2-0.3-0.3c0.4-0.5,0.7-0.6,0.6-1.1l0.1,0.1c-0.2-0.7,0.2-1.3-0.1-1.9
				c0.9-3.1,1.7-6.2,2.6-9.2c1.1-3,1.8-5.9,3.1-8.9c0.6-0.6,0.6-0.6,0.7-1.5l0.1,0.1c-0.3-0.2,0.2-0.6-0.1-0.7
				c0.4-1.1,0.7-2.2,1.1-3.3c0,0.2,0.2,0.4,0.3,0.1l-0.1-0.3l0.1,0c0-0.2-0.1-0.4-0.3-0.3c0.7-3,2.3-5.6,3.1-8.5
				c0.4-0.6,0.6-1.6,0.7-2.4c1.2-2,2.2-3.9,2.6-6.2C859.6,780.2,860.3,780.8,860.2,781.8z"/>
			<path class="st7" d="M827.9,878.1c0.2,0,0.4-0.2,0.5,0C828.3,878.1,828.1,878.1,827.9,878.1z"/>
			<path class="st7" d="M831.9,871.9c0,0,0.1-0.1,0.1-0.1c0,0.1,0.1,0.2,0,0.3L831.9,871.9z"/>
			<path class="st7" d="M832.6,870.2c0.1,0.1,0.1,0.5,0.1,0.7L832.6,870.2z"/>
			<path class="st7" d="M833.7,868.8c0.2-0.1,0.2,0,0.2,0.1L833.7,868.8z"/>
			<path class="st7" d="M833.4,868.6l0.3-0.2C833.5,868.3,833.6,868.7,833.4,868.6z"/>
			<path class="st7" d="M835,865.2c0-0.1,0-0.3,0.1-0.3C835,864.9,835.2,865.4,835,865.2z"/>
			<path class="st7" d="M835.3,863.5l0-0.1c0.1-0.1,0.2,0.1,0.2,0.1L835.3,863.5z"/>
			<polygon class="st7" points="844.5,833.9 844.5,834.1 844.4,834 			"/>
			<path class="st7" d="M848.8,821c0-0.2,0.2-0.1,0.2-0.1C849,821,848.8,820.7,848.8,821z"/>
			<polygon class="st7" points="850.4,813.8 850.4,813.8 850.1,813.7 			"/>
		</g>
		<g>
			<path class="st7" d="M844.3,881.9c0,0.4,0.3-0.1,0,0.3C844.2,882.1,844.2,882,844.3,881.9z"/>
			<path class="st7" d="M874,789.3c0.4,1.4-0.8,2.6-0.7,3.9c0,0.2-0.4-0.2-0.4,0.2c0.2,1.4-0.7,3.1-1.6,4.4l-0.1-0.1
				c-0.2,0.2,0.1,0.7,0,1c-0.1,0-0.1-0.1-0.2-0.1c0.2,0.1-0.1,0.6,0.1,0.7c-0.1,0.1-0.3,0-0.5,0.1l0.2,0.3c0.5,0.7-0.4,1.1-0.3,1.8
				c-0.1-0.1-0.1-0.1-0.2-0.1c0.1,1.1-0.4,2.4-0.6,3.5c-0.1-0.1-0.2-0.2-0.4-0.1c0.3,0.1,0.2,0.5,0.2,0.8c-0.3,0,0.1,0.6-0.2,0.9
				l0-0.1c0.2,0.4-0.3,0.3,0,0.7l-0.3,0.1c0.4,0.2-0.3,0.3-0.2,0.6l0.1,0c0,0.2-0.2,0.3-0.2,0.5l-0.1,0c0,0.5-0.3,0.7,0,0.8
				c-0.3,0.1,0-0.5-0.4-0.3c-0.1,1.6-0.7,3.1-1.1,4.5c-0.2,0.1-0.3,0.2-0.4,0.2c0,0.2-0.1,0.6,0,0.8c0,0-0.2,0-0.2,0.1
				c-0.2,0.2,0.3,0.4,0,0.7c0-0.1-0.1-0.2-0.3-0.2c0.2,0.3,0,0.7,0,1l-0.2-0.2c0.2,0.4-0.2,0.6-0.2,0.9l-0.1-0.2
				c-0.4,0.4,0.3,0.3,0.1,0.6c0-0.1-0.1-0.1-0.2-0.1c0.2,0.5-0.1,1-0.1,1.4l-0.1,0c-0.1,0.4-0.3,0.8-0.3,1.3
				c-0.1,0.1-0.4-0.2-0.5,0.3c0.4,0.1-0.1,0.8,0.4,0.7c-0.2,0.3-0.5,0.9-0.5,1.2c-0.1-0.2-0.5,0-0.5-0.3l-0.3,0.2
				c-0.1-0.1,0.1-0.2-0.1-0.2c0,0.2,0,0.6-0.1,0.8c0.1,0.4,0.5,0.8,0.4,1.2c-0.1-0.3-0.4,0-0.5-0.2l0.5,0.9c0,0.2-0.3-0.1-0.3,0.2
				l0.2,0.2c-0.1,0-0.1,0.7-0.5,0.6c-0.2,0,0-0.3-0.2-0.1c-0.1,0.3,0,0.3,0,0.6l-0.1,0c-0.1,0.2,0,0.6,0.3,0.5c0-0.1-0.2,0-0.1-0.2
				c0.2,0.2,0.1,0.5,0,0.8l-0.2-0.2c0.2,0.5,0.1,0.9,0.1,1.3c0.2,0.1-0.3-0.3-0.2-0.3c-0.4,0.5,0,1.2-0.5,1.5c0-0.1,0.3,0,0.2,0
				c-0.1,0.2-0.4,0.2-0.3,0.4c-0.2,0,0,0.2,0,0.4c0.1,0.1-0.1,0,0-0.1c0,0.3,0,1.3-0.4,1.8c0.1,0,0.3,0.5,0.2,0.6l-0.2-0.1
				c-0.2,0.1-0.1,0.4-0.3,0.4c0.2,0.4,0.1-1.1,0.2-0.7c-0.2,0,0.2,0.6-0.1,0.5c-0.1,0.3,0.1,0.6-0.2,0.8c0.1-0.1-0.3-0.3-0.3-0.1
				c-0.1,0.4,0.1,0.1,0.1,0.5l0,0.2c0.2,0.1-0.1,0.3,0.2,0.3c-0.2,0-0.1,0.6-0.4,0.4l-0.3-0.1c0,0.2,0.2,0.4,0.3,0.5l-0.2,0
				c0.4,0.2-0.2,0.4,0.1,0.7c-0.3,0.3-0.3,0.8-0.6,0.9c0.1,0.3,0.1,0.6,0,0.8l-0.1-0.2c-0.2,0.1-0.1,0.2-0.1,0.4
				c-0.1-0.1-0.4,0.3-0.6,0.4c0.1,0.3,0.3,0.3,0.5,0.4c-0.5,0.1,0.1,0.8-0.4,1c0-0.1-0.1-0.4-0.3-0.3c-0.5,0.1,0.2,0.6-0.2,0.9
				l0.4,0c-0.3,0.1,0,0.6-0.3,0.5c0.1,0.2-0.3,0.4,0.1,0.5c-0.5,0.5-0.3,1.6-1.1,1.7c0,0.1-0.1,0.3,0.1,0.3c0.2-0.1-0.1-0.3,0.1-0.3
				l0.1,0.2c-0.1,0.2-0.2,0.3-0.5,0c-0.4,0.4,0.5,0.6,0.2,1.1c-0.1-0.1-0.2,0-0.2,0.1l0.2,0.4c-0.2,0.3-0.4,0.1-0.7,0
				c0,0.2-0.1,0.4,0.1,0.6l-0.4,0.1c0.3-0.1,0.1,0.2,0.1,0.3l0-0.1c-0.1,0-0.1,0.2-0.1,0.4c0.2,0,0.3-0.2,0.4-0.3l0.1,0.4
				c-0.2-0.1-0.3,0.2-0.3,0.4c-0.1,0.1,0.2,0.3,0.1,0.3c-0.1,0-0.1,0.3-0.2,0.1c0-0.1,0.2-0.1,0.1-0.2c-0.1,0.1-0.3,0-0.3,0.3
				c0.1,0.2,0.5,0.1,0.2,0.4l-0.2-0.2l-0.2,0.3l0.2,0.1h-0.1c0.2,0.2-0.1,0.5,0.2,0.7c0,0.2-0.3,0.3-0.3,0.4l0,0
				c-0.2,0.1-0.2,0.4-0.1,0.6l0,0c0,0.1-0.1,0.3,0,0.5c-0.3,0.2-0.9-0.2-0.7,0.2c-0.1,0.3,0.3,0.5,0.5,0.5c-0.3,0.4-0.1,1.1-0.6,1.4
				c0.1,0.1,0.1,0.1,0.1,0.2c-0.3,0.6-0.2,1.5-0.8,1.9c0-0.2-0.2-0.1-0.3-0.1c0.1,0.2-0.3,0.1,0.1,0.3c0.2,0,0.3,0.1,0.4-0.1
				c0,0.4-0.2,1.1-0.5,1.2c0.1-0.1,0.2,0,0.2,0.1c-0.3-0.1-0.5,0.2-0.4,0.4l0.2,0.1l-0.3,0.1c0,0.1,0.4,0.2,0.1,0.4l-0.2,0
				c0.1,0.3,0.3,0.7,0,0.9l-0.4,0.1c0,0.1,0.1,0.4,0.3,0.2c-0.3,0.4-0.4,0.6-0.7,0.7c0.4,0.9,0,2-0.3,2.9l-0.1-0.1
				c-0.2,0.2,0.2,0.2,0.1,0.3c-0.1-0.1-0.4,0.1-0.5-0.2c-0.3,0.3,0.1,0.5,0.1,0.7c0.2,0.1-0.1-0.2,0.2-0.1c0.1,0.1-0.3,0.4,0,0.6
				c-0.1,0-0.3-0.1-0.4-0.2l0.1,0.2c-0.4,0.1-0.4-0.8-0.9-0.6l0,0.2c-0.4,0.1-0.2-0.6-0.4-0.2c0.1,0.2,0.4,0.6,0.6,0.4
				c-0.1,0.4,0.6,0.4,0.5,0.9c-0.2,0.1,0.1-0.4-0.2-0.4c-0.3,0.1,0,0.5-0.1,0.6c0.2-0.2,0.4,0.1,0.4,0.3c-0.2,0.2-0.2-0.2-0.4,0.1
				c0.1,0.1,0.2,0.5,0.4,0.2c0.3,0.2-0.2,0.3,0,0.6c-0.3,0-0.5-0.5-0.8-0.2c0.3,0,0.2,0.6,0.7,0.5c-0.1,0.1-0.3,0.1-0.5-0.1
				c-0.2,0.1,0.3,0.6-0.2,0.5l0.2,0.2l-0.4,0.2c-0.1,0.2,0.2,0.7-0.2,0.5c0,0.1-0.1,0.5,0.2,0.4c0.2-0.2-0.1-0.4,0.3-0.4
				c-0.4,0.1-0.1,0.4,0,0.6l-0.2,0c0,0.1-0.1,0.3,0.1,0.4c-0.1-0.1-0.2-0.1-0.2,0l0.2,0.2c0,0.4-0.4,0-0.5,0.3l-0.1-0.3
				c0,0.1-0.2,0.1-0.2,0.3l0.6,0.4c0,0.2-0.3,0-0.1,0.3l-0.2-0.3c-0.1-0.1-0.4,0.1-0.5,0.3c0,0.2,0.2,0.5,0.5,0.3
				c0,0.1-0.2,0.3-0.4,0.1c0,0.3,0.2,0,0.3,0.3c-0.2,0.1-0.5,0.3-0.8,0.4l-0.3-0.4l-0.1,0.2c-0.2-0.3-0.3,0-0.5-0.2
				c-0.1,0.1,0,0.3,0,0.4c0.6-0.2,0.5,0.6,1,0.6c0,0.5-1.2,0-0.6,0.7c0.1,0,0.4,0.3,0.4,0c-0.1,0.3,0.4,0.3,0.1,0.6
				c-0.1-0.3-0.5,0.1-0.7-0.3c0.1,0.1,0.2-0.2,0.2-0.2c-0.2,0.1-0.4-0.2-0.5,0.1c0,0.2-0.1,0.5,0.2,0.5c0.3,0.1,0.1-0.3,0.3-0.1
				c0,0.4-0.4,0.3,0,0.6c0-0.2,0.3-0.2,0.5-0.2l0,0.3l-0.1-0.1c-0.3,0.4,0.3,0.2,0.1,0.6l-0.4,0.1c-0.3-0.2,0.3-0.6-0.2-0.7
				c-0.1,0.3,0.1,0.4-0.1,0.7l0-0.2c0,0.1-0.7,0-0.5,0.5c0.1,0.3,0.1,0.1,0.3,0.2c-0.1,0.5,0,0.7,0,0.9c-0.3-0.2-0.2,0.5-0.4,0.1
				c0.2-0.1,0.4-0.7,0.2-1c-0.5,0,0.2-0.3-0.2-0.6c-0.1,0.4-0.5,0.2-0.8,0.2l0.1,0.3c0.2,0.1,0.3,0,0.5,0.1c-0.2,0.4-0.2,0.8,0,1.1
				c-0.2,0.1-0.4,0-0.4-0.2c-0.1,0.5-0.3,1-0.5,1.4c0.5-0.2-0.1,0.5,0.3,0.4c0.2-0.2,0.5-0.3,0.7-0.1c-0.1,0.1-0.2-0.1-0.3,0
				c0.2,0.3-0.4,0.2-0.2,0.5c0-0.5-0.5-0.2-0.8-0.4c0.1,0.4-0.2-0.1-0.3,0.2l0.1,1.2c-0.4,0.3-0.4,1.1-0.5,1.5
				c-0.2,0.2-0.5-0.1-0.7,0.1c-0.1,0.3,0.4-0.1,0.2,0.3l-0.1-0.1c0,0.1-0.5,0.6,0,0.9l-0.3-0.2c-0.1,0.1,0,0.2,0,0.2
				c-0.1,0-0.3,0-0.3-0.1c-0.3,0.2-0.1,0.5-0.2,0.8l0.3-0.1c0,0.5-0.3,0.7-0.3,1.2l-0.2-0.1l0,0.3c-0.2-0.1-0.4,0.1-0.3,0.2
				l-0.3-0.8c0.2-0.1,0.2,0.3,0.5,0.2c0.2,0,0.3-0.4,0.1-0.6l0,0.3c-0.3,0-0.2-0.3-0.4-0.5c0,0.1-0.1,0.2,0,0.2
				c-0.1-0.2-0.1-0.4,0-0.6c0.1,0.2,0.2,0,0.3,0.1c-0.3-0.1-0.3-0.4-0.1-0.7c0.4-0.1,0-0.7,0.2-1c0.2,0.2,0.4,0.5,0.4,0.8
				c0.2-0.2,0.1-0.3,0.3-0.4c-0.2-0.2-0.5-0.4-0.5-0.7l0.2,0c0-0.3-0.3-0.4-0.2-0.7c0.3-0.6,0.5-1.2,0.7-1.6l0.2,0
				c-0.4-0.4,0.1-0.9,0-1.3c0.4-0.5,0.2-1.3,0.7-1.5c0.2-1.1,0.3-2,0.7-3.1l0.2,0.3c-0.2-0.3,0.2-0.1,0.2-0.3
				c-0.3,0.1-0.2-0.4-0.4-0.5c0.4-0.4,0.3-1.1,0.2-1.6l0.2,0c-0.2-0.5,0.2-0.9,0.5-1.5c0.1,0,0.3-0.1,0.3-0.2
				c-0.2-0.4-0.2-0.5-0.2-1c0.1-0.3,0.3-0.8,0.6-1c-0.1-1.3,0.6-2.4,0.7-3.7l0.3,0c-0.1-1.3,0.8-2.6,0.8-3.7l0.4,0.2
				c0.2-0.3,0.1-0.7-0.2-0.8c0.2-0.3,0.1-0.8,0.4-0.9c0.2-0.3-0.1-0.4,0-0.7c0.4-0.6,0.4-0.8,0.5-1.5l-0.1,0.1
				c0.1,0.1,0.2,0.2,0.3,0c0-0.3,0.4-0.8-0.2-0.7c0.5-0.6,0.2-1.6,0.8-2.1c-0.2,0-0.1-0.2-0.2-0.3c0.2-0.6,0.6-1.1,0.6-1.6
				c0.1-0.1,0.2,0.2,0.3,0c0-0.2-0.2-0.1-0.2-0.3c0-1,0.8-1.8,1-2.6c0.2-1.6,0.8-3.1,1.2-4.5l0.1,0c-0.2-0.6,0.7-1,0.3-1.5
				c0.1-0.1,0.2-0.4,0.3-0.3c-0.1-0.5,0.6-1,0.4-1.6l0,0.2c0.4-0.5,0.2-1.1,0.6-1.6l0.1,0.2c0.3-0.2-0.2-0.7,0.3-0.6
				c0-0.1-0.2-0.2-0.2-0.1c0.6-1.2,0.7-2.7,1-4c0.6-0.9,0.8,0.2,0.7-0.7c0.1,0-0.2-0.1-0.1-0.1c0-0.3,0.7-0.3,0.5-0.6
				c-0.3,0-0.1-0.2-0.3-0.3c0.4-0.5,0.7-0.6,0.6-1.1l0.1,0.1c-0.3-0.7,0.2-1.2-0.2-1.8c0.9-3,1.5-5.9,2.3-8.8c1-2.8,1.7-5.7,2.9-8.5
				c0.6-0.6,0.6-0.6,0.7-1.4l0.1,0.1c-0.3-0.1,0.1-0.5-0.2-0.7c0.4-1.1,0.6-2.1,1-3.2c0,0.2,0.2,0.4,0.3,0.1l-0.1-0.3l0.1,0
				c0-0.2-0.1-0.4-0.3-0.3c0.6-2.9,2.1-5.4,2.9-8.1c0.3-0.6,0.5-1.6,0.7-2.3c1.1-1.9,2.1-3.7,2.4-5.9
				C873.3,787.9,874.1,788.4,874,789.3z"/>
			<path class="st7" d="M844.4,881.5c0.2,0,0.4-0.2,0.5,0C844.8,881.5,844.6,881.6,844.4,881.5z"/>
			<path class="st7" d="M848.2,875.6c0,0,0.1-0.1,0.1-0.1c0,0.1,0.1,0.2,0,0.2L848.2,875.6z"/>
			<path class="st7" d="M848.8,874c0.1,0.1,0.1,0.5,0.1,0.7L848.8,874z"/>
			<path class="st7" d="M849.9,872.6c0.2-0.1,0.2,0,0.2,0.1L849.9,872.6z"/>
			<path class="st7" d="M849.6,872.4l0.2-0.2C849.7,872.2,849.8,872.5,849.6,872.4z"/>
			<path class="st7" d="M851.1,869.2c0-0.1-0.1-0.3,0.1-0.3C851.1,868.9,851.3,869.3,851.1,869.2z"/>
			<path class="st7" d="M851.3,867.6l0-0.1c0.1-0.1,0.2,0.1,0.2,0.1L851.3,867.6z"/>
			<polygon class="st7" points="859.7,839.2 859.8,839.4 859.6,839.3 			"/>
			<path class="st7" d="M863.7,826.8c0-0.2,0.2-0.1,0.2-0.1C863.8,826.9,863.7,826.6,863.7,826.8z"/>
			<polygon class="st7" points="865.1,820 865,820 864.7,819.9 			"/>
		</g>
		<g>
			<path class="st7" d="M859.8,886.9c0,0.4,0.3-0.1,0,0.3C859.8,887,859.7,886.9,859.8,886.9z"/>
			<path class="st7" d="M890.3,794.5c0.4,1.4-0.9,2.6-0.8,3.9c0,0.1-0.4-0.2-0.4,0.2c0.2,1.4-0.8,3.1-1.7,4.4l-0.1-0.1
				c-0.2,0.3,0.1,0.7,0,1c-0.1,0-0.1-0.1-0.2-0.1c0.2,0.2-0.1,0.6,0.1,0.7c-0.1,0.1-0.3,0-0.5,0.1l0.2,0.3c0.5,0.7-0.4,1.1-0.3,1.8
				c-0.1,0-0.1-0.1-0.2-0.1c0.1,1.1-0.4,2.4-0.7,3.5c-0.1-0.1-0.2-0.2-0.4-0.1c0.3,0.1,0.2,0.5,0.2,0.8c-0.3,0,0.1,0.6-0.2,0.9
				l-0.1-0.1c0.2,0.4-0.3,0.3,0,0.7l-0.3,0.1c0.4,0.2-0.3,0.3-0.2,0.6l0.1,0c0,0.2-0.2,0.3-0.2,0.5l-0.1,0c0,0.5-0.4,0.7,0,0.8
				c-0.3,0.1,0-0.5-0.4-0.3c-0.1,1.6-0.7,3-1.2,4.5c-0.2,0.1-0.3,0.2-0.4,0.2c0,0.2-0.1,0.6,0,0.8c0-0.1-0.2,0-0.2,0.1
				c-0.2,0.2,0.3,0.4,0,0.7c0-0.1-0.1-0.2-0.3-0.2c0.2,0.3,0,0.7,0,1l-0.2-0.2c0.2,0.4-0.3,0.6-0.2,0.9l-0.1-0.2
				c-0.4,0.4,0.3,0.3,0.1,0.6c0-0.1-0.1-0.1-0.2-0.1c0.2,0.5-0.1,1-0.1,1.4l-0.1,0c-0.1,0.4-0.3,0.8-0.3,1.3
				c-0.1,0.1-0.4-0.2-0.5,0.2c0.4,0.1-0.1,0.8,0.4,0.7c-0.2,0.3-0.5,0.9-0.5,1.2c-0.1-0.2-0.5,0-0.4-0.3l-0.3,0.2
				c-0.1-0.1,0.1-0.2-0.1-0.2c0,0.2,0,0.6-0.1,0.8c0.1,0.4,0.5,0.8,0.4,1.2c-0.1-0.3-0.5,0-0.5-0.2l0.5,0.9c0,0.2-0.3-0.1-0.3,0.2
				l0.2,0.2c-0.1,0-0.1,0.7-0.5,0.6c-0.2,0,0-0.3-0.2-0.1c-0.1,0.3,0,0.3-0.1,0.6l-0.1,0c-0.1,0.2,0,0.6,0.2,0.5
				c0.1-0.1-0.2,0-0.1-0.2c0.2,0.2,0.1,0.5,0,0.8l-0.2-0.2c0.2,0.5,0.1,0.9,0.1,1.3c0.2,0.1-0.3-0.3-0.2-0.3c-0.4,0.5,0,1.2-0.5,1.5
				c0-0.1,0.3,0,0.2,0c-0.1,0.2-0.4,0.2-0.3,0.4c-0.2,0,0,0.2,0,0.4c0.1,0.1-0.1,0-0.1-0.1c0,0.3,0,1.3-0.4,1.8
				c0.1,0,0.2,0.5,0.2,0.6L878,837c-0.2,0.1-0.1,0.4-0.3,0.4c0.2,0.4,0.1-1.1,0.2-0.7c-0.2,0,0.2,0.6-0.1,0.5
				c-0.1,0.3,0.1,0.6-0.2,0.8c0.1-0.1-0.3-0.3-0.3-0.1c-0.1,0.4,0.1,0.1,0.1,0.5l0,0.2c0.2,0.1-0.1,0.3,0.2,0.3
				c-0.2,0-0.1,0.6-0.4,0.4l-0.3-0.1c0,0.2,0.2,0.4,0.3,0.5l-0.2,0c0.4,0.2-0.2,0.4,0.1,0.7c-0.3,0.3-0.3,0.8-0.6,0.9
				c0.1,0.3,0.1,0.6-0.1,0.8l-0.1-0.2c-0.2,0.1-0.1,0.2-0.1,0.4c-0.1-0.1-0.4,0.3-0.6,0.4c0,0.3,0.3,0.3,0.5,0.4
				c-0.5,0.1,0,0.8-0.4,1c0-0.1-0.1-0.4-0.3-0.3c-0.5,0.1,0.2,0.6-0.2,0.9l0.4,0c-0.3,0.1,0,0.6-0.3,0.5c0.1,0.2-0.3,0.4,0.1,0.5
				c-0.5,0.5-0.3,1.5-1.1,1.7c0,0.1-0.1,0.3,0.1,0.3c0.2-0.1-0.1-0.2,0.1-0.3l0.1,0.2c-0.1,0.2-0.2,0.3-0.5,0
				c-0.4,0.4,0.5,0.6,0.1,1.1c-0.1-0.1-0.2-0.1-0.2,0.1l0.2,0.4c-0.2,0.3-0.4,0.1-0.7,0c0,0.2-0.1,0.4,0.1,0.6l-0.4,0.1
				c0.3-0.1,0.1,0.2,0.1,0.3l0-0.1c-0.1,0-0.1,0.2-0.1,0.4c0.2,0,0.3-0.2,0.4-0.3l0.1,0.4c-0.2-0.1-0.3,0.2-0.3,0.4
				c-0.1,0.2,0.2,0.3,0.1,0.3c-0.1,0-0.1,0.3-0.2,0.1c0-0.1,0.2-0.1,0.1-0.2c-0.1,0.1-0.4,0-0.3,0.3c0.1,0.2,0.5,0.1,0.2,0.4
				l-0.2-0.2l-0.2,0.3l0.2,0.1l-0.1,0c0.2,0.2-0.1,0.5,0.2,0.7c0,0.2-0.3,0.3-0.3,0.4l0,0c-0.2,0.1-0.2,0.4-0.1,0.6l0,0
				c0,0.1-0.1,0.3,0,0.5c-0.3,0.2-0.9-0.2-0.7,0.2c-0.1,0.3,0.3,0.5,0.5,0.5c-0.3,0.4-0.1,1.1-0.6,1.4c0.1,0.1,0.1,0.1,0.1,0.2
				c-0.3,0.6-0.2,1.5-0.8,1.9c0-0.2-0.2-0.1-0.3-0.1c0.1,0.2-0.3,0.1,0.1,0.3c0.2,0.1,0.3,0.1,0.4-0.1c0,0.4-0.2,1.1-0.5,1.2
				c0.1-0.1,0.2,0,0.2,0.1c-0.3-0.1-0.5,0.1-0.4,0.4l0.2,0.1l-0.3,0.1c0,0.1,0.4,0.2,0.1,0.4l-0.2,0c0.1,0.3,0.2,0.7,0,0.9l-0.4,0.1
				c0,0.1,0.1,0.4,0.3,0.2c-0.3,0.4-0.4,0.6-0.7,0.7c0.4,0.9,0,2-0.3,2.9l-0.1-0.1c-0.2,0.2,0.2,0.2,0.1,0.3
				c-0.1-0.1-0.4,0.1-0.5-0.2c-0.3,0.3,0.1,0.5,0.1,0.7c0.2,0.1-0.1-0.2,0.2-0.1c0.1,0.1-0.3,0.4,0,0.6c-0.1,0-0.3-0.1-0.4-0.2
				l0.1,0.2c-0.4,0.1-0.4-0.8-0.9-0.6l0,0.2c-0.4,0.1-0.2-0.6-0.4-0.2c0.1,0.2,0.4,0.6,0.6,0.4c-0.1,0.4,0.6,0.4,0.5,0.9
				c-0.2,0.1,0.1-0.4-0.2-0.4c-0.3,0.1,0,0.5-0.2,0.6c0.2-0.2,0.4,0.1,0.4,0.3c-0.2,0.2-0.2-0.2-0.4,0.1c0.2,0.1,0.2,0.5,0.4,0.2
				c0.3,0.2-0.2,0.3,0,0.6c-0.3,0-0.5-0.5-0.8-0.2c0.3,0,0.2,0.6,0.7,0.5c-0.1,0.1-0.3,0.1-0.5-0.1c-0.2,0.1,0.3,0.6-0.2,0.5
				l0.2,0.2l-0.4,0.2c-0.1,0.2,0.2,0.7-0.2,0.5c0,0.1-0.1,0.5,0.2,0.4c0.2-0.2-0.1-0.4,0.3-0.4c-0.4,0.1-0.1,0.4,0,0.6l-0.2,0
				c0,0.1-0.1,0.3,0.1,0.4c-0.1-0.1-0.2-0.1-0.2,0l0.2,0.2c0,0.4-0.4-0.1-0.5,0.3l-0.1-0.3c0,0.1-0.2,0.1-0.2,0.3l0.6,0.4
				c0,0.2-0.3,0-0.1,0.3l-0.2-0.3c-0.1-0.1-0.4,0.1-0.5,0.3c0,0.2,0.2,0.5,0.5,0.3c0,0.1-0.2,0.3-0.4,0.1c0,0.3,0.2,0,0.3,0.3
				c-0.2,0.1-0.5,0.3-0.8,0.4l-0.3-0.4l-0.1,0.2c-0.2-0.3-0.3,0-0.5-0.2c-0.1,0.1,0,0.3,0,0.4c0.6-0.2,0.5,0.6,1,0.7
				c0,0.5-1.2-0.1-0.6,0.7c0.1,0,0.4,0.3,0.4,0c-0.1,0.3,0.4,0.3,0.1,0.6c-0.1-0.3-0.5,0.1-0.7-0.3c0.1,0.1,0.2-0.2,0.2-0.2
				c-0.2,0.1-0.4-0.2-0.5,0.1c0,0.2-0.1,0.5,0.2,0.5c0.3,0.1,0.1-0.3,0.3-0.1c0,0.4-0.4,0.3,0,0.6c0-0.2,0.3-0.2,0.5-0.2l0,0.3
				l-0.2-0.1c-0.3,0.4,0.3,0.2,0.1,0.6l-0.4,0.1c-0.3-0.2,0.3-0.6-0.2-0.7c-0.1,0.3,0.1,0.4-0.1,0.7l0-0.2c0,0.1-0.7,0-0.5,0.5
				c0.1,0.3,0.1,0.1,0.3,0.2c-0.1,0.5,0,0.7,0,0.9c-0.3-0.2-0.2,0.5-0.4,0.1c0.2-0.1,0.4-0.7,0.2-1c-0.5,0,0.2-0.3-0.2-0.6
				c-0.1,0.4-0.5,0.2-0.8,0.2l0,0.3c0.2,0.1,0.3,0,0.5,0.1c-0.2,0.4-0.2,0.8,0,1.1c-0.2,0.1-0.4,0-0.4-0.2c-0.1,0.5-0.3,1-0.5,1.4
				c0.5-0.2-0.1,0.5,0.3,0.4c0.2-0.2,0.5-0.3,0.7-0.1c-0.1,0.1-0.2-0.1-0.3,0c0.2,0.3-0.4,0.2-0.2,0.5c0-0.5-0.5-0.2-0.7-0.4
				c0.1,0.4-0.2-0.1-0.3,0.2l0,1.2c-0.4,0.3-0.4,1.1-0.5,1.5c-0.2,0.1-0.5-0.1-0.7,0.1c-0.1,0.3,0.4-0.1,0.2,0.3l-0.1-0.1
				c0,0.1-0.5,0.6,0,0.9l-0.3-0.2c-0.1,0.1,0,0.2,0,0.2c-0.1,0-0.3,0-0.3-0.1c-0.3,0.1-0.1,0.5-0.2,0.8l0.3-0.1
				c0,0.5-0.3,0.7-0.3,1.2l-0.2-0.1l0.1,0.3c-0.2-0.1-0.4,0.1-0.3,0.2l-0.3-0.8c0.2-0.1,0.2,0.3,0.5,0.2c0.2,0,0.3-0.4,0.1-0.6
				l0,0.3c-0.3,0-0.2-0.3-0.4-0.5c0,0.1-0.1,0.2-0.1,0.2c-0.1-0.2-0.1-0.4,0-0.6c0.1,0.2,0.2,0,0.3,0.1c-0.3-0.1-0.3-0.4-0.1-0.7
				c0.4-0.1,0-0.7,0.2-1c0.2,0.2,0.4,0.5,0.4,0.8c0.2-0.2,0.1-0.3,0.3-0.4c-0.2-0.2-0.5-0.4-0.5-0.7l0.2,0.1c0-0.3-0.3-0.4-0.1-0.7
				c0.3-0.6,0.5-1.2,0.7-1.6l0.2,0c-0.4-0.4,0.1-0.9,0-1.3c0.4-0.5,0.2-1.3,0.7-1.5c0.2-1.1,0.3-2,0.7-3.1l0.2,0.3
				c-0.2-0.3,0.2-0.1,0.2-0.3c-0.3,0.1-0.2-0.4-0.4-0.5c0.4-0.4,0.3-1.1,0.3-1.6l0.2,0c-0.2-0.5,0.3-0.9,0.5-1.4
				c0.1,0,0.3-0.1,0.4-0.2c-0.2-0.4-0.2-0.5-0.2-1c0.1-0.3,0.3-0.8,0.6-1c-0.1-1.3,0.6-2.4,0.7-3.7l0.3,0c-0.1-1.3,0.8-2.6,0.9-3.7
				l0.4,0.2c0.2-0.3,0.1-0.7-0.2-0.8c0.2-0.3,0.1-0.8,0.5-0.9c0.2-0.3-0.1-0.4,0-0.7c0.4-0.6,0.4-0.8,0.5-1.5l-0.1,0.1
				c0.1,0.1,0.2,0.2,0.3,0c0-0.3,0.4-0.8-0.2-0.7c0.5-0.5,0.3-1.6,0.8-2.1c-0.2,0-0.1-0.2-0.2-0.3c0.2-0.6,0.6-1.1,0.6-1.6
				c0.1-0.1,0.2,0.2,0.3,0c0-0.2-0.2-0.1-0.2-0.3c0.1-1,0.9-1.8,1.1-2.6c0.2-1.6,0.9-3,1.3-4.5l0.1,0c-0.2-0.6,0.7-1,0.3-1.5
				c0.1-0.1,0.2-0.4,0.3-0.3c-0.1-0.5,0.6-1,0.4-1.6l0,0.2c0.4-0.5,0.3-1.1,0.6-1.6l0.1,0.2c0.3-0.2-0.2-0.7,0.3-0.6
				c0-0.1-0.2-0.2-0.2-0.1c0.6-1.2,0.7-2.7,1.1-4c0.6-0.9,0.8,0.2,0.7-0.7c0.1,0-0.2-0.1-0.1-0.1c0-0.3,0.7-0.3,0.5-0.6
				c-0.3,0-0.1-0.2-0.3-0.3c0.4-0.5,0.7-0.5,0.6-1.1l0.1,0.1c-0.3-0.7,0.2-1.2-0.2-1.8c0.9-3,1.5-5.9,2.4-8.8c1-2.8,1.7-5.7,2.9-8.5
				c0.6-0.5,0.6-0.6,0.7-1.4l0.1,0.1c-0.3-0.1,0.1-0.5-0.1-0.7c0.4-1,0.6-2.1,1-3.2c0,0.2,0.2,0.4,0.3,0.1l-0.1-0.3l0.1,0
				c0-0.2-0.1-0.4-0.3-0.3c0.6-2.9,2.2-5.4,3-8.1c0.3-0.6,0.5-1.5,0.7-2.3c1.1-1.9,2.1-3.7,2.5-5.9
				C889.7,793.1,890.4,793.6,890.3,794.5z"/>
			<path class="st7" d="M859.9,886.4c0.2,0,0.4-0.2,0.5,0C860.3,886.4,860.1,886.5,859.9,886.4z"/>
			<path class="st7" d="M863.7,880.6c0,0,0.1-0.1,0.1-0.1c0,0.1,0.1,0.2,0,0.2L863.7,880.6z"/>
			<path class="st7" d="M864.4,879c0.1,0.1,0.1,0.5,0.1,0.7L864.4,879z"/>
			<path class="st7" d="M865.5,877.6c0.2-0.1,0.2,0,0.2,0.1L865.5,877.6z"/>
			<path class="st7" d="M865.2,877.4l0.2-0.2C865.3,877.2,865.4,877.5,865.2,877.4z"/>
			<path class="st7" d="M866.7,874.2c0-0.1-0.1-0.3,0.1-0.3C866.7,873.9,866.9,874.3,866.7,874.2z"/>
			<path class="st7" d="M867,872.6l0-0.1c0.1-0.1,0.2,0.1,0.2,0.1L867,872.6z"/>
			<polygon class="st7" points="875.6,844.3 875.7,844.5 875.5,844.4 			"/>
			<path class="st7" d="M879.7,832c0-0.2,0.2-0.1,0.2-0.1C879.9,832,879.7,831.8,879.7,832z"/>
			<polygon class="st7" points="881.1,825.1 881.1,825.1 880.8,825 			"/>
		</g>
		<g>
			<path class="st7" d="M877.5,892.5c0,0.4,0.3-0.1,0,0.3C877.4,892.7,877.3,892.6,877.5,892.5z"/>
			<path class="st7" d="M906.3,799.6c0.4,1.4-0.8,2.6-0.7,4c0,0.2-0.4-0.2-0.4,0.2c0.2,1.4-0.7,3.1-1.6,4.4l-0.1-0.1
				c-0.2,0.3,0.1,0.7,0,1c-0.1,0-0.1-0.1-0.2-0.1c0.2,0.1,0,0.6,0.1,0.7c-0.1,0.1-0.3,0-0.5,0.1l0.2,0.2c0.5,0.7-0.4,1.1-0.3,1.8
				c-0.1-0.1-0.1-0.1-0.2-0.1c0.1,1.1-0.4,2.4-0.6,3.6c-0.1-0.1-0.2-0.2-0.4-0.1c0.3,0.1,0.2,0.5,0.2,0.8c-0.3,0,0.1,0.6-0.2,0.9
				l-0.1,0c0.2,0.4-0.3,0.3,0,0.7l-0.3,0.1c0.4,0.2-0.3,0.3-0.2,0.6l0.1,0c0,0.2-0.2,0.3-0.2,0.5h-0.1c0,0.5-0.3,0.7,0,0.8
				c-0.3,0.1,0-0.5-0.4-0.3c-0.1,1.6-0.7,3.1-1.1,4.5c-0.2,0.1-0.3,0.2-0.4,0.2c0,0.2-0.1,0.6,0,0.8c0-0.1-0.2,0-0.2,0.1
				c-0.2,0.2,0.3,0.4,0,0.7c0-0.1-0.1-0.2-0.3-0.2c0.2,0.3,0,0.7,0,1l-0.2-0.2c0.2,0.4-0.2,0.6-0.2,0.9l-0.2-0.2
				c-0.4,0.4,0.4,0.3,0.1,0.6c0-0.1-0.1-0.1-0.2-0.1c0.2,0.5-0.1,1-0.1,1.4l-0.1,0c-0.1,0.4-0.3,0.8-0.3,1.3
				c-0.1,0.1-0.4-0.2-0.5,0.3c0.4,0.1-0.1,0.8,0.4,0.7c-0.2,0.3-0.5,0.9-0.4,1.2c-0.1-0.2-0.5,0-0.4-0.3l-0.3,0.2
				c-0.1-0.1,0.1-0.2-0.1-0.2c0,0.2,0,0.6-0.1,0.8c0.1,0.4,0.5,0.7,0.4,1.2c-0.1-0.3-0.5,0-0.5-0.2l0.5,0.9c0,0.2-0.3-0.1-0.3,0.2
				l0.2,0.2c-0.1,0-0.1,0.7-0.5,0.6c-0.2,0,0-0.3-0.2-0.1c-0.1,0.3,0,0.3,0,0.6l-0.1,0c-0.1,0.2,0,0.6,0.3,0.5
				c0.1-0.1-0.2,0-0.1-0.2c0.2,0.2,0.1,0.5,0,0.8l-0.2-0.2c0.2,0.5,0.1,0.9,0.1,1.3c0.2,0.1-0.3-0.3-0.2-0.3c-0.4,0.5,0,1.2-0.5,1.6
				c0-0.1,0.3,0,0.2,0c-0.1,0.3-0.4,0.2-0.3,0.4c-0.2,0,0,0.2,0,0.4c0.1,0.1-0.1,0-0.1-0.1c0.1,0.3,0,1.3-0.4,1.8
				c0.1,0,0.3,0.5,0.2,0.6l-0.2-0.1c-0.2,0.1-0.1,0.4-0.3,0.4c0.2,0.4,0.1-1.1,0.2-0.7c-0.2,0,0.2,0.6-0.1,0.5
				c-0.1,0.3,0.1,0.6-0.2,0.8c0.1-0.1-0.3-0.3-0.3-0.1c-0.1,0.4,0.1,0.1,0.1,0.5l0,0.2c0.2,0.1-0.1,0.3,0.2,0.3
				c-0.2,0,0,0.6-0.4,0.4l-0.3-0.1c0,0.2,0.2,0.4,0.3,0.5l-0.1,0c0.4,0.2-0.2,0.4,0.1,0.7c-0.3,0.3-0.3,0.8-0.6,0.9
				c0.1,0.3,0.1,0.6,0,0.8l-0.1-0.2c-0.2,0.1-0.1,0.2-0.1,0.4c-0.1-0.1-0.4,0.3-0.6,0.4c0.1,0.3,0.3,0.3,0.5,0.4
				c-0.5,0.1,0.1,0.8-0.4,1c0-0.1-0.1-0.4-0.3-0.3c-0.5,0.1,0.2,0.6-0.1,0.9l0.4,0c-0.3,0.1,0,0.6-0.3,0.5c0.1,0.2-0.3,0.4,0.1,0.5
				c-0.5,0.5-0.3,1.6-1,1.7c0,0.1-0.1,0.3,0.1,0.3c0.2-0.1-0.1-0.3,0.1-0.3l0.1,0.2c-0.1,0.2-0.2,0.3-0.5,0
				c-0.4,0.4,0.5,0.6,0.2,1.1c-0.1-0.1-0.2,0-0.2,0.1l0.2,0.4c-0.2,0.3-0.4,0.1-0.7,0c0,0.2-0.1,0.4,0.1,0.6l-0.4,0.1
				c0.3-0.1,0.1,0.2,0.1,0.3l0-0.1c-0.1,0-0.1,0.2-0.1,0.4c0.2,0,0.3-0.2,0.4-0.3l0.1,0.4c-0.2-0.1-0.3,0.3-0.3,0.4
				c-0.1,0.2,0.2,0.3,0.1,0.3c-0.1,0-0.1,0.3-0.2,0.1c0-0.1,0.2-0.1,0.1-0.2c-0.1,0.1-0.3,0-0.3,0.3c0.1,0.2,0.5,0.1,0.2,0.4
				l-0.2-0.2l-0.2,0.3l0.2,0.1H890c0.2,0.2-0.1,0.5,0.2,0.7c0,0.2-0.3,0.3-0.3,0.4l0,0c-0.2,0.1-0.2,0.4-0.1,0.6l0,0
				c0,0.1-0.1,0.3,0,0.5c-0.2,0.2-0.9-0.2-0.7,0.2c-0.1,0.3,0.3,0.5,0.5,0.5c-0.3,0.4-0.1,1.1-0.6,1.4c0.1,0.1,0.1,0.1,0.2,0.2
				c-0.3,0.7-0.2,1.5-0.8,1.9c0-0.2-0.2-0.1-0.3-0.1c0.1,0.2-0.3,0.1,0.1,0.3c0.2,0,0.3,0.1,0.4-0.1c0,0.4-0.2,1.1-0.5,1.2
				c0.1-0.1,0.2,0,0.2,0.1c-0.3-0.1-0.5,0.2-0.4,0.4l0.2,0.1l-0.2,0.1c0,0.1,0.4,0.2,0.1,0.4h-0.2c0.1,0.3,0.3,0.7,0,0.9l-0.4,0.1
				c0,0.1,0.1,0.4,0.3,0.2c-0.3,0.4-0.4,0.6-0.7,0.7c0.4,0.9,0.1,2-0.2,2.9l-0.1-0.1c-0.2,0.2,0.2,0.2,0.1,0.3
				c-0.1-0.1-0.4,0.1-0.5-0.2c-0.3,0.3,0.1,0.5,0.1,0.7c0.2,0.1-0.1-0.2,0.2-0.1c0.1,0.1-0.3,0.4,0,0.6c-0.1,0.1-0.3-0.1-0.4-0.2
				l0.1,0.2c-0.4,0.1-0.4-0.8-0.9-0.6l0,0.2c-0.4,0.1-0.2-0.6-0.4-0.2c0.1,0.2,0.5,0.6,0.6,0.4c0,0.4,0.6,0.4,0.5,0.9
				c-0.2,0.1,0.1-0.4-0.2-0.4c-0.3,0.1,0,0.5-0.1,0.6c0.2-0.2,0.4,0.1,0.4,0.2c-0.2,0.2-0.2-0.2-0.4,0.1c0.2,0.1,0.2,0.4,0.4,0.2
				c0.3,0.2-0.2,0.3,0,0.6c-0.3,0-0.5-0.5-0.8-0.2c0.3,0,0.2,0.6,0.7,0.5c-0.1,0.1-0.3,0.1-0.5-0.1c-0.2,0.2,0.3,0.6-0.2,0.5
				l0.2,0.1l-0.4,0.2c-0.1,0.2,0.2,0.7-0.2,0.5c0,0.1-0.1,0.5,0.2,0.4c0.2-0.2-0.1-0.4,0.3-0.4c-0.4,0.1-0.1,0.4,0,0.6l-0.2,0
				c0,0.1-0.1,0.3,0.1,0.4c-0.1-0.1-0.2-0.1-0.2,0l0.2,0.2c0,0.4-0.4,0-0.5,0.3l-0.1-0.3c0,0.1-0.2,0.1-0.2,0.3l0.6,0.4
				c0,0.2-0.3,0-0.1,0.3l-0.2-0.3c-0.1-0.1-0.4,0.1-0.5,0.3c0,0.2,0.3,0.5,0.5,0.3c0,0.1-0.2,0.3-0.4,0.1c0,0.3,0.2,0,0.3,0.3
				c-0.2,0.1-0.5,0.3-0.8,0.5l-0.3-0.4l-0.1,0.2c-0.2-0.3-0.3,0-0.5-0.2c-0.1,0.1,0,0.3,0,0.4c0.6-0.2,0.5,0.6,1,0.6
				c0,0.5-1.2,0-0.6,0.7c0.1,0,0.4,0.3,0.4,0c-0.1,0.3,0.4,0.3,0.1,0.6c-0.1-0.3-0.5,0.1-0.7-0.3c0.1,0.1,0.2-0.2,0.2-0.3
				c-0.2,0.1-0.4-0.2-0.5,0.1c0,0.2-0.1,0.5,0.2,0.5c0.3,0.1,0.1-0.3,0.3-0.1c0,0.4-0.4,0.3,0,0.6c0-0.3,0.3-0.2,0.5-0.2l0,0.3
				l-0.2-0.1c-0.3,0.4,0.3,0.2,0.1,0.6l-0.4,0.1c-0.3-0.2,0.3-0.6-0.2-0.7c-0.1,0.3,0.1,0.4-0.1,0.7l0-0.2c0,0.1-0.7,0-0.5,0.5
				c0.1,0.2,0.2,0.1,0.3,0.2c-0.1,0.5,0.1,0.7,0,0.9c-0.3-0.2-0.2,0.5-0.4,0.1c0.2-0.1,0.4-0.7,0.2-1c-0.5,0,0.2-0.3-0.2-0.6
				c-0.1,0.4-0.5,0.2-0.8,0.2l0.1,0.3c0.2,0.1,0.3,0,0.5,0.1c-0.2,0.4-0.2,0.8,0,1.1c-0.2,0.1-0.4,0-0.4-0.2c-0.1,0.5-0.3,1-0.5,1.4
				c0.5-0.2-0.1,0.5,0.3,0.4c0.2-0.2,0.5-0.3,0.7-0.1c-0.1,0.1-0.2-0.1-0.3,0c0.2,0.3-0.4,0.2-0.2,0.5c0-0.5-0.5-0.2-0.8-0.4
				c0.1,0.4-0.2-0.1-0.3,0.2l0.1,1.2c-0.4,0.3-0.3,1.1-0.5,1.5c-0.2,0.2-0.5-0.1-0.7,0.1c-0.1,0.3,0.4-0.1,0.2,0.3l-0.1-0.1
				c0,0.1-0.5,0.6,0,0.9l-0.3-0.2c-0.1,0.1,0,0.2,0,0.2c-0.1,0-0.3,0-0.3-0.1c-0.3,0.2-0.1,0.5-0.2,0.8l0.3-0.1
				c0,0.5-0.3,0.7-0.3,1.2l-0.2-0.1l0.1,0.3c-0.2-0.1-0.4,0.1-0.3,0.2l-0.3-0.8c0.2-0.1,0.2,0.3,0.5,0.2c0.2,0,0.3-0.4,0.1-0.6
				l0,0.3c-0.3,0-0.2-0.3-0.4-0.4c0,0.1-0.1,0.2,0,0.2c-0.1-0.2-0.1-0.4,0-0.6c0.1,0.2,0.2,0,0.3,0.1c-0.3-0.1-0.3-0.4-0.1-0.7
				c0.4-0.1,0-0.7,0.2-1c0.2,0.2,0.4,0.5,0.4,0.8c0.2-0.2,0.1-0.3,0.3-0.5c-0.2-0.2-0.5-0.4-0.5-0.7l0.2,0c0-0.3-0.3-0.4-0.2-0.7
				c0.3-0.6,0.5-1.2,0.6-1.6l0.2,0c-0.4-0.4,0.1-0.9,0-1.3c0.4-0.5,0.2-1.3,0.6-1.5c0.2-1.1,0.3-2,0.7-3.1l0.2,0.3
				c-0.2-0.3,0.2-0.1,0.2-0.3c-0.3,0.1-0.2-0.4-0.4-0.5c0.4-0.4,0.3-1.1,0.2-1.6l0.2,0c-0.2-0.5,0.2-0.9,0.5-1.5
				c0.1,0,0.3-0.1,0.4-0.2c-0.2-0.4-0.2-0.5-0.2-1c0.1-0.3,0.3-0.8,0.6-1.1c-0.1-1.3,0.6-2.4,0.6-3.7l0.3,0
				c-0.2-1.3,0.8-2.6,0.8-3.7l0.4,0.2c0.2-0.3,0.1-0.7-0.2-0.8c0.2-0.3,0-0.8,0.4-0.9c0.2-0.3-0.1-0.4,0-0.7
				c0.4-0.6,0.4-0.8,0.5-1.5l-0.1,0.1c0.1,0.1,0.2,0.2,0.3,0c0-0.3,0.4-0.8-0.2-0.7c0.5-0.6,0.2-1.6,0.8-2.1c-0.1,0-0.1-0.2-0.2-0.2
				c0.2-0.6,0.6-1.1,0.5-1.6c0.1-0.1,0.2,0.2,0.3,0c0-0.2-0.2-0.1-0.2-0.2c0-1,0.8-1.8,1-2.6c0.2-1.6,0.8-3.1,1.2-4.5l0.1,0
				c-0.2-0.6,0.7-1,0.3-1.6c0.1-0.1,0.2-0.4,0.3-0.3c-0.1-0.5,0.6-1,0.4-1.6l0,0.2c0.4-0.5,0.2-1.1,0.6-1.6l0.1,0.2
				c0.3-0.2-0.3-0.7,0.3-0.6c0-0.1-0.2-0.2-0.2-0.1c0.6-1.2,0.7-2.7,1-4c0.6-0.9,0.8,0.2,0.7-0.7c0.1,0-0.2-0.1-0.1-0.1
				c0-0.3,0.7-0.3,0.5-0.6c-0.3,0-0.1-0.2-0.3-0.2c0.4-0.5,0.7-0.6,0.6-1.1l0.1,0.1c-0.3-0.7,0.2-1.2-0.2-1.8c0.8-3,1.4-5.9,2.3-8.8
				c1-2.8,1.6-5.7,2.8-8.5c0.6-0.6,0.6-0.6,0.7-1.4l0.1,0.1c-0.3-0.1,0.1-0.5-0.2-0.7c0.4-1.1,0.6-2.1,0.9-3.2
				c0,0.2,0.2,0.4,0.3,0.1l-0.1-0.3l0.1,0c0-0.2-0.1-0.4-0.3-0.2c0.6-2.9,2.1-5.4,2.8-8.1c0.3-0.6,0.5-1.6,0.6-2.3
				c1.1-1.9,2-3.7,2.4-5.9C905.6,798.2,906.4,798.7,906.3,799.6z"/>
			<path class="st7" d="M877.6,892.1c0.2,0,0.4-0.2,0.5,0C877.9,892,877.7,892.1,877.6,892.1z"/>
			<path class="st7" d="M881.3,886.1c0,0,0.1-0.1,0.1-0.1c0,0.1,0.1,0.2,0,0.2L881.3,886.1z"/>
			<path class="st7" d="M881.9,884.5c0.1,0.1,0.1,0.5,0.1,0.7L881.9,884.5z"/>
			<path class="st7" d="M882.9,883.1c0.2-0.1,0.2,0,0.2,0.1L882.9,883.1z"/>
			<path class="st7" d="M882.6,882.9l0.2-0.2C882.8,882.7,882.9,883,882.6,882.9z"/>
			<path class="st7" d="M884.1,879.7c0-0.1-0.1-0.3,0.1-0.3C884.1,879.4,884.3,879.8,884.1,879.7z"/>
			<path class="st7" d="M884.4,878.1l0-0.1c0.1-0.1,0.2,0.1,0.2,0.1L884.4,878.1z"/>
			<polygon class="st7" points="892.5,849.6 892.5,849.8 892.4,849.8 			"/>
			<path class="st7" d="M896.3,837.2c0-0.2,0.2-0.1,0.2-0.1C896.5,837.3,896.4,837,896.3,837.2z"/>
			<polygon class="st7" points="897.6,830.3 897.6,830.4 897.3,830.3 			"/>
		</g>
		<g>
			<path class="st7" d="M893,897.4c0,0.4,0.3-0.1,0,0.3C892.9,897.6,892.9,897.5,893,897.4z"/>
			<path class="st7" d="M923.1,805c0.4,1.4-0.8,2.6-0.7,3.9c0,0.2-0.4-0.2-0.4,0.2c0.2,1.4-0.7,3.1-1.7,4.4l-0.1-0.1
				c-0.2,0.2,0.1,0.7,0,1c-0.1,0-0.1-0.1-0.2-0.1c0.2,0.2-0.1,0.6,0.1,0.7c-0.1,0.1-0.3,0-0.5,0.1l0.2,0.3c0.5,0.7-0.4,1.1-0.3,1.8
				c-0.1-0.1-0.1-0.1-0.2-0.1c0.1,1.1-0.4,2.4-0.6,3.5c-0.1-0.1-0.2-0.2-0.4-0.1c0.3,0.1,0.2,0.5,0.2,0.8c-0.3,0,0.1,0.6-0.2,0.9
				l-0.1-0.1c0.2,0.4-0.3,0.3,0,0.7L918,823c0.4,0.3-0.3,0.3-0.2,0.6l0.1,0c0,0.2-0.2,0.3-0.2,0.5l0,0c0,0.5-0.4,0.7,0,0.8
				c-0.3,0.1,0-0.5-0.4-0.3c-0.1,1.6-0.7,3.1-1.2,4.5c-0.2,0.1-0.3,0.2-0.4,0.2c0,0.2-0.1,0.6,0,0.8c0-0.1-0.2,0-0.2,0.1
				c-0.2,0.2,0.3,0.4,0,0.7c0-0.1-0.1-0.2-0.3-0.2c0.2,0.3,0,0.7,0,1l-0.2-0.2c0.2,0.4-0.2,0.6-0.2,0.9l-0.1-0.2
				c-0.4,0.4,0.3,0.3,0.1,0.6c0-0.1-0.1-0.1-0.2-0.2c0.2,0.5-0.1,1-0.1,1.4l-0.1,0c-0.1,0.4-0.3,0.8-0.3,1.3
				c-0.1,0.1-0.4-0.2-0.5,0.2c0.4,0.1-0.1,0.8,0.4,0.7c-0.2,0.3-0.5,0.9-0.5,1.2c-0.1-0.2-0.5,0-0.4-0.3l-0.3,0.2
				c-0.1-0.1,0.1-0.2-0.1-0.2c0,0.2,0,0.6-0.1,0.8c0.1,0.4,0.5,0.7,0.4,1.2c-0.1-0.3-0.4,0-0.5-0.2l0.5,0.9c0,0.2-0.3-0.1-0.3,0.2
				l0.2,0.2c-0.1,0-0.1,0.7-0.5,0.6c-0.2,0,0-0.3-0.2-0.1c-0.1,0.3,0,0.3,0,0.6l0,0c-0.1,0.2,0,0.6,0.2,0.5c0.1-0.1-0.2,0-0.1-0.2
				c0.2,0.2,0.1,0.5,0,0.8l-0.2-0.2c0.2,0.5,0.1,0.9,0.1,1.3c0.2,0.1-0.3-0.3-0.2-0.3c-0.4,0.5,0,1.2-0.5,1.5c0-0.1,0.3,0,0.2,0
				c-0.1,0.3-0.4,0.2-0.3,0.4c-0.2,0,0,0.2,0,0.4c0.1,0.1-0.1,0-0.1-0.1c0,0.3,0,1.3-0.4,1.8c0.1,0,0.3,0.5,0.2,0.6l-0.2-0.1
				c-0.2,0.1-0.1,0.4-0.3,0.4c0.2,0.4,0.1-1.1,0.2-0.7c-0.2,0,0.2,0.6-0.1,0.5c-0.1,0.3,0.1,0.6-0.2,0.8c0.1-0.1-0.3-0.3-0.3-0.1
				c-0.1,0.4,0.1,0.1,0.1,0.5l0,0.2c0.2,0.1-0.1,0.3,0.2,0.3c-0.2,0-0.1,0.6-0.4,0.4l-0.3-0.1c0,0.2,0.2,0.4,0.3,0.5l-0.2,0
				c0.4,0.2-0.2,0.4,0.1,0.7c-0.3,0.3-0.3,0.8-0.6,0.9c0,0.3,0.1,0.6-0.1,0.8l-0.1-0.2c-0.2,0.1-0.1,0.2-0.1,0.4
				c-0.1-0.1-0.4,0.3-0.6,0.4c0.1,0.3,0.3,0.3,0.5,0.4c-0.5,0.1,0.1,0.8-0.4,1c0-0.1-0.1-0.4-0.3-0.3c-0.5,0.1,0.2,0.6-0.2,0.9
				l0.4,0c-0.3,0.1,0,0.6-0.3,0.5c0.1,0.2-0.3,0.4,0.1,0.5c-0.5,0.5-0.3,1.5-1.1,1.7c0,0.1-0.1,0.3,0.1,0.3c0.2-0.1-0.1-0.2,0.1-0.3
				l0.1,0.2c-0.1,0.2-0.2,0.3-0.5,0c-0.4,0.4,0.5,0.6,0.1,1.1c-0.1-0.1-0.2-0.1-0.2,0.1l0.2,0.4c-0.2,0.3-0.4,0.1-0.7,0
				c0,0.2-0.1,0.4,0.1,0.6l-0.4,0.1c0.3-0.1,0.1,0.2,0.1,0.3l0-0.1c-0.1,0-0.1,0.2-0.1,0.4c0.2,0,0.3-0.2,0.4-0.3l0.1,0.4
				c-0.2-0.1-0.3,0.3-0.3,0.4c-0.1,0.2,0.2,0.3,0.1,0.3c-0.1,0-0.1,0.3-0.2,0.1c0-0.1,0.2-0.1,0.1-0.2c-0.1,0.1-0.3,0-0.3,0.3
				c0.1,0.2,0.5,0.1,0.2,0.4l-0.2-0.3l-0.2,0.3l0.2,0.1H906c0.2,0.2-0.1,0.5,0.2,0.7c0,0.2-0.3,0.3-0.3,0.4l0,0
				c-0.2,0.1-0.2,0.4-0.1,0.6l0,0c0,0.1-0.1,0.3,0,0.5c-0.3,0.2-0.9-0.2-0.7,0.2c-0.1,0.3,0.3,0.5,0.5,0.5c-0.3,0.4-0.1,1.1-0.6,1.4
				c0.1,0.1,0.1,0.1,0.2,0.2c-0.3,0.6-0.2,1.5-0.8,1.9c0-0.2-0.2-0.1-0.3-0.1c0.1,0.2-0.3,0.1,0.1,0.3c0.2,0,0.3,0.1,0.4-0.1
				c0,0.4-0.2,1.1-0.5,1.2c0.1-0.1,0.2,0,0.2,0.1c-0.3-0.1-0.5,0.2-0.4,0.4l0.2,0.1l-0.2,0.1c0,0.1,0.4,0.2,0.1,0.4l-0.2,0
				c0.1,0.3,0.3,0.7,0,0.9l-0.4,0.1c0,0.1,0.1,0.4,0.3,0.2c-0.3,0.4-0.4,0.6-0.7,0.7c0.4,0.9,0,2-0.3,2.9l-0.1-0.1
				c-0.2,0.2,0.2,0.2,0.1,0.3c-0.1-0.1-0.4,0.1-0.5-0.2c-0.3,0.3,0.1,0.5,0.1,0.7c0.2,0.1-0.1-0.2,0.2-0.1c0.1,0.1-0.3,0.4,0,0.6
				c-0.1,0-0.3-0.1-0.4-0.2l0.1,0.3c-0.4,0.1-0.4-0.8-0.9-0.6l0,0.2c-0.4,0.1-0.2-0.6-0.4-0.2c0.1,0.3,0.4,0.6,0.6,0.4
				c-0.1,0.4,0.6,0.4,0.5,0.9c-0.2,0.1,0.1-0.4-0.2-0.4c-0.3,0.1,0,0.5-0.2,0.6c0.2-0.2,0.4,0.1,0.4,0.3c-0.2,0.2-0.2-0.2-0.4,0.1
				c0.2,0.1,0.2,0.5,0.4,0.2c0.3,0.2-0.2,0.3,0,0.6c-0.3,0-0.5-0.5-0.8-0.2c0.3,0,0.2,0.6,0.7,0.5c-0.1,0.1-0.3,0.1-0.5-0.1
				c-0.2,0.1,0.3,0.6-0.2,0.5l0.2,0.2l-0.4,0.2c-0.1,0.2,0.2,0.7-0.2,0.5c0,0.1-0.1,0.5,0.2,0.4c0.2-0.2-0.1-0.4,0.3-0.4
				c-0.4,0.1-0.1,0.4,0,0.6l-0.2,0c0,0.1-0.1,0.3,0.1,0.4c-0.1-0.1-0.2-0.1-0.2,0l0.2,0.2c0,0.4-0.4-0.1-0.5,0.3l-0.1-0.3
				c0,0.1-0.2,0.1-0.2,0.3l0.6,0.4c0,0.2-0.3,0-0.1,0.3l-0.2-0.3c-0.1-0.1-0.4,0-0.5,0.3c0,0.2,0.2,0.5,0.4,0.3
				c0,0.1-0.2,0.3-0.4,0.1c0,0.3,0.2,0,0.3,0.3c-0.2,0.1-0.5,0.3-0.8,0.4l-0.3-0.4l-0.1,0.2c-0.2-0.3-0.3,0-0.5-0.2
				c-0.1,0.1,0,0.3,0,0.4c0.6-0.2,0.5,0.6,1,0.6c0,0.5-1.2,0-0.6,0.7c0.1,0,0.4,0.3,0.4,0c-0.1,0.3,0.4,0.3,0.1,0.6
				c-0.1-0.3-0.5,0.1-0.7-0.3c0.1,0.1,0.2-0.2,0.2-0.2c-0.2,0.1-0.4-0.2-0.5,0.1c0,0.2-0.1,0.5,0.2,0.5c0.3,0.1,0.1-0.3,0.3-0.1
				c0,0.4-0.4,0.3,0,0.6c0-0.2,0.3-0.2,0.5-0.2l0,0.3l-0.2-0.1c-0.3,0.4,0.3,0.2,0.1,0.6l-0.4,0.1c-0.3-0.2,0.3-0.6-0.2-0.7
				c-0.1,0.3,0.1,0.4-0.1,0.7l0-0.2c0,0.1-0.7,0-0.5,0.5c0.1,0.2,0.1,0.1,0.3,0.2c-0.1,0.5,0,0.6,0,0.9c-0.3-0.2-0.2,0.5-0.4,0.1
				c0.2-0.1,0.4-0.7,0.2-1c-0.5,0,0.2-0.3-0.2-0.6c-0.1,0.4-0.5,0.2-0.8,0.2l0,0.3c0.2,0.1,0.3,0,0.5,0.1c-0.2,0.4-0.2,0.8,0,1.1
				c-0.2,0.1-0.4,0-0.4-0.2c-0.1,0.5-0.3,1-0.5,1.4c0.5-0.2-0.1,0.5,0.3,0.4c0.2-0.2,0.5-0.3,0.7-0.1c-0.1,0.1-0.2-0.1-0.3,0
				c0.2,0.3-0.4,0.2-0.2,0.5c0-0.5-0.5-0.2-0.8-0.4c0.1,0.4-0.2-0.1-0.3,0.2l0,1.2c-0.4,0.3-0.4,1.1-0.5,1.5
				c-0.2,0.2-0.5-0.1-0.7,0.1c-0.1,0.3,0.4-0.1,0.2,0.3l-0.1-0.1c0,0.1-0.5,0.6,0,0.9l-0.3-0.2c-0.1,0.1,0,0.2,0,0.2
				c-0.1,0-0.3,0-0.3-0.1c-0.3,0.1-0.1,0.5-0.2,0.8l0.3-0.1c0,0.5-0.3,0.7-0.3,1.2l-0.2-0.1l0.1,0.3c-0.2-0.1-0.4,0.1-0.3,0.2
				l-0.3-0.8c0.2-0.1,0.2,0.3,0.5,0.2c0.2,0,0.3-0.4,0.1-0.6l0,0.3c-0.3-0.1-0.2-0.3-0.4-0.5c0,0.1-0.1,0.2,0,0.2
				c-0.1-0.2-0.1-0.4,0-0.6c0.1,0.2,0.2,0,0.3,0.1c-0.3-0.1-0.3-0.4-0.1-0.7c0.4-0.1,0-0.7,0.2-1c0.2,0.2,0.4,0.5,0.4,0.8
				c0.2-0.2,0.1-0.3,0.3-0.4c-0.2-0.2-0.5-0.4-0.5-0.7l0.2,0c0-0.3-0.3-0.4-0.1-0.7c0.3-0.6,0.5-1.2,0.7-1.6l0.2,0.1
				c-0.4-0.4,0.1-0.9,0-1.3c0.4-0.5,0.2-1.3,0.7-1.5c0.2-1.1,0.3-2,0.7-3.1l0.2,0.3c-0.2-0.3,0.2-0.1,0.2-0.3
				c-0.3,0.1-0.2-0.4-0.4-0.5c0.4-0.4,0.3-1.1,0.3-1.6l0.2,0c-0.2-0.5,0.3-0.9,0.5-1.5c0.1,0,0.3-0.1,0.4-0.2
				c-0.2-0.4-0.2-0.5-0.2-1c0.1-0.3,0.3-0.8,0.6-1c-0.1-1.3,0.6-2.4,0.7-3.7l0.3,0c-0.1-1.3,0.8-2.6,0.8-3.7l0.4,0.2
				c0.2-0.3,0.1-0.7-0.2-0.8c0.2-0.3,0.1-0.8,0.5-0.9c0.2-0.3-0.1-0.4,0-0.7c0.4-0.6,0.4-0.8,0.5-1.5l-0.1,0.1
				c0.1,0.1,0.2,0.2,0.3,0c0-0.3,0.4-0.8-0.2-0.7c0.5-0.6,0.3-1.6,0.8-2.1c-0.2,0-0.1-0.2-0.2-0.2c0.2-0.6,0.6-1.1,0.6-1.6
				c0.1-0.1,0.2,0.2,0.3,0c0-0.2-0.2-0.1-0.2-0.3c0-1,0.9-1.8,1.1-2.6c0.2-1.6,0.8-3.1,1.3-4.5l0.1,0c-0.2-0.6,0.7-1,0.3-1.5
				c0.1-0.1,0.2-0.4,0.3-0.3c-0.1-0.5,0.6-1,0.4-1.6l0,0.2c0.4-0.5,0.3-1.1,0.6-1.6l0.1,0.2c0.3-0.2-0.2-0.7,0.3-0.6
				c0-0.1-0.2-0.2-0.2-0.1c0.6-1.2,0.7-2.7,1.1-4c0.6-0.9,0.8,0.2,0.7-0.7c0.1,0-0.2-0.1-0.1-0.1c0-0.3,0.7-0.3,0.5-0.6
				c-0.3,0-0.1-0.2-0.3-0.2c0.4-0.5,0.7-0.6,0.6-1.1l0.1,0.1c-0.3-0.7,0.2-1.2-0.2-1.8c0.9-3,1.5-5.9,2.4-8.8c1-2.8,1.7-5.7,2.9-8.5
				c0.6-0.5,0.6-0.6,0.7-1.4l0.1,0.1c-0.3-0.1,0.1-0.5-0.2-0.7c0.4-1.1,0.6-2.1,1-3.2c0,0.2,0.2,0.4,0.3,0.1l-0.1-0.3l0.1,0
				c0-0.2-0.1-0.4-0.3-0.3c0.6-2.9,2.2-5.4,3-8.1c0.3-0.6,0.5-1.6,0.7-2.3c1.1-1.9,2.1-3.7,2.4-5.9C922.4,803.5,923.2,804,923.1,805
				z"/>
			<path class="st7" d="M893.1,897c0.2,0,0.4-0.2,0.5,0C893.4,897,893.2,897.1,893.1,897z"/>
			<path class="st7" d="M896.9,891.1c0,0,0.1-0.1,0.1-0.1c0,0.1,0.1,0.2,0,0.2L896.9,891.1z"/>
			<path class="st7" d="M897.5,889.5c0.1,0.1,0.1,0.5,0.1,0.7L897.5,889.5z"/>
			<path class="st7" d="M898.6,888.2c0.2-0.1,0.2,0,0.2,0.1L898.6,888.2z"/>
			<path class="st7" d="M898.3,887.9l0.2-0.2C898.4,887.7,898.5,888.1,898.3,887.9z"/>
			<path class="st7" d="M899.8,884.7c0-0.1-0.1-0.3,0.1-0.3C899.8,884.5,900,884.9,899.8,884.7z"/>
			<path class="st7" d="M900.1,883.1l0-0.1c0.1-0.1,0.2,0.1,0.2,0.1L900.1,883.1z"/>
			<polygon class="st7" points="908.6,854.8 908.6,855 908.5,854.9 			"/>
			<path class="st7" d="M912.6,842.4c0-0.2,0.2-0.1,0.2-0.1C912.8,842.5,912.6,842.2,912.6,842.4z"/>
			<polygon class="st7" points="914,835.6 914,835.6 913.7,835.5 			"/>
		</g>
		<g>
			<path class="st7" d="M909.4,902.6c0,0.4,0.3-0.1,0,0.3C909.3,902.8,909.2,902.7,909.4,902.6z"/>
			<path class="st7" d="M938.6,809.9c0.4,1.4-0.8,2.6-0.7,3.9c0,0.2-0.4-0.2-0.4,0.2c0.2,1.4-0.7,3.1-1.6,4.4l-0.1-0.1
				c-0.2,0.2,0.1,0.7,0,1c-0.1,0-0.1-0.1-0.2-0.1c0.2,0.1-0.1,0.6,0.1,0.7c-0.1,0.1-0.3,0-0.5,0.1l0.2,0.3c0.5,0.7-0.4,1.1-0.3,1.8
				c-0.1-0.1-0.1-0.1-0.2-0.1c0.1,1.1-0.4,2.4-0.6,3.6c-0.1-0.1-0.2-0.2-0.4-0.1c0.3,0.1,0.2,0.5,0.2,0.8c-0.3,0,0.1,0.6-0.2,0.9
				l-0.1-0.1c0.2,0.4-0.3,0.3,0,0.7l-0.3,0.1c0.4,0.2-0.3,0.3-0.2,0.6l0.1,0c0,0.2-0.2,0.3-0.2,0.5l-0.1,0c0,0.5-0.3,0.7,0,0.8
				c-0.3,0.1,0-0.5-0.4-0.3c-0.1,1.6-0.7,3.1-1.1,4.5c-0.2,0.1-0.3,0.2-0.4,0.2c0,0.2-0.1,0.6,0,0.8c0-0.1-0.2,0-0.2,0.1
				c-0.2,0.2,0.3,0.4,0,0.7c0-0.1-0.1-0.2-0.3-0.2c0.2,0.3,0,0.7,0,1l-0.2-0.2c0.2,0.4-0.2,0.6-0.2,0.9l-0.1-0.2
				c-0.4,0.4,0.3,0.3,0.1,0.6c0-0.1-0.1-0.1-0.2-0.1c0.2,0.5-0.1,1-0.1,1.4l-0.1,0c-0.1,0.4-0.3,0.8-0.3,1.3
				c-0.1,0.1-0.4-0.2-0.5,0.2c0.4,0.1-0.1,0.8,0.4,0.7c-0.2,0.3-0.5,0.9-0.4,1.2c-0.1-0.2-0.5,0-0.4-0.3l-0.3,0.2
				c-0.1-0.1,0.1-0.2-0.1-0.2c0,0.2,0,0.6-0.1,0.8c0.1,0.4,0.5,0.7,0.4,1.2c-0.1-0.3-0.4,0-0.5-0.2l0.5,0.9c0,0.2-0.3-0.1-0.3,0.2
				l0.2,0.2c-0.1,0-0.1,0.7-0.5,0.6c-0.2,0,0-0.3-0.2-0.1c-0.1,0.3,0,0.3,0,0.6l-0.1,0c-0.1,0.2,0,0.6,0.3,0.5c0-0.1-0.2,0-0.1-0.2
				c0.2,0.2,0.1,0.5,0,0.8L928,847c0.2,0.5,0.1,0.9,0.1,1.3c0.2,0.1-0.3-0.3-0.2-0.3c-0.4,0.5,0,1.2-0.5,1.5c0-0.1,0.3,0,0.2,0
				c-0.1,0.3-0.4,0.2-0.3,0.4c-0.2,0,0,0.2,0,0.4c0.1,0.1-0.1,0-0.1-0.1c0.1,0.3,0,1.3-0.4,1.8c0.1,0,0.3,0.5,0.2,0.6l-0.2-0.1
				c-0.2,0.1-0.1,0.4-0.3,0.4c0.2,0.4,0.1-1.1,0.2-0.7c-0.2,0,0.2,0.6-0.1,0.5c-0.1,0.3,0.1,0.6-0.2,0.8c0.1-0.1-0.3-0.3-0.3-0.1
				c-0.1,0.4,0.1,0.1,0.1,0.5l0,0.2c0.2,0.1-0.1,0.3,0.2,0.3c-0.2,0-0.1,0.6-0.4,0.4l-0.3-0.1c0,0.2,0.2,0.4,0.3,0.5l-0.2,0
				c0.4,0.2-0.2,0.4,0.1,0.7c-0.3,0.3-0.3,0.8-0.6,0.9c0.1,0.3,0.1,0.6,0,0.8l-0.1-0.2c-0.2,0.1-0.1,0.2-0.1,0.4
				c0-0.1-0.4,0.3-0.6,0.4c0.1,0.3,0.3,0.3,0.5,0.4c-0.5,0.1,0.1,0.8-0.4,1c0-0.1-0.1-0.4-0.3-0.3c-0.5,0.1,0.2,0.6-0.2,0.9l0.4,0
				c-0.3,0.1,0,0.6-0.3,0.5c0.1,0.2-0.3,0.4,0.1,0.5c-0.5,0.5-0.3,1.6-1,1.7c0,0.1-0.1,0.3,0.1,0.3c0.2-0.1-0.1-0.2,0.1-0.3l0.1,0.2
				c-0.1,0.2-0.2,0.3-0.5,0c-0.4,0.4,0.5,0.6,0.2,1.1c-0.1-0.1-0.2,0-0.2,0.1l0.2,0.4c-0.2,0.3-0.4,0.1-0.7,0c0,0.2-0.1,0.4,0.1,0.6
				l-0.4,0.1c0.3-0.1,0.1,0.2,0.1,0.3l0-0.1c-0.1,0-0.1,0.2-0.1,0.4c0.2,0,0.3-0.2,0.4-0.3l0.1,0.4c-0.2-0.1-0.3,0.2-0.3,0.4
				c-0.1,0.2,0.2,0.3,0.1,0.3c-0.1,0-0.1,0.3-0.2,0.1c0-0.1,0.2-0.1,0.1-0.2c-0.1,0.1-0.3,0-0.3,0.3c0.1,0.2,0.5,0.1,0.2,0.4
				l-0.2-0.3l-0.2,0.3l0.2,0.1l-0.1,0c0.2,0.2-0.1,0.5,0.2,0.7c0,0.2-0.3,0.3-0.3,0.4l0,0c-0.2,0.1-0.2,0.4-0.1,0.6l0,0
				c0,0.1-0.1,0.3,0,0.5c-0.3,0.2-0.9-0.2-0.7,0.2c-0.1,0.3,0.3,0.5,0.5,0.5c-0.3,0.4-0.1,1.1-0.6,1.4c0.1,0.1,0.1,0.1,0.1,0.2
				c-0.3,0.6-0.2,1.5-0.8,1.9c0-0.2-0.2-0.1-0.3-0.1c0.1,0.2-0.3,0.1,0.1,0.3c0.2,0,0.3,0.1,0.4-0.1c0,0.4-0.2,1.1-0.5,1.2
				c0.1-0.1,0.2,0,0.2,0.1c-0.3-0.1-0.5,0.2-0.4,0.4l0.2,0.1l-0.3,0.1c0,0.1,0.4,0.2,0.1,0.4h-0.2c0.1,0.3,0.3,0.7,0,0.9l-0.4,0.1
				c0,0.1,0.1,0.4,0.3,0.2c-0.3,0.4-0.4,0.6-0.7,0.7c0.4,0.9,0.1,2-0.3,2.9l-0.1-0.1c-0.2,0.2,0.2,0.2,0.1,0.3
				c-0.1-0.1-0.4,0.1-0.5-0.2c-0.3,0.3,0.1,0.5,0.1,0.7c0.2,0.1-0.1-0.2,0.2-0.1c0.1,0.1-0.3,0.4,0,0.6c-0.1,0-0.3-0.1-0.4-0.2
				l0.1,0.2c-0.4,0.1-0.4-0.8-0.9-0.6l0,0.2c-0.4,0.1-0.2-0.6-0.4-0.2c0.1,0.2,0.5,0.6,0.6,0.4c-0.1,0.4,0.6,0.4,0.5,0.9
				c-0.2,0.1,0.1-0.4-0.2-0.4c-0.3,0.1,0,0.5-0.1,0.6c0.2-0.2,0.4,0.1,0.4,0.3c-0.2,0.2-0.2-0.2-0.4,0.1c0.2,0.1,0.2,0.4,0.4,0.2
				c0.3,0.2-0.2,0.3,0,0.6c-0.3,0-0.5-0.5-0.8-0.2c0.3,0,0.2,0.6,0.7,0.5c-0.1,0.1-0.3,0.1-0.5-0.1c-0.2,0.1,0.3,0.6-0.2,0.5
				l0.2,0.2l-0.4,0.2c-0.1,0.2,0.2,0.7-0.2,0.5c0,0.1-0.1,0.5,0.2,0.4c0.3-0.2-0.1-0.4,0.3-0.4c-0.4,0.1-0.1,0.4,0,0.6l-0.2,0
				c0,0.1-0.1,0.3,0.1,0.4c-0.1-0.1-0.2-0.1-0.2,0l0.2,0.2c0,0.4-0.4,0-0.5,0.3l-0.1-0.3c0,0.1-0.2,0.1-0.2,0.3l0.6,0.4
				c0,0.2-0.3,0-0.1,0.3l-0.2-0.3c-0.1-0.1-0.4,0.1-0.5,0.3c0,0.2,0.3,0.5,0.5,0.3c0,0.1-0.2,0.3-0.4,0.1c0,0.3,0.2,0,0.3,0.3
				c-0.2,0.1-0.5,0.3-0.8,0.4l-0.3-0.4l-0.1,0.2c-0.2-0.3-0.3,0-0.5-0.2c-0.1,0.1,0,0.3,0,0.4c0.6-0.2,0.5,0.6,1,0.6
				c0,0.5-1.2,0-0.6,0.7c0.1,0,0.4,0.3,0.4,0c-0.1,0.3,0.4,0.3,0.1,0.6c-0.1-0.3-0.5,0.1-0.7-0.3c0.1,0.1,0.2-0.2,0.2-0.2
				c-0.2,0.1-0.4-0.2-0.5,0.1c0,0.2-0.1,0.5,0.2,0.5c0.3,0.1,0.1-0.3,0.3-0.1c0,0.4-0.4,0.3,0,0.6c0-0.2,0.3-0.2,0.5-0.2l0,0.3
				l-0.2-0.1c-0.3,0.4,0.3,0.2,0.1,0.6l-0.4,0.1c-0.3-0.2,0.3-0.6-0.2-0.7c-0.1,0.3,0.1,0.4-0.1,0.7l0-0.2c0,0.1-0.7,0-0.5,0.5
				c0.1,0.2,0.2,0.1,0.3,0.2c-0.1,0.5,0.1,0.7,0,0.9c-0.3-0.2-0.2,0.5-0.4,0.1c0.2-0.1,0.4-0.7,0.1-1c-0.5,0,0.2-0.3-0.2-0.6
				c-0.1,0.4-0.5,0.2-0.8,0.2l0.1,0.3c0.2,0.1,0.3,0,0.5,0.1c-0.2,0.4-0.2,0.8,0,1.1c-0.2,0.1-0.4,0-0.4-0.2c-0.1,0.5-0.3,1-0.5,1.4
				c0.5-0.2-0.1,0.5,0.3,0.4c0.2-0.2,0.5-0.3,0.7-0.1c-0.1,0.1-0.2-0.1-0.3,0c0.2,0.3-0.4,0.2-0.2,0.5c0-0.5-0.5-0.2-0.8-0.4
				c0.1,0.4-0.2-0.1-0.3,0.2l0.1,1.2c-0.4,0.3-0.3,1.1-0.5,1.5c-0.2,0.2-0.5-0.1-0.7,0.1c-0.1,0.3,0.4-0.1,0.2,0.3l-0.1-0.1
				c0,0.1-0.5,0.6,0,0.9l-0.4-0.2c-0.1,0.1,0,0.2,0,0.2c-0.1,0-0.3,0-0.3-0.1c-0.3,0.2-0.1,0.5-0.2,0.8l0.3-0.1
				c0,0.5-0.3,0.7-0.3,1.2l-0.2-0.1l0.1,0.3c-0.2-0.1-0.4,0.1-0.3,0.2l-0.3-0.8c0.2-0.1,0.2,0.3,0.5,0.2c0.2,0,0.3-0.4,0.1-0.6
				l0,0.3c-0.3-0.1-0.2-0.3-0.4-0.5c0,0.1-0.1,0.2-0.1,0.2c-0.1-0.2-0.1-0.4,0-0.6c0.1,0.2,0.2,0,0.3,0.1c-0.3-0.1-0.3-0.4-0.1-0.7
				c0.4-0.1,0-0.7,0.2-1c0.2,0.2,0.4,0.5,0.4,0.8c0.2-0.2,0.1-0.3,0.3-0.5c-0.2-0.2-0.5-0.4-0.5-0.7l0.2,0c0-0.3-0.3-0.4-0.2-0.7
				c0.3-0.6,0.5-1.2,0.6-1.6l0.2,0c-0.4-0.4,0.1-0.9,0-1.3c0.4-0.5,0.2-1.3,0.6-1.5c0.2-1.1,0.3-2,0.7-3.1l0.2,0.3
				c-0.2-0.3,0.2-0.1,0.2-0.3c-0.3,0.1-0.2-0.4-0.4-0.5c0.4-0.4,0.3-1.1,0.2-1.6l0.2,0c-0.2-0.5,0.2-0.9,0.5-1.5
				c0.1,0,0.3-0.1,0.4-0.2c-0.2-0.4-0.2-0.5-0.2-1c0.1-0.3,0.3-0.8,0.6-1c-0.1-1.3,0.6-2.4,0.7-3.7l0.3,0c-0.1-1.3,0.8-2.6,0.8-3.7
				l0.4,0.2c0.2-0.3,0.1-0.7-0.2-0.8c0.2-0.3,0-0.8,0.4-0.9c0.2-0.3-0.1-0.4,0-0.7c0.4-0.6,0.4-0.8,0.5-1.5l-0.1,0.1
				c0.1,0.1,0.2,0.2,0.3,0c0-0.3,0.4-0.8-0.2-0.7c0.5-0.6,0.2-1.6,0.8-2.1c-0.2,0-0.1-0.2-0.2-0.2c0.2-0.6,0.6-1.1,0.5-1.6
				c0.1-0.1,0.2,0.2,0.3,0c0-0.2-0.2-0.1-0.2-0.3c0-1,0.8-1.8,1-2.6c0.2-1.6,0.8-3.1,1.2-4.5l0.1,0c-0.2-0.6,0.7-1,0.3-1.5
				c0.1-0.1,0.2-0.4,0.3-0.3c-0.1-0.5,0.6-1,0.4-1.6l0,0.2c0.4-0.5,0.2-1.1,0.6-1.6l0.1,0.2c0.3-0.2-0.3-0.7,0.3-0.6
				c0-0.1-0.2-0.2-0.2-0.1c0.6-1.2,0.7-2.7,1-4c0.6-0.9,0.8,0.2,0.7-0.7c0.1,0-0.2-0.1-0.1-0.1c0-0.3,0.7-0.3,0.5-0.6
				c-0.3,0-0.1-0.2-0.3-0.2c0.4-0.5,0.7-0.6,0.6-1.1l0.1,0.1c-0.3-0.7,0.2-1.2-0.2-1.8c0.8-3,1.5-5.9,2.3-8.8c1-2.8,1.6-5.7,2.8-8.5
				c0.6-0.6,0.6-0.6,0.7-1.4l0.1,0.1c-0.3-0.1,0.1-0.5-0.2-0.7c0.4-1.1,0.6-2.1,1-3.2c0,0.2,0.2,0.4,0.3,0.1l-0.1-0.3l0.1,0
				c0-0.2-0.1-0.4-0.3-0.2c0.6-2.9,2.1-5.4,2.9-8.1c0.3-0.6,0.5-1.6,0.7-2.3c1.1-1.9,2-3.7,2.4-5.9
				C937.9,808.4,938.7,809,938.6,809.9z"/>
			<path class="st7" d="M909.5,902.2c0.2,0,0.4-0.2,0.5,0C909.8,902.2,909.6,902.3,909.5,902.2z"/>
			<path class="st7" d="M913.2,896.3c0,0,0.1-0.1,0.1-0.1c0,0.1,0.1,0.2,0,0.2L913.2,896.3z"/>
			<path class="st7" d="M913.8,894.7c0.1,0.1,0.1,0.5,0.1,0.7L913.8,894.7z"/>
			<path class="st7" d="M914.9,893.3c0.2-0.1,0.2,0,0.2,0.1L914.9,893.3z"/>
			<path class="st7" d="M914.6,893.1l0.2-0.2C914.7,892.9,914.8,893.2,914.6,893.1z"/>
			<path class="st7" d="M916.1,889.9c0-0.1-0.1-0.3,0.1-0.3C916.1,889.6,916.3,890,916.1,889.9z"/>
			<path class="st7" d="M916.3,888.3l0-0.1c0.1-0.1,0.2,0.1,0.2,0.1L916.3,888.3z"/>
			<polygon class="st7" points="924.6,859.9 924.6,860.1 924.5,860 			"/>
			<path class="st7" d="M928.5,847.5c0-0.2,0.2-0.1,0.2-0.1C928.6,847.5,928.5,847.3,928.5,847.5z"/>
			<polygon class="st7" points="929.8,840.6 929.8,840.6 929.5,840.5 			"/>
		</g>
		<g>
			<path class="st7" d="M924.9,907.6c0,0.4,0.3-0.1,0,0.3C924.8,907.8,924.8,907.7,924.9,907.6z"/>
			<path class="st7" d="M955.4,815.3c0.4,1.4-0.9,2.6-0.8,3.9c0,0.2-0.4-0.2-0.4,0.2c0.2,1.4-0.8,3.1-1.7,4.4l-0.1-0.1
				c-0.2,0.2,0.1,0.7,0,1c-0.1,0-0.1-0.1-0.2-0.1c0.2,0.1-0.1,0.6,0.1,0.7c-0.1,0.1-0.3,0-0.5,0.1l0.2,0.3c0.5,0.7-0.4,1.1-0.3,1.8
				c-0.1-0.1-0.1-0.1-0.2-0.1c0.1,1.1-0.4,2.4-0.7,3.5c-0.1-0.1-0.2-0.2-0.4-0.1c0.3,0.1,0.2,0.5,0.2,0.8c-0.3,0,0.1,0.6-0.2,0.9
				l-0.1-0.1c0.2,0.4-0.3,0.3,0,0.7l-0.3,0.1c0.4,0.2-0.3,0.3-0.2,0.6l0.1,0c0,0.2-0.2,0.3-0.2,0.5l-0.1,0c0,0.5-0.4,0.7,0,0.8
				c-0.3,0.1,0-0.5-0.4-0.3c-0.1,1.6-0.7,3-1.2,4.5c-0.2,0.1-0.3,0.2-0.4,0.2c0,0.2-0.1,0.6,0,0.8c0,0-0.2,0-0.2,0.1
				c-0.2,0.2,0.3,0.4,0,0.7c0-0.1-0.1-0.2-0.3-0.2c0.2,0.3,0,0.7,0,1l-0.2-0.2c0.2,0.4-0.3,0.6-0.2,0.9l-0.1-0.2
				c-0.4,0.4,0.3,0.3,0.1,0.6c0-0.1-0.1-0.1-0.2-0.1c0.2,0.5-0.1,1-0.1,1.4l-0.1,0c-0.1,0.4-0.3,0.8-0.3,1.3
				c-0.1,0.1-0.4-0.2-0.5,0.2c0.4,0.1-0.1,0.8,0.4,0.7c-0.2,0.3-0.5,0.9-0.5,1.1c-0.1-0.2-0.5,0-0.4-0.3l-0.3,0.2
				c-0.1-0.1,0.1-0.2-0.1-0.2c0,0.2,0,0.6-0.1,0.8c0.1,0.4,0.5,0.8,0.4,1.2c-0.1-0.3-0.4,0-0.5-0.2l0.5,0.9c0,0.2-0.3-0.1-0.3,0.2
				l0.2,0.2c-0.1,0-0.1,0.7-0.5,0.6c-0.2,0,0-0.3-0.2-0.1c-0.1,0.3,0,0.3-0.1,0.6l-0.1,0c-0.1,0.2,0,0.6,0.3,0.5
				c0-0.1-0.2,0-0.1-0.2c0.2,0.2,0.1,0.5,0,0.8l-0.2-0.2c0.2,0.5,0.1,0.9,0.1,1.3c0.2,0.1-0.3-0.3-0.2-0.3c-0.4,0.5,0,1.2-0.5,1.5
				c0-0.1,0.3,0,0.2,0c-0.1,0.2-0.4,0.2-0.3,0.4c-0.2,0,0,0.2,0,0.4c0.1,0.1-0.1,0-0.1-0.1c0,0.3,0,1.3-0.4,1.8
				c0.1,0,0.2,0.5,0.2,0.6l-0.2-0.1c-0.2,0.1-0.1,0.4-0.3,0.4c0.2,0.4,0.1-1.1,0.2-0.7c-0.2,0,0.2,0.6-0.1,0.5
				c-0.1,0.3,0.1,0.6-0.2,0.8c0.1-0.1-0.3-0.3-0.3-0.1c-0.1,0.4,0.1,0.1,0.1,0.5l0,0.2c0.2,0.1-0.1,0.3,0.2,0.3
				c-0.2,0-0.1,0.6-0.4,0.4l-0.3-0.1c0,0.2,0.2,0.4,0.3,0.5l-0.2,0c0.4,0.2-0.2,0.4,0.1,0.7c-0.3,0.3-0.3,0.8-0.6,0.9
				c0,0.3,0.1,0.6-0.1,0.8l-0.1-0.2c-0.2,0.1-0.1,0.2-0.1,0.4c-0.1-0.1-0.4,0.3-0.6,0.4c0,0.3,0.3,0.3,0.5,0.4c-0.5,0.1,0,0.8-0.4,1
				c0-0.1-0.1-0.4-0.3-0.3c-0.5,0.1,0.2,0.6-0.2,0.9l0.4,0c-0.3,0.1,0,0.6-0.3,0.5c0.1,0.2-0.3,0.4,0.1,0.5
				c-0.5,0.5-0.3,1.5-1.1,1.7c0,0.1-0.1,0.3,0.1,0.3c0.2-0.1-0.1-0.3,0.1-0.3l0.1,0.2c-0.1,0.2-0.2,0.3-0.5,0
				c-0.4,0.4,0.5,0.6,0.1,1.1c-0.1-0.1-0.2-0.1-0.2,0.1l0.2,0.4c-0.2,0.3-0.4,0.1-0.7,0c0,0.2-0.1,0.4,0.1,0.6l-0.4,0.1
				c0.3-0.1,0.1,0.2,0.1,0.3l0-0.1c-0.1,0-0.1,0.2-0.1,0.4c0.2,0,0.3-0.2,0.4-0.3l0.1,0.4c-0.2-0.1-0.3,0.2-0.3,0.4
				c-0.1,0.2,0.2,0.3,0.1,0.3c-0.1,0-0.1,0.3-0.2,0.1c0-0.1,0.2-0.1,0.1-0.2c-0.1,0.1-0.4,0-0.3,0.3c0.1,0.2,0.5,0.1,0.2,0.4
				l-0.2-0.2l-0.2,0.3l0.2,0.1l-0.1,0c0.2,0.2-0.1,0.5,0.2,0.7c0,0.2-0.3,0.3-0.3,0.4l0,0c-0.2,0.1-0.2,0.4-0.1,0.6l0,0
				c-0.1,0.1-0.1,0.3,0,0.5c-0.3,0.2-0.9-0.2-0.7,0.2c-0.1,0.3,0.3,0.5,0.5,0.5c-0.3,0.4-0.1,1.1-0.6,1.4c0.1,0.1,0.1,0.1,0.1,0.2
				c-0.3,0.6-0.2,1.5-0.8,1.9c0-0.2-0.2-0.1-0.3-0.1c0.1,0.2-0.3,0.1,0,0.3c0.2,0,0.3,0.1,0.4-0.1c0,0.4-0.2,1-0.5,1.2
				c0.1-0.1,0.2,0,0.2,0.1c-0.3-0.1-0.5,0.1-0.4,0.4l0.2,0.1l-0.2,0.1c0,0.1,0.4,0.2,0.1,0.4l-0.2,0c0.1,0.3,0.2,0.7,0,0.9l-0.4,0.1
				c0,0.1,0.1,0.4,0.3,0.2c-0.3,0.4-0.4,0.6-0.7,0.7c0.4,0.9,0,2-0.3,2.9l-0.1-0.1c-0.2,0.2,0.2,0.2,0.1,0.3
				c-0.1-0.1-0.4,0.1-0.5-0.2c-0.3,0.3,0.1,0.5,0.1,0.7c0.2,0.1-0.1-0.2,0.2-0.1c0.1,0.1-0.3,0.4,0,0.6c-0.1,0-0.3-0.1-0.4-0.2
				l0.1,0.2c-0.4,0.1-0.4-0.8-0.9-0.6l0,0.2c-0.4,0.1-0.2-0.6-0.4-0.2c0.1,0.3,0.4,0.6,0.6,0.4c-0.1,0.4,0.6,0.4,0.5,0.9
				c-0.2,0.1,0.1-0.4-0.2-0.4c-0.3,0.1,0,0.5-0.2,0.6c0.2-0.2,0.4,0.1,0.4,0.3c-0.2,0.2-0.2-0.2-0.4,0.1c0.2,0.1,0.2,0.5,0.4,0.2
				c0.3,0.2-0.2,0.3,0,0.6c-0.3,0-0.5-0.5-0.8-0.2c0.3,0,0.2,0.6,0.7,0.5c-0.1,0.1-0.3,0.1-0.5-0.1c-0.2,0.1,0.3,0.6-0.2,0.5
				l0.2,0.2l-0.4,0.2c-0.1,0.2,0.2,0.7-0.2,0.5c0,0.1-0.1,0.5,0.2,0.4c0.2-0.2-0.1-0.4,0.3-0.4c-0.4,0.1-0.1,0.4,0,0.6l-0.2,0
				c0,0.1-0.1,0.3,0.1,0.4c-0.1-0.1-0.2-0.1-0.2,0l0.2,0.2c0,0.4-0.4-0.1-0.5,0.3l-0.1-0.3c0,0.1-0.2,0.1-0.2,0.3l0.6,0.4
				c0,0.2-0.3,0-0.1,0.3l-0.2-0.3c-0.1-0.1-0.4,0.1-0.5,0.3c0,0.2,0.2,0.5,0.5,0.3c0,0.1-0.2,0.3-0.4,0.1c0,0.3,0.2,0,0.3,0.3
				c-0.2,0.1-0.5,0.3-0.8,0.4l-0.3-0.4l-0.1,0.2c-0.2-0.3-0.3,0-0.5-0.2c-0.1,0.1,0,0.3,0,0.4c0.6-0.2,0.5,0.6,1,0.7
				c0,0.5-1.2-0.1-0.6,0.7c0.1,0,0.4,0.3,0.4,0c-0.1,0.3,0.4,0.3,0.1,0.6c-0.1-0.3-0.5,0.1-0.7-0.3c0.1,0.1,0.2-0.2,0.2-0.2
				c-0.2,0.1-0.4-0.2-0.5,0.1c0,0.2-0.1,0.5,0.1,0.5c0.3,0.1,0.1-0.3,0.3-0.1c0,0.4-0.4,0.3,0,0.6c0-0.2,0.3-0.2,0.5-0.2l0,0.3
				L931,897c-0.3,0.4,0.3,0.2,0.1,0.6l-0.4,0.1c-0.3-0.2,0.3-0.6-0.2-0.7c-0.1,0.3,0.1,0.4-0.1,0.7l0-0.2c0,0.1-0.7,0-0.5,0.5
				c0.1,0.3,0.1,0.1,0.3,0.2c-0.1,0.5,0,0.7,0,0.9c-0.3-0.2-0.2,0.5-0.4,0.1c0.2-0.1,0.4-0.7,0.2-1c-0.5,0,0.2-0.3-0.2-0.6
				c-0.1,0.4-0.5,0.2-0.8,0.2l0.1,0.3c0.2,0.1,0.3,0,0.5,0.1c-0.2,0.4-0.2,0.8,0,1.1c-0.2,0.1-0.4,0-0.4-0.2c-0.1,0.5-0.3,1-0.5,1.4
				c0.5-0.2-0.1,0.5,0.3,0.4c0.2-0.2,0.5-0.3,0.7-0.1c-0.1,0.1-0.2-0.1-0.3,0c0.2,0.3-0.4,0.2-0.2,0.5c0-0.5-0.5-0.2-0.7-0.4
				c0.1,0.4-0.2-0.1-0.3,0.2l0,1.2c-0.4,0.3-0.4,1.1-0.5,1.5c-0.2,0.1-0.5-0.1-0.7,0.1c-0.1,0.3,0.4-0.1,0.2,0.3l-0.1-0.1
				c0,0.1-0.5,0.6,0,0.9l-0.3-0.2c-0.1,0.1,0,0.2,0,0.2c-0.1,0-0.3,0-0.3-0.1c-0.3,0.1-0.1,0.5-0.2,0.8l0.3-0.1
				c0,0.5-0.3,0.7-0.3,1.2l-0.2-0.1l0,0.3c-0.2-0.1-0.4,0.1-0.3,0.2l-0.3-0.8c0.2-0.1,0.2,0.3,0.5,0.2c0.2,0,0.3-0.4,0.1-0.6l0,0.3
				c-0.3,0-0.2-0.3-0.4-0.5c0,0.1-0.1,0.2-0.1,0.2c-0.1-0.2-0.1-0.4,0-0.6c0.1,0.2,0.2,0,0.3,0.1c-0.3-0.1-0.3-0.4-0.1-0.7
				c0.4-0.1,0-0.7,0.2-1c0.2,0.2,0.4,0.5,0.4,0.8c0.2-0.2,0.1-0.3,0.3-0.4c-0.2-0.2-0.5-0.4-0.5-0.7l0.2,0c0-0.3-0.3-0.4-0.1-0.7
				c0.3-0.6,0.5-1.2,0.7-1.6l0.2,0c-0.4-0.4,0.1-0.9,0-1.3c0.4-0.5,0.2-1.3,0.7-1.5c0.2-1.1,0.3-2,0.7-3.1l0.2,0.3
				c-0.2-0.3,0.2-0.1,0.2-0.3c-0.3,0.1-0.2-0.4-0.4-0.5c0.4-0.4,0.3-1.1,0.3-1.6l0.2,0c-0.2-0.5,0.3-0.9,0.5-1.4
				c0.1,0,0.3-0.1,0.4-0.2c-0.2-0.4-0.2-0.5-0.2-1c0.1-0.3,0.3-0.8,0.6-1c-0.1-1.3,0.6-2.4,0.7-3.7l0.3,0c-0.1-1.3,0.8-2.6,0.9-3.7
				l0.4,0.2c0.2-0.3,0.1-0.7-0.2-0.8c0.2-0.3,0.1-0.8,0.5-0.9c0.2-0.3-0.1-0.5,0-0.7c0.4-0.6,0.4-0.8,0.5-1.5l-0.1,0.1
				c0.1,0.1,0.2,0.2,0.3,0c0-0.3,0.4-0.8-0.2-0.7c0.5-0.5,0.3-1.6,0.8-2.1c-0.2,0-0.1-0.2-0.2-0.3c0.2-0.6,0.6-1.1,0.6-1.6
				c0.1-0.1,0.2,0.2,0.3,0c0-0.2-0.2-0.1-0.2-0.3c0.1-1,0.9-1.8,1.1-2.6c0.2-1.6,0.9-3.1,1.3-4.5l0.1,0c-0.2-0.6,0.7-1,0.3-1.5
				c0.1-0.1,0.2-0.4,0.3-0.3c-0.1-0.5,0.6-1,0.4-1.6l0,0.2c0.4-0.5,0.3-1.1,0.6-1.6l0.1,0.2c0.3-0.2-0.2-0.7,0.3-0.6
				c0-0.1-0.2-0.2-0.2-0.1c0.6-1.2,0.7-2.7,1.1-4c0.6-0.9,0.8,0.2,0.7-0.7c0.1,0-0.2-0.1-0.1-0.1c0-0.3,0.7-0.3,0.5-0.6
				c-0.3,0-0.1-0.2-0.3-0.3c0.4-0.5,0.7-0.5,0.6-1.1l0.1,0.1c-0.3-0.7,0.2-1.2-0.2-1.8c0.9-3,1.5-5.9,2.4-8.8c1-2.8,1.7-5.7,2.9-8.5
				c0.6-0.5,0.6-0.6,0.7-1.4l0.1,0.1c-0.3-0.1,0.1-0.5-0.1-0.7c0.4-1,0.6-2.1,1-3.2c0,0.2,0.2,0.4,0.3,0.1l-0.1-0.3l0.1,0
				c0-0.2-0.1-0.4-0.3-0.3c0.6-2.9,2.2-5.4,3-8.1c0.3-0.6,0.5-1.6,0.7-2.3c1.1-1.9,2.1-3.7,2.5-5.9
				C954.7,813.8,955.5,814.3,955.4,815.3z"/>
			<path class="st7" d="M925,907.2c0.2,0,0.4-0.2,0.5,0C925.3,907.2,925.1,907.2,925,907.2z"/>
			<path class="st7" d="M928.8,901.3c0,0,0.1-0.1,0.1-0.1c0,0.1,0.1,0.2,0,0.2L928.8,901.3z"/>
			<path class="st7" d="M929.4,899.7c0.1,0.1,0.1,0.5,0.1,0.7L929.4,899.7z"/>
			<path class="st7" d="M930.5,898.3c0.2-0.1,0.2,0,0.2,0.1L930.5,898.3z"/>
			<path class="st7" d="M930.2,898.1l0.2-0.2C930.4,897.9,930.5,898.2,930.2,898.1z"/>
			<path class="st7" d="M931.8,894.9c0-0.1,0-0.3,0.1-0.3C931.8,894.7,932,895.1,931.8,894.9z"/>
			<path class="st7" d="M932,893.3l0-0.1c0.1-0.1,0.2,0.1,0.2,0.1L932,893.3z"/>
			<polygon class="st7" points="940.7,865 940.7,865.2 940.6,865.1 			"/>
			<path class="st7" d="M944.7,852.7c0-0.2,0.2-0.1,0.2-0.1C944.9,852.7,944.8,852.5,944.7,852.7z"/>
			<polygon class="st7" points="946.2,845.8 946.2,845.9 945.9,845.7 			"/>
		</g>
		<g>
			<path class="st7" d="M942.9,913.3c0,0.4,0.3-0.1,0,0.3C942.9,913.5,942.8,913.4,942.9,913.3z"/>
			<path class="st7" d="M973,820.9c0.4,1.4-0.8,2.6-0.7,3.9c0,0.2-0.4-0.2-0.4,0.2c0.2,1.4-0.7,3.1-1.7,4.4l-0.1-0.1
				c-0.2,0.2,0.1,0.7,0,1c-0.1,0-0.1-0.1-0.2-0.1c0.2,0.2-0.1,0.6,0.1,0.7c-0.1,0.1-0.3,0-0.5,0.1l0.2,0.3c0.5,0.7-0.4,1.1-0.3,1.8
				c0-0.1-0.1-0.1-0.2-0.1c0.1,1.1-0.4,2.4-0.6,3.6c-0.1-0.1-0.2-0.2-0.4-0.1c0.3,0.1,0.2,0.5,0.2,0.8c-0.3,0,0.1,0.6-0.2,0.9
				l-0.1-0.1c0.2,0.4-0.3,0.3,0,0.7l-0.3,0.1c0.4,0.3-0.3,0.3-0.2,0.6l0.1,0c0,0.2-0.2,0.3-0.2,0.5l-0.1,0c0,0.5-0.3,0.7,0,0.8
				c-0.3,0.1,0-0.5-0.4-0.3c-0.1,1.6-0.7,3-1.2,4.5c-0.2,0.1-0.3,0.2-0.4,0.2c0,0.2-0.1,0.6,0,0.8c0-0.1-0.2,0-0.2,0.1
				c-0.2,0.2,0.3,0.4,0,0.7c0-0.1-0.1-0.2-0.3-0.2c0.2,0.3,0,0.7,0,1l-0.2-0.2c0.2,0.4-0.2,0.6-0.2,0.9l-0.2-0.2
				c-0.4,0.4,0.3,0.3,0.1,0.6c0-0.1-0.1-0.1-0.2-0.1c0.2,0.5-0.1,1-0.1,1.4l-0.1,0c-0.1,0.4-0.3,0.8-0.3,1.3
				c-0.1,0.1-0.4-0.2-0.5,0.2c0.4,0.1-0.1,0.8,0.4,0.7c-0.2,0.3-0.5,0.9-0.5,1.2c-0.1-0.2-0.5,0-0.4-0.3l-0.3,0.2
				c-0.1-0.1,0.1-0.2-0.1-0.2c0,0.2,0,0.6-0.1,0.8c0.1,0.4,0.5,0.7,0.4,1.2c-0.1-0.3-0.5,0-0.5-0.2l0.5,0.9c0,0.2-0.3-0.1-0.3,0.2
				l0.2,0.2c-0.1,0-0.1,0.7-0.5,0.6c-0.2,0,0-0.3-0.2-0.1c-0.1,0.3,0,0.3,0,0.6l0,0c-0.1,0.2,0,0.6,0.2,0.5c0.1-0.1-0.2,0-0.1-0.2
				c0.2,0.2,0.1,0.5,0,0.8l-0.2-0.2c0.2,0.5,0.1,0.9,0.1,1.3c0.2,0.1-0.3-0.3-0.2-0.3c-0.4,0.5,0,1.2-0.5,1.5c0-0.1,0.3,0,0.2,0
				c-0.1,0.3-0.4,0.2-0.3,0.4c-0.2,0,0,0.2,0,0.4c0.1,0.1-0.1,0-0.1-0.1c0,0.3,0,1.3-0.4,1.8c0.1,0,0.2,0.5,0.2,0.6l-0.2-0.1
				c-0.2,0.1-0.1,0.4-0.3,0.4c0.2,0.4,0.1-1.1,0.2-0.7c-0.2,0,0.2,0.6-0.1,0.5c-0.1,0.3,0.1,0.6-0.2,0.8c0.1-0.1-0.2-0.3-0.3-0.1
				c-0.1,0.4,0.1,0.1,0.1,0.5l0,0.2c0.2,0.1-0.1,0.3,0.2,0.3c-0.2,0-0.1,0.6-0.4,0.4l-0.3-0.1c0,0.2,0.2,0.4,0.3,0.5l-0.2,0
				c0.4,0.2-0.2,0.4,0.1,0.7c-0.3,0.3-0.3,0.8-0.6,0.9c0.1,0.3,0.1,0.6,0,0.8l-0.1-0.2c-0.2,0.1-0.1,0.2-0.1,0.4
				c-0.1-0.1-0.4,0.3-0.6,0.4c0,0.3,0.3,0.3,0.5,0.4c-0.5,0.1,0.1,0.8-0.4,1c0-0.1-0.1-0.4-0.3-0.3c-0.5,0.1,0.2,0.6-0.2,0.9l0.4,0
				c-0.3,0.1,0,0.6-0.3,0.5c0.1,0.2-0.3,0.4,0.1,0.5c-0.5,0.5-0.3,1.5-1.1,1.7c0,0.1-0.1,0.3,0.1,0.3c0.2-0.1-0.1-0.3,0.1-0.3
				l0.1,0.2c-0.1,0.2-0.2,0.3-0.5,0c-0.4,0.3,0.5,0.6,0.2,1.1c-0.1-0.1-0.2-0.1-0.2,0.1l0.2,0.4c-0.2,0.3-0.4,0.1-0.7,0
				c0,0.2-0.1,0.4,0.1,0.6l-0.4,0.1c0.3-0.1,0.1,0.2,0.1,0.3l0-0.1c-0.1,0-0.1,0.2-0.1,0.4c0.2,0,0.3-0.2,0.4-0.3l0.1,0.4
				c-0.2-0.1-0.3,0.2-0.3,0.4c-0.1,0.1,0.2,0.3,0.1,0.3c-0.1,0-0.1,0.3-0.3,0.1c0-0.1,0.2-0.1,0.1-0.2c-0.1,0.1-0.3,0-0.3,0.3
				c0.1,0.2,0.5,0.1,0.2,0.4l-0.2-0.3l-0.2,0.3l0.2,0.1l-0.1,0c0.2,0.2-0.1,0.5,0.2,0.7c0,0.2-0.3,0.3-0.3,0.4l0,0
				c-0.2,0.1-0.2,0.4-0.1,0.6l0,0c0,0.1-0.1,0.3,0,0.5c-0.2,0.2-0.9-0.2-0.7,0.2c-0.1,0.3,0.3,0.5,0.5,0.5c-0.3,0.4-0.1,1.1-0.6,1.4
				c0.1,0.1,0.1,0.1,0.1,0.2c-0.3,0.6-0.2,1.5-0.8,1.9c0-0.2-0.2-0.1-0.4-0.1c0.2,0.2-0.3,0.1,0.1,0.3c0.2,0,0.3,0.1,0.4-0.1
				c0,0.4-0.2,1.1-0.5,1.2c0.1-0.1,0.2,0,0.2,0.1c-0.3-0.1-0.5,0.1-0.4,0.4l0.2,0.1l-0.3,0.1c0,0.1,0.4,0.2,0.1,0.4l-0.2,0
				c0.1,0.3,0.3,0.7,0,0.9l-0.4,0.1c0,0.1,0.1,0.4,0.3,0.2c-0.3,0.4-0.4,0.6-0.7,0.7c0.4,0.9,0,2-0.3,2.9l-0.1-0.1
				c-0.2,0.2,0.2,0.2,0.1,0.3c-0.1-0.1-0.4,0.1-0.5-0.2c-0.3,0.3,0.1,0.5,0.1,0.7c0.2,0.1-0.1-0.2,0.2-0.1c0.1,0.1-0.3,0.4,0,0.6
				c-0.1,0-0.3-0.1-0.4-0.2l0.1,0.2c-0.4,0.1-0.4-0.8-0.9-0.6l0,0.2c-0.4,0.1-0.2-0.6-0.4-0.2c0.1,0.2,0.4,0.6,0.6,0.4
				c-0.1,0.4,0.6,0.4,0.5,0.9c-0.2,0.1,0.1-0.4-0.2-0.4c-0.3,0.1,0,0.5-0.2,0.6c0.2-0.2,0.4,0.1,0.4,0.3c-0.2,0.2-0.2-0.2-0.4,0.1
				c0.2,0.1,0.2,0.4,0.4,0.2c0.3,0.2-0.2,0.3,0,0.6c-0.3,0-0.5-0.5-0.8-0.2c0.3,0,0.2,0.6,0.7,0.5c-0.1,0.1-0.3,0.1-0.5-0.1
				c-0.2,0.1,0.3,0.6-0.2,0.5l0.2,0.2l-0.4,0.2c-0.1,0.2,0.2,0.7-0.2,0.5c0,0.1-0.1,0.5,0.2,0.4c0.2-0.2-0.1-0.4,0.3-0.4
				c-0.4,0.1-0.1,0.4,0,0.6l-0.2,0c0,0.1-0.1,0.3,0.1,0.4c-0.1-0.1-0.2-0.1-0.2,0l0.2,0.2c0,0.4-0.4-0.1-0.5,0.3l-0.1-0.3
				c0,0.1-0.2,0.1-0.2,0.3l0.6,0.4c0,0.2-0.3,0-0.1,0.3l-0.2-0.3c-0.1-0.1-0.4,0.1-0.5,0.3c0,0.2,0.2,0.5,0.5,0.3
				c0,0.1-0.2,0.3-0.4,0.1c0,0.3,0.2,0,0.3,0.3c-0.2,0.1-0.5,0.3-0.8,0.4l-0.3-0.4l-0.1,0.2c-0.2-0.3-0.3,0-0.5-0.2
				c-0.1,0.1,0,0.3,0,0.4c0.6-0.2,0.5,0.6,1,0.6c0,0.5-1.2,0-0.6,0.7c0.1,0,0.4,0.3,0.4,0c-0.1,0.3,0.4,0.3,0.1,0.6
				c-0.1-0.3-0.5,0.1-0.7-0.3c0.1,0.1,0.2-0.2,0.2-0.2c-0.2,0.1-0.4-0.2-0.5,0.1c0,0.2-0.1,0.5,0.1,0.5c0.3,0.1,0.1-0.3,0.3-0.1
				c0,0.4-0.4,0.3,0,0.6c0-0.2,0.3-0.2,0.5-0.2l0,0.3l-0.2-0.1c-0.3,0.4,0.3,0.2,0.1,0.6l-0.4,0.1c-0.3-0.2,0.3-0.6-0.2-0.7
				c-0.1,0.3,0.1,0.4-0.1,0.7l0-0.2c0,0.1-0.7,0-0.5,0.5c0.1,0.3,0.1,0.1,0.3,0.2c-0.1,0.5,0,0.7,0,1c-0.3-0.2-0.2,0.5-0.4,0.1
				c0.2-0.1,0.4-0.7,0.2-1c-0.5,0,0.2-0.3-0.2-0.6c-0.1,0.4-0.5,0.2-0.8,0.2l0.1,0.3c0.2,0.1,0.3,0,0.5,0.1c-0.2,0.4-0.2,0.8,0,1.1
				c-0.2,0.1-0.4,0-0.4-0.2c-0.1,0.5-0.3,1-0.5,1.4c0.5-0.2-0.1,0.5,0.3,0.4c0.2-0.2,0.5-0.3,0.7-0.1c-0.1,0.1-0.2-0.1-0.3,0
				c0.2,0.3-0.4,0.2-0.2,0.5c0-0.5-0.5-0.2-0.8-0.4c0.1,0.4-0.2-0.1-0.3,0.2l0,1.2c-0.4,0.3-0.4,1.1-0.5,1.5
				c-0.2,0.2-0.5-0.1-0.7,0.1c-0.1,0.3,0.4-0.1,0.2,0.3l-0.1-0.1c0,0.1-0.5,0.6,0,0.9l-0.3-0.2c-0.1,0.1,0,0.2,0,0.2
				c-0.1,0-0.3,0-0.3-0.1c-0.3,0.1-0.1,0.5-0.2,0.8l0.3-0.1c0,0.5-0.3,0.7-0.3,1.2l-0.2-0.1l0,0.3c-0.2-0.1-0.4,0.1-0.3,0.2
				l-0.3-0.8c0.2-0.1,0.2,0.3,0.5,0.2c0.2,0,0.3-0.4,0.1-0.6l0,0.3c-0.3-0.1-0.2-0.3-0.4-0.5c0,0.1-0.1,0.2,0,0.2
				c-0.1-0.2-0.1-0.4,0-0.6c0.1,0.2,0.2,0,0.3,0.1c-0.3-0.1-0.3-0.4-0.1-0.7c0.4-0.1,0-0.7,0.2-1c0.2,0.2,0.4,0.5,0.4,0.8
				c0.2-0.2,0.1-0.3,0.3-0.4c-0.2-0.2-0.5-0.4-0.5-0.7l0.2,0c0-0.3-0.3-0.4-0.1-0.7c0.3-0.6,0.5-1.2,0.7-1.6l0.2,0
				c-0.4-0.4,0.1-0.9,0-1.3c0.4-0.5,0.2-1.3,0.7-1.5c0.2-1.1,0.3-2,0.7-3.1l0.2,0.3c-0.2-0.3,0.2-0.1,0.2-0.3
				c-0.3,0.1-0.2-0.4-0.4-0.5c0.4-0.4,0.3-1.1,0.3-1.6l0.2,0c-0.2-0.5,0.3-0.9,0.5-1.4c0.1,0,0.3-0.1,0.4-0.2
				c-0.2-0.4-0.2-0.5-0.2-1c0.1-0.3,0.3-0.8,0.6-1c-0.1-1.3,0.6-2.4,0.7-3.7l0.3,0c-0.1-1.3,0.8-2.6,0.8-3.7l0.4,0.2
				c0.2-0.3,0.1-0.7-0.2-0.8c0.2-0.3,0.1-0.8,0.5-0.9c0.2-0.3-0.1-0.4,0-0.7c0.4-0.6,0.4-0.8,0.5-1.5l-0.1,0.1
				c0.1,0.1,0.2,0.2,0.3,0c0-0.3,0.4-0.8-0.2-0.7c0.5-0.6,0.3-1.6,0.8-2.1c-0.2,0-0.1-0.2-0.2-0.3c0.2-0.6,0.6-1.1,0.6-1.6
				c0.1-0.1,0.2,0.2,0.3,0c0-0.2-0.2-0.1-0.2-0.3c0-1,0.9-1.8,1.1-2.6c0.2-1.6,0.8-3.1,1.3-4.5l0.1,0c-0.2-0.6,0.7-1,0.3-1.5
				c0.1-0.1,0.2-0.4,0.3-0.3c-0.1-0.5,0.6-1,0.4-1.6l0,0.1c0.4-0.5,0.3-1.1,0.6-1.6l0.1,0.2c0.3-0.2-0.2-0.7,0.3-0.6
				c0-0.1-0.2-0.2-0.2-0.1c0.6-1.2,0.7-2.7,1.1-4c0.6-0.9,0.8,0.2,0.7-0.7c0.1,0-0.2-0.1-0.1-0.1c0-0.3,0.7-0.3,0.5-0.6
				c-0.3,0-0.1-0.2-0.3-0.2c0.4-0.5,0.7-0.6,0.6-1.1l0.1,0.1c-0.3-0.7,0.2-1.2-0.2-1.8c0.9-3,1.5-5.9,2.4-8.8c1-2.8,1.7-5.7,2.9-8.5
				c0.6-0.5,0.6-0.6,0.7-1.4l0.1,0.1c-0.3-0.1,0.1-0.5-0.2-0.7c0.4-1,0.6-2.1,1-3.2c0,0.2,0.2,0.4,0.3,0.1l-0.1-0.3l0.1,0
				c0-0.2-0.1-0.4-0.3-0.3c0.6-2.9,2.2-5.4,2.9-8.1c0.3-0.6,0.5-1.6,0.7-2.3c1.1-1.9,2.1-3.7,2.4-5.9
				C972.3,819.4,973.1,819.9,973,820.9z"/>
			<path class="st7" d="M943,912.9c0.2,0,0.4-0.2,0.5,0C943.4,912.9,943.2,913,943,912.9z"/>
			<path class="st7" d="M946.8,907c0,0,0.1-0.1,0.1-0.1c0,0.1,0.1,0.2,0,0.2L946.8,907z"/>
			<path class="st7" d="M947.4,905.4c0.1,0.1,0.1,0.5,0.1,0.7L947.4,905.4z"/>
			<path class="st7" d="M948.5,904.1c0.2-0.1,0.2,0,0.2,0.1L948.5,904.1z"/>
			<path class="st7" d="M948.2,903.8l0.3-0.2C948.4,903.6,948.5,904,948.2,903.8z"/>
			<path class="st7" d="M949.7,900.7c0-0.1,0-0.3,0.1-0.3C949.7,900.4,949.9,900.8,949.7,900.7z"/>
			<path class="st7" d="M950,899l0-0.1c0.1-0.1,0.2,0.1,0.2,0.1L950,899z"/>
			<polygon class="st7" points="958.5,870.7 958.6,870.9 958.4,870.8 			"/>
			<path class="st7" d="M962.5,858.3c0-0.2,0.2-0.1,0.2-0.1C962.7,858.4,962.6,858.1,962.5,858.3z"/>
			<polygon class="st7" points="963.9,851.5 963.9,851.5 963.6,851.4 			"/>
		</g>
		<g>
			<path class="st7" d="M960.1,918.8c0,0.4,0.3-0.1,0,0.3C960.1,919,960,918.9,960.1,918.8z"/>
			<path class="st7" d="M989.8,826.2c0.4,1.4-0.8,2.6-0.7,3.9c0,0.2-0.4-0.2-0.4,0.2c0.2,1.4-0.7,3.1-1.6,4.4l-0.1-0.1
				c-0.2,0.2,0.1,0.7,0,1c-0.1,0-0.1-0.1-0.2-0.1c0.2,0.1-0.1,0.6,0.1,0.7c-0.1,0.1-0.3,0-0.5,0.1l0.2,0.3c0.5,0.7-0.4,1.1-0.3,1.8
				c-0.1,0-0.1-0.1-0.2-0.1c0.1,1.1-0.4,2.4-0.6,3.6c-0.1-0.1-0.2-0.2-0.4-0.1c0.3,0.1,0.2,0.5,0.2,0.8c-0.3,0,0.1,0.6-0.2,0.9
				l-0.1-0.1c0.2,0.4-0.3,0.3,0,0.7l-0.3,0.1c0.4,0.3-0.3,0.3-0.2,0.6l0.1,0c0,0.2-0.2,0.3-0.2,0.5l-0.1,0c0,0.5-0.3,0.7,0,0.8
				c-0.3,0.1,0-0.5-0.4-0.3c-0.1,1.6-0.7,3.1-1.1,4.5c-0.2,0.1-0.3,0.2-0.4,0.2c0,0.2-0.1,0.6,0,0.8c0-0.1-0.2,0-0.2,0.1
				c-0.2,0.2,0.3,0.4,0,0.7c0-0.1-0.1-0.2-0.3-0.2c0.2,0.3,0,0.7,0,1l-0.2-0.2c0.2,0.4-0.2,0.6-0.2,0.9l-0.2-0.2
				c-0.4,0.4,0.3,0.3,0.1,0.6c0-0.1-0.1-0.1-0.2-0.1c0.2,0.5-0.1,1-0.1,1.4l-0.1,0c-0.1,0.4-0.3,0.8-0.3,1.3
				c-0.1,0.1-0.4-0.2-0.5,0.2c0.4,0.1-0.1,0.8,0.4,0.7c-0.2,0.3-0.5,0.9-0.5,1.2c-0.1-0.2-0.5,0-0.4-0.3l-0.3,0.2
				c-0.1-0.1,0.1-0.2-0.1-0.2c0,0.2,0,0.6-0.1,0.8c0.1,0.4,0.5,0.7,0.4,1.2c-0.1-0.3-0.4,0-0.5-0.2l0.5,0.9c0,0.2-0.3-0.1-0.3,0.2
				l0.2,0.2c-0.1,0-0.1,0.7-0.5,0.6c-0.2,0,0-0.3-0.2-0.1c-0.1,0.3,0,0.3,0,0.6l-0.1,0c-0.1,0.2,0,0.6,0.3,0.5
				c0.1-0.1-0.2,0-0.1-0.2c0.2,0.2,0.1,0.5,0,0.8l-0.2-0.2c0.2,0.5,0.1,0.9,0.1,1.3c0.2,0.1-0.3-0.3-0.2-0.3c-0.4,0.5,0,1.2-0.5,1.5
				c0-0.1,0.3,0,0.2,0c-0.1,0.2-0.4,0.2-0.3,0.4c-0.2,0,0,0.2,0,0.4c0.1,0.1-0.1,0-0.1-0.1c0,0.3,0,1.3-0.4,1.8
				c0.1,0,0.3,0.5,0.2,0.6l-0.2-0.1c-0.2,0.1-0.1,0.4-0.3,0.4c0.2,0.4,0.1-1.1,0.2-0.7c-0.2,0,0.2,0.6-0.1,0.5
				c-0.1,0.3,0.1,0.6-0.2,0.8c0.1-0.1-0.3-0.3-0.3-0.1c-0.1,0.4,0.1,0.1,0.1,0.5l0,0.2c0.2,0.1-0.1,0.3,0.2,0.3
				c-0.2,0-0.1,0.6-0.4,0.4l-0.3-0.1c0,0.2,0.2,0.4,0.3,0.5l-0.1,0c0.4,0.2-0.2,0.4,0.1,0.7c-0.3,0.3-0.3,0.8-0.6,0.9
				c0.1,0.3,0.1,0.6,0,0.8l-0.1-0.2c-0.2,0.1-0.1,0.2-0.1,0.4c-0.1-0.1-0.4,0.3-0.6,0.4c0,0.3,0.3,0.3,0.5,0.4
				c-0.5,0.1,0.1,0.8-0.4,1c0-0.1-0.1-0.4-0.3-0.3c-0.5,0.1,0.2,0.6-0.2,0.9l0.4,0c-0.3,0.1,0,0.6-0.3,0.5c0.1,0.2-0.3,0.4,0.1,0.5
				c-0.5,0.5-0.3,1.5-1.1,1.7c0,0.1-0.1,0.3,0.1,0.3c0.2-0.1-0.1-0.3,0.1-0.3l0.1,0.2c-0.1,0.2-0.2,0.3-0.5,0
				c-0.4,0.4,0.5,0.6,0.2,1.1c-0.1-0.1-0.2,0-0.2,0.1l0.2,0.4c-0.2,0.3-0.4,0.1-0.7,0c0,0.2-0.1,0.4,0.1,0.6l-0.4,0.1
				c0.3-0.1,0.1,0.2,0.1,0.3l0-0.1c-0.1,0-0.1,0.2-0.1,0.4c0.2,0,0.3-0.2,0.4-0.3l0.1,0.4c-0.2-0.1-0.3,0.2-0.3,0.4
				c-0.1,0.2,0.2,0.3,0.1,0.3c-0.1,0-0.1,0.3-0.2,0.1c0-0.1,0.2-0.1,0.1-0.2c-0.1,0.1-0.3,0-0.3,0.3c0.1,0.2,0.5,0.1,0.2,0.4
				l-0.2-0.3l-0.2,0.3l0.2,0.1H973c0.2,0.2-0.1,0.5,0.2,0.7c0,0.2-0.3,0.3-0.3,0.4l0,0c-0.2,0.1-0.2,0.4-0.1,0.6l0,0
				c0,0.1-0.1,0.3,0,0.5c-0.3,0.2-0.9-0.2-0.7,0.2c-0.1,0.3,0.3,0.5,0.5,0.5c-0.3,0.4-0.1,1.1-0.6,1.4c0.1,0.1,0.1,0.1,0.1,0.2
				c-0.3,0.6-0.2,1.5-0.8,1.9c0-0.2-0.2-0.1-0.4-0.1c0.1,0.2-0.3,0.1,0.1,0.3c0.2,0,0.3,0.1,0.4-0.1c0,0.4-0.2,1.1-0.5,1.2
				c0.1-0.1,0.2,0,0.2,0.1c-0.3-0.1-0.5,0.1-0.4,0.4l0.2,0.1l-0.2,0.1c0,0.1,0.4,0.2,0.1,0.4l-0.2,0c0.1,0.3,0.3,0.7,0,0.9l-0.4,0.1
				c0,0.1,0.1,0.4,0.3,0.2c-0.3,0.4-0.4,0.7-0.7,0.7c0.4,0.9,0.1,2-0.3,2.9l-0.1-0.1c-0.2,0.2,0.2,0.2,0.1,0.3
				c-0.1-0.1-0.4,0.1-0.5-0.2c-0.3,0.3,0.1,0.5,0.1,0.7c0.2,0.1-0.1-0.2,0.2-0.1c0.1,0.1-0.3,0.4,0,0.6c-0.1,0-0.3-0.1-0.4-0.2
				l0.1,0.3c-0.4,0.1-0.4-0.8-0.9-0.6l0,0.2c-0.4,0.1-0.2-0.6-0.4-0.2c0.1,0.2,0.4,0.6,0.6,0.4c-0.1,0.4,0.6,0.4,0.5,0.9
				c-0.2,0.1,0.1-0.4-0.2-0.4c-0.3,0.1,0,0.5-0.1,0.6c0.2-0.2,0.4,0.1,0.4,0.3c-0.2,0.2-0.2-0.2-0.4,0.1c0.2,0.1,0.2,0.4,0.4,0.2
				c0.3,0.2-0.2,0.3,0,0.6c-0.3,0-0.5-0.5-0.8-0.2c0.3,0,0.2,0.6,0.7,0.5c-0.1,0.1-0.3,0.1-0.5-0.1c-0.2,0.2,0.3,0.6-0.2,0.5
				l0.2,0.2l-0.4,0.2c-0.1,0.2,0.2,0.7-0.2,0.5c0,0.1-0.1,0.5,0.2,0.4c0.3-0.2-0.1-0.4,0.3-0.4c-0.4,0.1-0.1,0.4,0,0.6l-0.2,0
				c0,0.1-0.1,0.3,0.1,0.4c-0.1-0.1-0.2-0.1-0.2,0l0.2,0.2c0,0.4-0.4,0-0.5,0.3l-0.1-0.3c0,0.1-0.2,0.1-0.2,0.3l0.6,0.4
				c0,0.2-0.3,0-0.1,0.3l-0.2-0.3c-0.1-0.1-0.4,0.1-0.5,0.3c0,0.2,0.3,0.5,0.5,0.3c0,0.1-0.2,0.3-0.4,0.1c0,0.3,0.2,0,0.3,0.3
				c-0.2,0.1-0.5,0.3-0.8,0.4l-0.3-0.4l-0.1,0.2c-0.2-0.3-0.3,0-0.5-0.2c-0.1,0.1,0,0.3,0,0.4c0.6-0.2,0.5,0.6,1,0.6
				c0,0.5-1.2,0-0.6,0.7c0.1,0,0.4,0.3,0.4,0c-0.1,0.3,0.4,0.3,0.1,0.6c-0.1-0.3-0.5,0.1-0.7-0.3c0.1,0.1,0.2-0.2,0.2-0.2
				c-0.2,0.1-0.4-0.2-0.5,0.1c0,0.2-0.1,0.5,0.2,0.5c0.3,0.1,0.1-0.3,0.3-0.1c0,0.4-0.4,0.3,0,0.6c0-0.2,0.3-0.2,0.5-0.2l0,0.3
				l-0.2-0.1c-0.3,0.4,0.3,0.2,0.1,0.6l-0.4,0.1c-0.3-0.2,0.3-0.6-0.2-0.7c-0.1,0.3,0.1,0.4-0.1,0.7l0-0.2c0,0.1-0.7,0-0.5,0.5
				c0.1,0.2,0.1,0.1,0.3,0.2c-0.1,0.5,0.1,0.7,0,0.9c-0.3-0.2-0.2,0.5-0.4,0.1c0.2-0.1,0.4-0.7,0.2-1c-0.5,0,0.2-0.3-0.2-0.6
				c-0.1,0.4-0.5,0.2-0.8,0.2l0,0.3c0.2,0.1,0.3,0,0.5,0.1c-0.2,0.4-0.2,0.8,0,1.1c-0.2,0.1-0.4,0-0.4-0.2c-0.1,0.5-0.3,1-0.5,1.4
				c0.5-0.2-0.1,0.5,0.3,0.4c0.2-0.2,0.5-0.3,0.7-0.1c-0.1,0.1-0.2-0.1-0.3,0c0.2,0.3-0.4,0.2-0.2,0.5c0-0.5-0.5-0.2-0.8-0.4
				c0.1,0.4-0.2-0.1-0.3,0.2l0.1,1.2c-0.4,0.3-0.4,1.1-0.5,1.5c-0.2,0.2-0.5-0.1-0.7,0.1c-0.1,0.3,0.4-0.1,0.2,0.3l-0.1-0.1
				c0,0.1-0.5,0.6,0,0.9l-0.3-0.2c-0.1,0.1,0,0.2,0,0.2c-0.1,0-0.3,0-0.3-0.1c-0.3,0.2-0.1,0.5-0.2,0.8l0.3-0.1
				c0,0.5-0.3,0.7-0.3,1.2l-0.2-0.1l0.1,0.3c-0.2-0.1-0.4,0.1-0.3,0.2l-0.3-0.8c0.2-0.1,0.2,0.3,0.5,0.2c0.2,0,0.3-0.4,0.1-0.6
				l0,0.3c-0.3,0-0.2-0.3-0.4-0.5c0,0.1-0.1,0.2,0,0.2c-0.1-0.2-0.1-0.4,0-0.6c0.1,0.2,0.2,0,0.3,0.1c-0.3-0.1-0.3-0.4-0.1-0.7
				c0.4-0.1,0-0.7,0.2-1c0.2,0.2,0.4,0.5,0.4,0.8c0.2-0.2,0.1-0.3,0.3-0.4c-0.2-0.2-0.5-0.4-0.5-0.7l0.2,0.1c0-0.3-0.3-0.4-0.2-0.7
				c0.3-0.6,0.5-1.2,0.7-1.6l0.2,0c-0.4-0.4,0.1-0.9,0-1.3c0.4-0.5,0.2-1.3,0.7-1.5c0.2-1.1,0.3-2,0.7-3.1l0.2,0.3
				c-0.2-0.3,0.2-0.1,0.2-0.3c-0.3,0.1-0.2-0.4-0.4-0.5c0.4-0.4,0.3-1.1,0.3-1.6l0.2,0c-0.3-0.5,0.2-0.9,0.5-1.5
				c0.1,0,0.3-0.1,0.4-0.2c-0.2-0.4-0.2-0.5-0.2-1c0.1-0.3,0.3-0.8,0.6-1.1c-0.1-1.3,0.6-2.4,0.7-3.7l0.3,0
				c-0.1-1.3,0.8-2.6,0.8-3.7l0.4,0.2c0.2-0.3,0.1-0.7-0.2-0.8c0.2-0.3,0-0.8,0.4-0.9c0.2-0.3-0.1-0.5,0-0.7
				c0.4-0.6,0.4-0.8,0.5-1.5l-0.1,0.1c0.1,0.1,0.2,0.2,0.3,0c0-0.3,0.4-0.8-0.2-0.7c0.5-0.6,0.2-1.6,0.8-2.1c-0.1,0-0.1-0.2-0.2-0.2
				c0.2-0.6,0.6-1.1,0.5-1.6c0.1-0.1,0.2,0.2,0.3,0c0-0.2-0.2-0.1-0.2-0.3c0-1,0.8-1.8,1-2.6c0.2-1.6,0.8-3.1,1.2-4.5l0.1,0
				c-0.2-0.6,0.7-1,0.3-1.5c0.1-0.1,0.2-0.4,0.3-0.3c-0.1-0.5,0.6-1,0.4-1.6l0,0.2c0.4-0.5,0.3-1.1,0.6-1.6l0.1,0.2
				c0.3-0.2-0.2-0.7,0.3-0.6c0-0.1-0.2-0.2-0.2-0.1c0.6-1.2,0.7-2.7,1-4c0.6-0.9,0.8,0.2,0.7-0.7c0.1,0-0.2-0.1-0.1-0.1
				c0-0.3,0.7-0.3,0.5-0.6c-0.3,0-0.1-0.2-0.3-0.2c0.4-0.5,0.7-0.6,0.6-1.1l0.1,0.1c-0.3-0.7,0.2-1.2-0.2-1.8c0.9-3,1.5-5.9,2.3-8.8
				c1-2.8,1.7-5.7,2.9-8.5c0.6-0.6,0.6-0.6,0.7-1.4l0.1,0.1c-0.3-0.1,0.1-0.5-0.2-0.7c0.4-1,0.6-2.1,1-3.2c0,0.2,0.2,0.4,0.3,0.1
				l-0.1-0.3l0.1,0c0-0.2-0.1-0.4-0.3-0.3c0.6-2.9,2.1-5.4,2.9-8.1c0.3-0.6,0.5-1.6,0.7-2.3c1.1-1.9,2.1-3.7,2.4-5.9
				C989.1,824.8,989.9,825.3,989.8,826.2z"/>
			<path class="st7" d="M960.2,918.4c0.2,0,0.4-0.2,0.5,0C960.6,918.4,960.4,918.5,960.2,918.4z"/>
			<path class="st7" d="M964,912.5c0,0,0.1-0.1,0.1-0.1c0,0.1,0.1,0.2,0,0.2L964,912.5z"/>
			<path class="st7" d="M964.6,910.9c0.1,0.1,0.1,0.5,0.1,0.7L964.6,910.9z"/>
			<path class="st7" d="M965.7,909.5c0.2-0.1,0.2,0,0.2,0.1L965.7,909.5z"/>
			<path class="st7" d="M965.4,909.3l0.2-0.2C965.5,909.1,965.6,909.4,965.4,909.3z"/>
			<path class="st7" d="M966.9,906.1c0-0.1-0.1-0.3,0.1-0.3C966.9,905.8,967.1,906.2,966.9,906.1z"/>
			<path class="st7" d="M967.2,904.5l0-0.1c0.1-0.1,0.2,0.1,0.2,0.1L967.2,904.5z"/>
			<polygon class="st7" points="975.6,876.1 975.6,876.3 975.4,876.2 			"/>
			<path class="st7" d="M979.5,863.7c0-0.2,0.2-0.1,0.2-0.1C979.7,863.8,979.5,863.5,979.5,863.7z"/>
			<polygon class="st7" points="980.9,856.9 980.9,856.9 980.6,856.8 			"/>
		</g>
	</g>
	<path class="st1" d="M931.3,913.8l-45.5-10l-9.2,30.7c-0.7,2.2-4.4,15.9,2,17.6c3.1,0.8,5.5-1.1,7.2-3.5c0.1,2.9,1,5.7,3.9,6.5
		c2.8,0.7,5-0.7,6.7-2.8c0.3,2.6,1.3,5,3.9,5.6c3.1,0.8,5.5-1.1,7.2-3.5c0.1,2.9,1,5.7,3.9,6.5c6,1.6,9.4-7,10.4-10.1l0,0
		L931.3,913.8z"/>
	<path class="st0" d="M857,606.4c0,0,162.3,27.8,75.9,320.9l-53.4-11.7c0,0,75.2-212.1-27.7-257.2L857,606.4z"/>
	<path class="st8" d="M446.1,764.4c0,0-6.1-39,35.3-51.8c41.4-12.8,58.8,33,58.8,33v-5.5c0,0-16.6-43.3-58.8-31.1
		c-40.9,11.7-37.2,45.5-37.2,45.5L446.1,764.4z"/>
	<path class="st2" d="M543.7,734.9c-22.1-61.7-57.4-58.1-67.6-55.5c-13.2-56.5-12.5-87.8-12.5-87.8l-0.7-10.5
		c-14.5,5.3,0.1,78.4,4.7,100c-11.5,3-36.1,16.3-27.3,75.4c8.3,56.4,37.2,62.9,53.6,59.8l-2-5.7c0,0-37.4,4.9-45.2-56.4
		c-7.9-61.3,27.9-65.9,27.9-65.9s43.3-13.8,62.3,48.8c19,62.6-15.4,66.9-15.4,66.9l2.3,5.9C523.8,810,566.7,799.2,543.7,734.9z"/>
	<circle class="st7" cx="786.9" cy="729.9" r="26.5"/>
	<circle class="st6" cx="786.9" cy="729.9" r="14.6"/>
	<path class="st8" d="M491,814.3c-0.8-3.6,0.1-6.3,3.5-6.9c3.4-0.6,5.7-1,7.1,3.4c1.4,4.4,0.2,6.1-2.3,6.9
		C496.6,818.5,492.1,819.3,491,814.3z"/>
	<path class="st8" d="M517.9,803.2c-3.6,1.1-5.4,3.2-4.3,6.4c1.1,3.2,1.9,5.5,6.5,4.5c4.5-1,5.5-2.8,4.9-5.4
		C524.3,806.1,522.8,801.7,517.9,803.2z"/>
	<path class="st2" d="M832.9,595.2c0,0-2.5,46-50.4,133.4l7.5,4.3c0,0,68.5-118.8,43.7-145.8L832.9,595.2z"/>
</g>
<g>
	<path class="st3" d="M158.9,142.3c-3.7,0-6.8-0.9-9.4-2.6c-2.6-1.8-4.6-4-6-6.8l7.1-5.8c1.1,2.4,2.4,4.1,4,5.1
		c1.5,1.1,3.2,1.6,5,1.6c1.7,0,3-0.4,4-1.2c1-0.8,1.4-2,1.4-3.5c0-1.3-0.4-2.4-1.3-3.3c-0.9-0.9-2-1.6-3.2-2.2l-5-2.2
		c-3.4-1.5-5.9-3.4-7.5-5.5c-1.6-2.1-2.4-4.8-2.4-7.9c0-2.1,0.3-4,1-5.7c0.7-1.7,1.7-3.2,2.9-4.4c1.2-1.2,2.8-2.2,4.5-2.9
		c1.8-0.7,3.7-1,5.8-1c1.9,0,3.8,0.3,5.5,0.8c1.8,0.6,3.3,1.4,4.6,2.6c1.3,1.2,2.4,2.8,3.2,4.7c0.8,1.9,1.2,4.2,1.2,6.9
		c0,0.3,0,0.7,0,1c0,0.3,0,0.7-0.1,1h-9.2c0-0.7,0.1-1.3,0.1-1.9c0-2.1-0.4-3.7-1.2-4.9c-0.8-1.2-2.2-1.8-4.2-1.8
		c-1.6,0-2.9,0.4-3.7,1.3c-0.9,0.9-1.3,2.1-1.3,3.6c0,1.1,0.3,2.1,0.8,3.1c0.6,1,1.7,1.8,3.3,2.7l6,2.8c3.4,1.6,5.8,3.4,7.3,5.5
		c1.4,2.1,2.2,4.4,2.2,7.1c0,4.4-1.4,7.8-4.1,10.2C167.5,141.1,163.7,142.3,158.9,142.3z"/>
	<path class="st3" d="M185.6,94.6h9.2v19.3h14.3V94.6h9.2v47h-9.2v-19.5h-14.3v19.5h-9.2V94.6z"/>
	<path class="st3" d="M236.1,142.2c-1.7,0-3.2-0.6-4.3-1.8c-1.2-1.2-1.7-2.6-1.7-4.1c0-0.8,0.1-1.5,0.4-2.2c0.3-0.7,0.7-1.4,1.3-1.9
		c0.6-0.6,1.2-1,1.9-1.3c0.7-0.3,1.5-0.4,2.4-0.4c0.8,0,1.6,0.2,2.3,0.5c0.7,0.3,1.4,0.7,1.9,1.3c0.6,0.6,1,1.2,1.3,1.9
		c0.3,0.7,0.5,1.4,0.5,2.2c0,0.8-0.2,1.6-0.5,2.3c-0.3,0.7-0.7,1.4-1.3,1.9c-0.6,0.6-1.2,1-1.9,1.3
		C237.7,142,236.9,142.2,236.1,142.2z M231.5,94.6h9.1v32.2h-9.1V94.6z"/>
	<path class="st3" d="M262.2,103.1h-11.6v-8.5H283v8.5h-11.5v38.5h-9.2V103.1z"/>
	<path class="st3" d="M81.2,181h9.2v19.3h14.3V181h9.2v47h-9.2v-19.5H90.4V228h-9.2V181z"/>
	<path class="st3" d="M133.4,228h-9.2v-5.2c0-0.9,0.1-1.8,0.2-2.9c0.1-1.1,0.3-2.1,0.5-3.3c0.2-1.1,0.4-2.2,0.7-3.3
		c0.3-1.1,0.6-2.1,0.9-3.1l10.2-29.3h10.9l10.1,29.4c0.3,0.9,0.6,1.9,0.9,3c0.3,1.1,0.5,2.2,0.7,3.3c0.2,1.1,0.3,2.2,0.5,3.3
		c0.1,1.1,0.2,2,0.2,2.9v5.2h-9.1v-5.2c0-0.7,0-1.4-0.1-2.3c-0.1-0.9-0.2-1.7-0.3-2.5h-16.3c-0.1,0.8-0.3,1.7-0.3,2.5
		c-0.1,0.9-0.1,1.6-0.1,2.3V228z M141.9,190.7l-5.8,19h11.7L141.9,190.7z"/>
	<path class="st3" d="M170,181h13.1c5.5,0,9.8,1.4,12.9,4.2c3.1,2.8,4.6,6.7,4.6,11.7c0,5-1.6,8.9-4.7,11.7c-3.1,2.8-7.5,4.2-13,4.2
		h-3.7V228H170V181z M183.1,204.5c2.6,0,4.7-0.7,6.2-2c1.5-1.3,2.2-3.2,2.2-5.7c0-2.4-0.7-4.2-2.2-5.5c-1.5-1.3-3.5-1.9-6.2-1.9
		h-3.8v15H183.1z"/>
	<path class="st3" d="M210.6,181h13.1c5.5,0,9.8,1.4,12.9,4.2c3.1,2.8,4.6,6.7,4.6,11.7c0,5-1.6,8.9-4.7,11.7
		c-3.1,2.8-7.5,4.2-13,4.2h-3.7V228h-9.2V181z M223.7,204.5c2.6,0,4.7-0.7,6.2-2c1.5-1.3,2.2-3.2,2.2-5.7c0-2.4-0.7-4.2-2.2-5.5
		c-1.5-1.3-3.5-1.9-6.2-1.9h-3.8v15H223.7z"/>
	<path class="st3" d="M251.2,181h26.6v8.5h-17.4v10.8h15.9v8.2h-15.9v10.9h18.1v8.6h-27.3V181z"/>
	<path class="st3" d="M309.5,201.4c1.1,2.3,2.1,4.3,3,6.1c0.9,1.8,1.6,3.4,1.9,4.8l0.3-0.1c-0.2-1.2-0.4-2.9-0.5-5
		c-0.1-2.1-0.1-4.4-0.1-6.8V181h9.1v47h-9.9l-10.2-20.4c-1.1-2.2-2.1-4.2-3-6c-0.9-1.8-1.6-3.4-1.9-4.8l-0.3,0.1
		c0.3,1.2,0.5,2.9,0.5,5c0.1,2.1,0.1,4.4,0.1,6.8V228h-9.2v-47h9.9L309.5,201.4z"/>
	<path class="st3" d="M348.4,228.7c-3.7,0-6.8-0.9-9.4-2.6c-2.6-1.8-4.6-4-6-6.8l7.1-5.8c1.1,2.4,2.4,4.1,4,5.1
		c1.5,1.1,3.2,1.6,5,1.6c1.7,0,3-0.4,4-1.2c1-0.8,1.4-2,1.4-3.5c0-1.3-0.4-2.4-1.3-3.3c-0.9-0.9-2-1.6-3.2-2.2l-5-2.2
		c-3.4-1.5-5.9-3.4-7.5-5.5c-1.6-2.1-2.4-4.8-2.4-7.9c0-2.1,0.3-4,1-5.7c0.7-1.7,1.7-3.2,2.9-4.4c1.2-1.2,2.8-2.2,4.5-2.9
		c1.8-0.7,3.7-1,5.8-1c1.9,0,3.8,0.3,5.5,0.8c1.8,0.6,3.3,1.4,4.6,2.6c1.3,1.2,2.4,2.8,3.2,4.7c0.8,1.9,1.2,4.2,1.2,6.9
		c0,0.3,0,0.7,0,1c0,0.3,0,0.7-0.1,1h-9.2c0-0.7,0.1-1.3,0.1-1.9c0-2.1-0.4-3.7-1.2-4.9c-0.8-1.2-2.2-1.8-4.2-1.8
		c-1.6,0-2.9,0.4-3.7,1.3c-0.9,0.9-1.3,2.1-1.3,3.6c0,1.1,0.3,2.1,0.8,3.1c0.6,1,1.7,1.8,3.3,2.7l6,2.8c3.4,1.6,5.8,3.4,7.3,5.5
		c1.4,2.1,2.2,4.4,2.2,7.1c0,4.4-1.4,7.8-4.1,10.2C356.9,227.5,353.2,228.7,348.4,228.7z"/>
</g>
</svg>
