<?xml version="1.0" encoding="utf-8"?>
<!-- Generator: Adobe Illustrator 21.0.0, SVG Export Plug-In . SVG Version: 6.00 Build 0)  -->
<svg version="1.1" id="Ebene_1" xmlns="http://www.w3.org/2000/svg" xmlns:xlink="http://www.w3.org/1999/xlink" x="0px" y="0px"
	 viewBox="0 0 960 960" style="enable-background:new 0 0 960 960;" xml:space="preserve">
<style type="text/css">
	.st0{fill:#F5F5F5;}
	.st1{fill:#E3E4E4;}
	.st2{fill:#464E5D;}
	.st3{fill:#A57757;}
	.st4{fill:#313D48;}
	.st5{fill:#333F49;}
	.st6{fill:#303D48;}
	.st7{fill:#E54D45;}
</style>
<g>
	<path class="st0" d="M563.1,861.7H399.7c-4.2,0-7.6,3.4-7.6,7.6l-5.5,21.1l-41.2,62.6c0,4.2,3.4,7.6,7.6,7.6h254
		c4.2,0,7.6-3.4,7.6-7.6l-38.4-62.6l-5.5-21.1C570.6,865.1,567.2,861.7,563.1,861.7z"/>
	<path class="st1" d="M47.5,831.5c0,18.1,14.8,32.9,32.9,32.9h799c18.1,0,32.9-14.8,32.9-32.9V782H47.5V831.5z"/>
	<path class="st2" d="M879.5-0.5h-799c-18.1,0-32.9,14.8-32.9,32.9V782h864.9V32.4C912.5,14.3,897.6-0.5,879.5-0.5z M874,747.2H86
		V47.1c0-7,5.8-12.8,12.8-12.8h762.4c7,0,12.8,5.8,12.8,12.8V747.2z"/>
	<circle class="st0" cx="480" cy="823.2" r="25.5"/>
	<g>
		<path class="st3" d="M480.5,806.5c0.2,0,0.4,0,0.5,0c3.2,1.8,5.5,4.4,6.2,8.2c0.1,0.4,0.3,0.5,0.6,0.6c3.5,1.6,4.5,3.5,3.4,7.3
			c-0.1,0.5-0.1,0.8,0.4,1.1c4,2.3,3.7,7.3,1.4,10.2c-1.5,1.8-3.4,2.9-5.6,3.6c-5,1.5-10.1,1.4-15.1-0.1c-1.8-0.5-3.4-1.4-4.8-2.8
			c-3.2-3.2-3.3-8.9,1.1-11.1c0.6-0.3,0.5-0.6,0.3-1.1c-0.5-1.3-0.5-2.6-0.1-3.9c0.6-2.2,2.1-3.5,4.1-4.5c2.2-1.1,4.4-2.2,6.5-3.4
			c2-1.1,2.1-1.6,1.2-3.7C480.5,806.8,480.5,806.7,480.5,806.5z M476.5,833.2c2.5,1.4,5.1,1.4,7.6,0c1.4-0.6,2.4-1.6,3.1-2.8
			c0.6-1,0.2-1.9-1-1.9c-3.9,0-7.9,0-11.8,0c-1.2,0-1.6,0.9-1,1.9C474.1,831.6,475.1,832.6,476.5,833.2z M473.6,822.9
			c0,0.2,0,0.4,0,0.7c0,1,0.3,1.9,1.5,1.9c1.2,0,1.5-0.8,1.6-1.9c0-0.2,0-0.4,0-0.7c0-1.9-0.5-2.7-1.6-2.7
			C474.1,820.3,473.6,821.1,473.6,822.9z M484,822.9c0,1.9,0.4,2.6,1.5,2.6c1.1,0,1.5-0.7,1.5-2.6c0-1.9-0.4-2.6-1.5-2.6
			C484.4,820.3,484,821,484,822.9z"/>
		<path class="st4" d="M476.5,833.2c-1.4-0.6-2.4-1.6-3.1-2.8c-0.6-1-0.2-1.9,1-1.9c3.9,0,7.9,0,11.8,0c1.2,0,1.6,0.9,1,1.9
			c-0.8,1.2-1.8,2.2-3.1,2.8C482.3,832,478.2,832,476.5,833.2z"/>
		<path class="st5" d="M473.6,822.9c0-1.8,0.5-2.6,1.5-2.6c1.1,0,1.6,0.8,1.6,2.7c0,0.2,0,0.4,0,0.7c0,1-0.4,1.9-1.6,1.9
			c-1.2,0-1.5-0.9-1.5-1.9C473.6,823.4,473.6,823.1,473.6,822.9z"/>
		<path class="st6" d="M484,822.9c0-1.9,0.4-2.6,1.5-2.6c1.1,0,1.5,0.7,1.5,2.6c0,1.9-0.4,2.6-1.5,2.6
			C484.4,825.5,484,824.8,484,822.9z"/>
		<path class="st7" d="M476.5,833.2c1.8-1.2,5.9-1.2,7.6,0C481.5,834.6,479,834.6,476.5,833.2z"/>
	</g>
</g>
</svg>
