<?xml version="1.0" encoding="utf-8"?>
<!-- Generator: Adobe Illustrator 21.0.0, SVG Export Plug-In . SVG Version: 6.00 Build 0)  -->
<svg version="1.1" id="Ebene_1" xmlns="http://www.w3.org/2000/svg" xmlns:xlink="http://www.w3.org/1999/xlink" x="0px" y="0px"
	 viewBox="0 0 800 800" style="enable-background:new 0 0 800 800;" xml:space="preserve">
<style type="text/css">
	.st0{fill:none;stroke:#8E1919;stroke-width:60;stroke-miterlimit:10;}
	.st1{fill:#A46946;}
	.st2{fill:#C92828;}
	.st3{fill:#8E1919;}
	.st4{fill:#DD0000;}
	.st5{fill:#FF976E;}
	.st6{fill:#8E4F4F;}
	.st7{clip-path:url(#SVGID_2_);fill:#F4F4F4;stroke:#7EA1B4;stroke-miterlimit:10;}
	.st8{clip-path:url(#SVGID_2_);}
	.st9{fill:#F4F4F4;stroke:#7EA1B4;stroke-miterlimit:10;}
	.st10{fill:#E8EAE9;}
	.st11{fill:#CCD2DB;}
	.st12{fill:none;stroke:#FFCD9D;stroke-width:70;}
	.st13{fill:#FF976E;stroke:#FF976E;stroke-width:60;}
	.st14{fill:none;stroke:#FFCD9D;stroke-width:4;stroke-miterlimit:10;}
	.st15{fill:#FFCD9D;}
	.st16{fill:#EAAF9D;}
	.st17{fill:none;stroke:#A46946;stroke-width:10;stroke-linecap:round;stroke-miterlimit:10;}
	.st18{fill:none;stroke:#C92828;stroke-width:8;stroke-miterlimit:10;}
	.st19{fill:#FFFFFF;}
	.st20{fill:#FF8673;}
	.st21{fill:#CAFF76;}
</style>
<g>
	<path class="st15" d="M546.4,304.1l-70-0.4c0.1-18.9,0.9-37.7,1.7-55.9c2.1-48.8,4.5-104-12.2-121.5c-1.9-1.9-7.5-7.9-26.5-7.9
		c-12,0-23,0.1-33.7,0.3c-56.6,0.7-101.4,1.3-185.1-21.3C177,85.6,140.9,58.7,116.1,19.6C94.4-14.7,82.5-56.4,81.6-101
		c-0.9-45.3,10.1-90.5,31.1-127.1c24-42,59.6-71.4,102.7-84.9c66.2-20.7,112.7-20.7,237.1-20.7v70c-127,0-162.4,0.7-216.2,17.5
		c-43.3,13.5-86.3,63.3-84.7,143.8c0.6,31.4,9,61.4,23.7,84.6c15.4,24.4,36.8,40.4,63.5,47.6c74.3,20,110.8,19.6,166,18.9
		c10.9-0.1,22.1-0.3,34.5-0.3c32.4,0,58.3,9.9,77,29.5c37.4,39.1,34.6,104.1,31.6,173C547.3,268.4,546.5,286.5,546.4,304.1z"/>
</g>
<g>
	<path class="st16" d="M531.8,297.2l-0.3,3.9l-0.3,4.1c-0.2,2.7-0.3,5.5-0.4,8.2c-0.2,5.5-0.3,10.9-0.1,16.3
		c0.2,5.3,0.5,10.5,1.2,15.3c0.3,2.4,0.8,4.7,1.3,6.7s1.2,3.8,1.8,5s1.2,1.7,0.8,1.2c-0.2-0.2-0.7-0.7-1.4-1.1
		c-0.7-0.4-1.6-0.6-2.1-0.7c-0.3,0-0.5-0.1-0.6-0.1s-0.1,0-0.1,0l0,0c0,0,0,0,0.1,0l0.4-0.1c1.1-0.2,2.2-0.4,3.2-0.7
		c1.9-0.5,3.5-1.1,3.8-1.3c0.1-0.1-0.1-0.1-0.7,0.5c-0.6,0.5-1.5,1.6-2,2.6c-0.5,1.1-0.6,1.8-0.7,1.9c0,0.1,0-0.4-0.1-1.3
		c-0.1-1.7-0.5-4.6-0.9-7.8s-0.7-6.9-0.7-10.7c0-1.9,0.1-3.9,0.2-5.9l0.1-1.5c0.1-0.5,0.1-1,0.2-1.6c0.1-1.2,0.3-2.3,0.5-3.4
		c0.8-4.5,2.2-8.5,3.7-12.3c3.1-7.5,7.2-13.9,11.8-19.7s9.8-10.9,15.4-15.5c5.6-4.6,11.7-8.6,18.3-11.8c6.6-3.3,13.6-5.9,21.1-7.6
		c7.4-1.7,15.2-2.4,22.9-2c7.8,0.4,15.5,1.9,22.8,4.5c3.6,1.2,7.2,2.8,10.5,4.5l0.6,0.3l0.8,0.4c0.5,0.3,1,0.5,1.5,0.9
		c1,0.6,2.1,1.2,3.1,2c2.1,1.4,4.2,3.1,6.3,5.1s4,4.4,5.8,7.1c1.7,2.7,3.2,5.8,4.1,9c1,3.2,1.5,6.6,1.6,9.8s-0.3,6.3-0.9,9.2
		c-1.2,5.7-3.5,10.5-6,14.6c-2.6,4.1-5.5,7.6-8.6,10.6c-6.3,6.1-13.5,10.6-21.5,13.7c-8,3.1-17,4.7-26.3,3.8l-1.6-0.2L620,353
		c-0.3,0-0.5-0.1-0.8-0.1c-0.5,0-0.9,0-1.2,0c-0.7,0-1.2,0.2-1.5,0.3s-0.5,0.2-0.6,0.2s0-0.2,0-0.8c0-0.3,0-0.6-0.1-1.1
		c-0.1-0.4-0.3-0.9-0.5-1.3c-0.5-0.8-1-1.1-0.9-0.9c0.1,0.2,0.8,0.7,2,1c0.6,0.2,1.3,0.4,2.1,0.5c0.4,0.1,0.8,0.1,1.3,0.2l0.7,0.1
		h0.3h0.5c5.5,0.4,11.1,0.7,17,1c3,0.2,6,0.3,9.3,0.6s6.7,0.6,10.8,1.4c2,0.4,4.2,1,6.7,1.8c2.4,0.9,5.2,2.1,8,4.1s5.7,4.8,7.7,8.1
		s3.1,6.7,3.7,9.7c0.6,3,0.7,5.6,0.6,8c-0.1,2.4-0.3,4.5-0.6,6.4c-0.6,3.9-1.5,7.3-2.5,10.6c-1.1,3.4-2.3,6.9-3.8,10.2
		c-1.5,3.4-3.3,6.7-5.4,9.9c-4.2,6.4-9.6,12.3-16.4,16.9c-3.4,2.3-7.1,4.3-11.2,5.7c-4,1.4-8.3,2.4-12.7,2.7s-8.9-0.1-13.2-1.2
		c-4.3-1.1-8.5-2.9-12.1-5.1c-0.9-0.5-1.8-1.2-2.7-1.8s-1.7-1.3-2.5-2c-0.4-0.3-0.9-0.7-1.2-1l-0.9-0.8l-1.8-1.7
		c-2.4-2.3-4.5-4.5-6.6-6.7s-4-4.3-5.9-6.2s-3.7-3.7-5.1-4.9c-0.7-0.6-1.3-1-1.4-1c0,0,0.1,0,0.5,0.1s1.2,0.2,2.3,0.1
		c1.1-0.1,2.4-0.5,3.3-1c1-0.5,1.5-1.1,1.8-1.4c0.3-0.3,0.3-0.5,0.3-0.4l-0.1,0.1l-0.2,0.3c-0.5,1.1-1.2,3.3-1.7,5.6
		c-0.1,0.6-0.2,1.2-0.3,1.8l-0.3,1.9c-0.3,1.9-0.7,3.8-1.2,5.7c-1,3.8-2.5,7.6-4.7,11.3c-1.1,1.9-2.4,3.8-4.1,5.6
		c-1.6,1.8-3.6,3.7-6.2,5.3c-2.5,1.6-5.7,2.9-9.3,3.4s-7.4,0-10.5-1.2c-3.2-1.2-5.7-2.8-7.8-4.5s-3.6-3.5-5-5.3
		c-2.7-3.5-4.5-6.9-6-10.3c-0.7-1.7-1.4-3.3-2-5c-0.3-0.8-0.6-1.6-0.8-2.4l-0.7-2.2c-0.5-1.6-1.1-2.6-1.5-3s-0.5-0.4-1.1-0.6
		c-0.6-0.2-1.8-0.3-3.5-0.2s-3.7,0.5-5.8,1.1c-4.3,1.2-9,3.2-13.8,5.6l-3.9,2c-1.8,0.9-3.6,1.6-5.3,2.3c-3.4,1.3-6.7,2.2-9.9,3.1
		c-6.5,1.6-12.9,2.6-19.5,3.2c-6.6,0.6-13.2,0.7-20.3-0.1c-3.6-0.4-7.2-1-11.2-2.2c-3.9-1.2-8.2-2.8-12.7-6.2
		c-2.2-1.7-4.5-3.9-6.5-6.8c-1.9-2.8-3.4-6.2-4-9.6c-0.2-0.9-0.3-1.7-0.4-2.5c-0.1-0.4-0.1-0.8-0.1-1.1l-0.1-1c0-0.2,0,0,0-0.4v-0.5
		v-0.9c0-0.6,0-1.1,0-1.7c0.1-2.2,0.3-4.3,0.7-6.5c0.8-4.3,2.1-9,5.1-13.9c1.5-2.4,3.4-4.8,5.8-6.9c2.4-2.1,5.2-3.9,8.1-5.1
		c2.9-1.2,5.8-1.9,8.6-2.3c2.7-0.3,5.3-0.3,7.7-0.2c1.2,0.1,2.3,0.2,3.4,0.4l2.5,0.4c1.2,0.2,2.4,0.4,3.6,0.5
		c4.7,0.5,9.2,0.5,12.3-0.1c0.8-0.2,1.4-0.3,1.9-0.5s0.9-0.4,1.1-0.5c0.2-0.1,0.2-0.2,0.1-0.2c-0.1,0-0.2,0.1-0.3,0.2
		c-0.3,0.3-0.2,0.3-0.2-0.5c0-0.4,0-1,0-1.6c0-0.1,0,0.1,0,0.2c0,0.1,0,0.3,0.1,0.4c0.1,0.3,0.2,0.6,0.3,0.8s0,0.1-0.1,0
		c-0.4-0.3-1.4-0.9-2.9-1.5c-3-1.2-7.4-2.3-11.9-2.8c-1.1-0.1-2.3-0.3-3.4-0.3l-1.7-0.1l-2.2-0.1c-2.3-0.1-4.9-0.1-7.4-0.1
		c-5,0.1-10,0.5-14.5,1.3c-2.2,0.4-4.2,0.9-5.9,1.4s-3,1.2-3.4,1.5c-0.2,0.2-0.2,0.2,0,0s0.7-0.7,1-1.4c0.4-0.7,0.6-1.6,0.7-2.2
		c0-0.1,0-0.1,0-0.2c0,0,0-0.1,0,0v0.4l-0.1,1.6c-0.1,1.1-0.2,2.1-0.4,3.2c-0.7,4.3-1.9,8.8-3.8,13.2c-2,4.4-4.7,8.8-8.2,12.6
		c-3.6,3.9-8,7.2-13.1,9.6c-5.1,2.4-11,3.8-17.3,3.5c-6.2-0.2-13-2.2-18.6-6.2c-5.7-3.9-9.9-9.6-12.2-15.1c-1.2-2.8-2-5.5-2.5-8.2
		c-0.6-3.3-0.5-3.7-0.7-5c-0.4-2.4-0.8-4.7-1.3-6.8s-1.1-4.1-1.8-5.8c-0.7-1.7-1.4-3.1-2-4.1c-0.3-0.5-0.6-0.8-0.8-1.1
		c-0.2-0.3-0.3-0.3-0.3-0.4c0,0,0.2,0.1,0.5,0.2c0.2,0.1,0.5,0.2,0.8,0.2c0.2,0,0.4,0.1,0.8,0.1c0.2,0,0.3,0,0.6,0h0.5
		c0.3,0,0.2,0,1.3,0l-4.6-0.3l0.6,0.1h0.3h0.3h0.3c0.2,0,0.3,0,0.4,0c0.2,0,0.3,0,0.4-0.1c0.2,0,0.5-0.1,0.7-0.2
		c0.2-0.1,0.4-0.2,0.5-0.4c0.1-0.1,0.1-0.1,0.1-0.1c-0.1,0.1-0.5,0.7-1,1.7s-0.9,2.5-1.3,4.2s-0.6,3.6-0.8,5.7l-0.3,4.1
		c-0.1,1.8-0.3,3.7-0.6,5.5c-1.1,7.4-3.7,15.2-8.2,22.4c-4.5,7.1-10.9,13.4-18.9,17.4c-4,2-8.3,3.6-13.1,4.4c-2.4,0.4-5,0.6-7.8,0.5
		s-5.8-0.6-9.2-1.7c-3.3-1.2-7.2-3.2-10.6-6.9c-1.7-1.8-3.2-4.1-4.3-6.5c-0.3-0.6-0.5-1.2-0.7-1.8l-0.3-1c-0.2-0.7-0.4-1.3-0.6-1.9
		c-0.6-2.5-0.9-4.7-1.1-6.7s-0.3-3.9-0.3-5.6c0-3.5,0.2-6.7,0.5-9.7s0.6-5.9,0.9-8.7c0.7-5.6,1.4-10.8,1.8-15.6
		c0.2-2.4,0.4-4.6,0.4-6.6c0-1.9-0.2-3.6-0.3-4.2c0-0.2-0.1-0.2,0.3,0.4c0.2,0.3,0.5,0.7,0.9,1.1c0.4,0.5,1,0.9,1.6,1.3l0.5,0.3
		l0.2,0.1l0.1,0.1l0,0l-0.4-0.2c-0.3-0.2-0.7-0.3-1-0.5c-0.8-0.3-1.6-0.6-2.5-0.9c-3.7-1.2-8.5-2.2-13.4-3c-5-0.8-10.3-1.4-15.7-2.1
		c-5.5-0.7-11.1-1.5-16.9-2.5c-1.5-0.3-2.9-0.5-4.4-0.8l-2.3-0.5c-0.9-0.2-1.8-0.4-2.6-0.6c-3.4-0.9-6.6-2-9.6-3.2
		c-6-2.4-11.3-5.2-16.3-8c-5-2.7-9.7-5.5-14-7.8c-2.1-1.1-4.2-2.1-6-2.8c-0.9-0.3-1.7-0.6-2.3-0.8c-0.6-0.2-1-0.2-1.1-0.2l0,0
		c0.1,0,0.1,0,0.2,0l-2,0.1c-1.3,0.1-2.4,0.2-3,0.3s-0.7,0.3,0.2,0c0.4-0.1,1-0.4,1.6-0.9c0.6-0.4,1.2-1,1.7-1.5
		c0.9-1.1,1-1.6,1.1-1.6s0.1,0.5,0.1,1.2c0.1,1.4,0.4,3.5,0.8,5.7c0.8,4.4,2,9.3,3.2,14.3c0.6,2.6,1.2,4.7,1.7,6.7
		c0.6,2,1.2,3.7,1.7,5.1c0.5,1.3,1.1,2.1,1.1,2.1s-0.2-0.2-0.5-0.5s-0.8-0.5-1.1-0.7c-0.7-0.3-0.4-0.1,0.9-0.1s3.5-0.2,6-0.5
		c5.1-0.6,11.7-1.5,19.1-1.2c0.9,0,1.8,0.1,2.8,0.1l2.1,0.2c1.1,0.1,2.3,0.2,3.5,0.2c2.4,0.1,5,0.2,7.7,0.3s5.6,0.2,8.7,0.3
		c3.1,0.2,6.3,0.4,9.9,1s7.6,1.4,12.2,3.2c2.3,0.9,4.7,2.1,7.2,3.7c2.5,1.6,4.9,3.7,7.1,6.2s3.9,5.4,5.2,8.2
		c1.3,2.9,2.1,5.7,2.5,8.3c0.9,5.3,0.8,9.7,0.4,13.7c-0.4,3.8-1.1,7.8-2.5,12.1c-1.4,4.2-3.5,8.7-6.7,12.9s-7.5,8-12.2,10.5
		c-4.7,2.6-9.6,4.1-14.1,4.8s-8.8,0.8-12.8,0.4c-2-0.2-4-0.4-5.9-0.8c-1-0.2-2-0.4-3-0.6L199,426l-0.8-0.2l-1.2-0.4l2.4,0.6
		l-1.4-0.2l-1.6-0.3l-3.3-0.5c-2.2-0.3-4.5-0.6-6.7-0.8c-4.4-0.4-8.8-0.6-12.8-0.5c-2,0-3.9,0.2-5.6,0.4s-3.2,0.5-4.2,0.8
		c-1,0.2-1.3,0.6-0.5,0c0.4-0.3,1.1-0.9,1.8-1.9c0.3-0.5,0.6-1.1,0.9-1.7l0.1-0.2c0-0.1,0,0.1,0,0.1l-0.1,0.3l-0.2,0.6
		c-0.7,1.7-1.1,3.3-1.5,4.9c-0.3,1.5-0.6,3-0.7,4.4s-0.1,2.9,0.1,4.5c0,0.8,0.2,1.7,0.3,2.5c0.2,0.9,0.3,1.8,0.5,2.8
		c0.8,3.9,2,8.4,3.4,13l0.2,0.6l0,0c0-0.1,0-0.1-0.1-0.2c-0.1-0.2-0.3-0.6-0.7-1.2c-0.4-0.6-1.2-1.5-2.5-2.5s-3.2-2-5.2-2.6
		c-2-0.5-3.9-0.5-5.1-0.4c-1.3,0.1-2,0.4-2.4,0.5c-0.4,0.2-0.5,0.2-0.5,0.2c0.1,0,0.7-0.4,1.6-0.9s2-1.3,3.5-2.2s3.3-1.9,5.9-3.1
		c1.3-0.6,2.9-1.1,5-1.6c2-0.4,4.5-0.8,7.5-0.5c2.9,0.2,6.2,1.1,8.9,2.5c0.7,0.3,1.3,0.7,2,1.1l0.9,0.6c0.3,0.2,0.5,0.3,1,0.7
		c0.8,0.6,1.6,1.4,2.3,2.1c0.6,0.7,1.3,1.4,1.8,2.1c2.1,2.8,3,5.1,3.7,6.9c0.4,1,0.6,1.8,0.8,2.6l0.3,1.1c0.1,0.4,0.2,0.7,0.2,1
		c0.5,2.6,0.6,4.7,0.7,6.5s0,3.4,0,4.9c-0.1,3-0.3,5.7-0.4,8.2c-0.2,2.5-0.3,4.9-0.4,7.1c-0.1,2.2-0.1,4.2,0,5.9s0.3,3.1,0.4,3.5
		c0,0.2,0.1,0.2-0.2-0.3c-0.2-0.4-0.8-1.3-1.8-2.2s-2.5-1.7-3.6-2.1c-1.2-0.4-1.9-0.4-2.2-0.4c-0.1,0-0.2,0-0.1,0s0.1,0,0.1,0
		c0.1,0,0,0,0.1,0c0,0,0.1,0,0.5-0.4c0.8-0.7,2.4-3,3.6-6.2c1.3-3.1,2.3-7,3.1-11.1c0.8-4.1,1.3-8.5,1.8-13.1l0.3-3.5l0.1-1.3
		c0.1-0.8,0.2-1.7,0.3-2.5c0.3-1.7,0.8-3.3,1.3-4.9c1.1-3.1,2.7-5.8,4.4-8.1c1.7-2.3,3.6-4.2,5.5-5.8c3.8-3.2,7.7-5.2,11.6-6.8
		c3.9-1.5,7.8-2.5,11.8-3s8-0.5,12.2,0c4.1,0.5,8.4,1.7,12.5,3.6c2.1,0.9,4.1,2.1,6.1,3.5c0.5,0.3,1,0.7,1.4,1.1l0.4,0.3l0.4,0.4
		c0.3,0.2,0.6,0.5,0.9,0.7c1.2,1,2.3,2.2,3.4,3.5c2.1,2.6,3.8,5.6,4.9,8.6s1.6,5.9,1.8,8.4c0.2,2.6,0.1,4.8-0.1,6.9
		c-0.2,2.1-0.5,3.9-0.8,5.6c-0.7,3.4-1.5,6.3-2.3,9c-1.6,5.3-3.2,9.8-4.1,13.6c-0.5,1.9-0.8,3.6-1,4.9c-0.2,1.3-0.1,2.3-0.1,2.7
		s0.2,1.1,0.6,2s1.1,1.9,1.8,2.8c0.8,1,1.7,1.9,2.7,2.6c1,0.8,1.9,1.3,2.6,1.7c0.3,0.2,0.6,0.2,0.6,0.3c0,0-0.1,0-0.6,0
		s-1.4,0.1-2.5,0.6s-2.4,1.3-3.1,2.2c-0.8,0.9-1.2,1.6-1.3,2c0,0.1-0.1,0.1-0.1,0.2l0.3-0.8l0.6-1.8l2.3-6.9
		c1.5-4.5,2.7-8.7,3.7-12.9s1.7-8.6,2.2-13.2c0.1-1.2,0.3-2.3,0.4-3.5l0.4-3.8c0.3-2.8,0.7-5.6,1.1-8.4c0.9-5.6,2.1-11.1,3.8-16.8
		c1.7-5.7,3.8-11.5,7.3-17.7c1.8-3.1,4.1-6.4,7.4-9.7c1.7-1.6,3.7-3.3,6.2-4.7c2.4-1.4,5.4-2.7,8.5-3.4s6.4-0.8,9.4-0.4
		c0.7,0.1,1.5,0.2,2.2,0.3l0.5,0.1c0.2,0,0.4,0.1,0.6,0.1l1.3,0.3c0.9,0.2,1.8,0.6,2.7,0.9c0.9,0.4,1.8,0.8,2.7,1.3
		c1.8,1,3.5,2.3,4.9,3.7s2.7,2.9,3.6,4.4c1.9,3,2.9,5.7,3.6,8c0.7,2.4,1,4.4,1.3,6.3c0.2,1.9,0.4,3.6,0.4,5.2c0.1,3.2,0.1,6,0.1,8.5
		c0,2.6,0,4.9,0,6.9c0.1,2,0.3,3.7,0.4,4.3c0.1,0.3,0.1,0.3-0.1-0.2s-0.8-1.5-2-2.6s-2.8-1.8-3.7-2c-0.5-0.1-0.9-0.2-1.1-0.2
		s-0.3,0-0.5,0c-0.4,0-1,0.1-1.6,0.3s-1.1,0.5-1.3,0.7c-0.5,0.4,0,0,0.7-1.2c0.6-1.1,1.5-2.9,2.3-4.9l2.8-6.8c1-2.5,2.2-5.2,3.7-8.2
		c1.5-2.9,3.3-6,5.8-9.3c2.5-3.2,5.9-6.5,10.1-9.2c4.2-2.6,9.2-4.4,13.8-5.1c2.3-0.4,4.7-0.5,6.5-0.5c2,0,4.1,0.1,6.7,0.5
		c0.6,0.1,1.3,0.2,2,0.4c0.7,0.1,1.4,0.4,2.1,0.5c1.5,0.5,3.1,1,4.8,1.9c3.4,1.7,7.3,4.9,9.8,8.8c1.2,1.9,2.2,3.9,2.7,5.8
		c0.6,1.8,1,3.5,1.2,5.1c0.4,3,0.4,5.4,0.2,7.5c-0.3,4.1-0.9,7-1.3,9.6c-0.5,2.5-0.8,4.6-1,6.3c-0.2,1.6-0.1,2.7-0.1,2.8
		c0,0,0-0.1-0.2-0.6c-0.1-0.4-0.4-1-0.8-1.4c0.6,0.7,1.3,1.5,1.8,2.1c0.6,0.6,1,1.1,1.3,1.4c0.3,0.3,0.4,0.2-0.2-0.1
		c-0.2-0.1-0.4-0.2-0.6-0.3c-0.3-0.2-0.5-0.2-0.9-0.4c-0.7-0.3-1.6-0.4-2.5-0.5s-1.8-0.1-2.5,0.1c-0.4,0.1-0.6,0.1-0.9,0.2
		c-0.3,0.1-0.4,0.1-0.6,0.2c-0.7,0.2-0.6,0.3-0.3,0.1s0.9-0.6,1.5-1.1s1.4-1.1,2.2-1.8c1.6-1.4,3.3-2.9,5-4.6l1.3-1.2
		c0.6-0.5,1.1-1.1,1.8-1.6c1.2-1.1,2.5-2.1,3.8-3.2c2.7-2.1,5.7-4.2,9.3-6s7.9-3.6,13.4-4.3c2.7-0.3,5.8-0.4,8.9,0.1
		c3.1,0.5,6.3,1.5,9.2,3s5.4,3.3,7.5,5.3s3.8,4.1,5.1,6.2c2.7,4.2,4.3,8.3,5.4,12.2c0.5,2,0.9,3.9,1.2,5.8c0.1,1,0.3,1.9,0.4,2.9
		l0.2,2.3c0.2,2.6,0.4,5.3,0.6,6.7c0,0.2,0,0.4,0.1,0.4v0.2l0,0c0,0.1,0-0.2-0.2-0.7c-0.2-0.6-0.6-1.7-1.5-3c-0.2-0.4-0.5-0.7-0.8-1
		c-0.3-0.4-0.6-0.7-1-1.1c-0.7-0.7-1.5-1.3-2.2-1.7c-0.8-0.5-1.3-0.8-2-1.1c-0.5-0.2-1.1-0.4-1.3-0.5c-0.8-0.2-0.9-0.2-1.1-0.2
		c-0.1,0,0.5,0,1.3,0s1.8-0.1,2.9-0.1l1.7-0.1l1.5-0.1c1.8-0.2,3.5-0.4,4.2-0.6c0.3-0.1,0.4-0.2,0.1,0c-0.3,0.2-1.1,0.6-2,1.5
		s-1.7,2.2-2,3s-0.4,1.2-0.4,1.1c0-0.1,0-0.5,0-1.2s0-1.5-0.1-2.5c-0.1-1.7-0.4-3.5-0.8-5.8l-0.7-3.8c-0.2-1.5-0.5-3.1-0.7-5.4
		c0-0.6-0.1-1.2-0.1-1.8v-1.1v-0.5v-0.6l0.1-1.2c0-0.4,0.1-0.9,0.1-1.4l0.1-0.7l0.1-0.8c0.1-0.6,0.2-1.1,0.3-1.6
		c0.6-2.4,1.7-5.2,3.5-7.9c1.9-2.8,4.4-5.1,6.9-6.6c0.6-0.4,1.2-0.7,1.8-1s1.1-0.5,1.7-0.8c1.2-0.5,2.1-0.8,3.1-1.1
		c0.5-0.2,0.9-0.3,1.4-0.4l1.3-0.3c0.8-0.2,1.5-0.2,2.3-0.3c1.4-0.2,2.7-0.2,3.8-0.2h0.8h0.6h1.3c3.5,0.1,7,0.4,10.8,1.2
		c3.7,0.8,7.7,1.9,11.6,3.9c4,1.9,8,4.6,11.5,8.2c3.5,3.5,6.3,7.9,8.1,12.2c1.8,4.4,2.8,8.7,3.2,12.7c0.1,1,0.2,2,0.2,3l0.1,2.8
		c0-0.7-0.1-2.1-0.8-3.6c-0.6-1.5-1.8-3-2.7-3.8s-1.6-1.1-1.8-1.3c-0.5-0.2,0.4,0.1,1.6,0.3c1.3,0.1,3,0.2,4.8,0.1
		c3.7-0.1,8-0.6,12.3-1.3c2.2-0.4,4.4-0.8,6.5-1.3c1.1-0.2,2.2-0.5,3.3-0.7l1.6-0.4l1.4-0.4l0,0l-10.2,7l0.7-0.9l0.5-0.7l1-1.2
		c0.7-0.8,1.4-1.6,2-2.3c1.4-1.5,2.8-3,4.3-4.5c2.9-2.9,6.1-5.7,9.7-8.4c3.6-2.7,7.6-5.2,12.4-7.4c2.4-1.1,5.1-2,8.1-2.7
		s6.3-1.1,9.7-1.1c3.5,0.1,7.2,0.6,10.6,1.8c3.5,1.2,6.6,2.8,9.3,4.8c2.7,1.9,5,4,6.9,6.2c1.9,2.1,3.5,4.3,4.8,6.4
		c1.4,2.1,2.5,4.2,3.5,6.3l0.7,1.5l0.6,1.4l1.1,2.4c1.4,3.2,2.8,6.4,4.2,9.6c2.7,6.5,5.4,13.1,7.8,20.3c1.2,3.6,2.4,7.3,3.3,11.3
		c1,4,1.8,8.3,2.1,13.2c0.2,2.4,0.2,5,0,7.7s-0.7,5.5-1.4,8.3c-1.5,5.7-4.4,11.2-7.9,15.5c-0.8,1.1-1.7,2.1-2.6,3l-0.7,0.8l-0.6,0.6
		c-0.8,0.9-1.5,1.8-2.3,2.9c-1.6,2.1-3.2,4.5-5,7.4c-0.9,1.4-1.9,3-3.1,4.8c-0.6,0.9-1.3,1.9-2.2,3s-2,2.4-3.8,4.1
		c-0.9,0.8-2,1.7-3.6,2.7s-3.7,2-6.5,2.7s-6.3,0.8-9.3,0.1c-3.1-0.7-5.5-1.9-7.2-3.1c-1.8-1.2-3-2.3-4-3.3l-0.7-0.7l-0.6-0.7
		c-0.4-0.5-0.7-0.9-1-1.3c-1.2-1.6-2-3-2.7-4.2c-0.6-1.1-1.3-2.5-1.9-3.8c-0.6-1.2-1-2.4-1.4-3.6c-0.8-2.3-1.4-4.4-2-6.4
		c-1.1-4-1.8-7.7-2.4-11.1c-0.7-3.4-1.2-6.7-1.9-9.6c-0.6-2.9-1.3-5.6-1.9-7.4c-0.2-0.4-0.3-0.8-0.4-1.1c-0.1-0.3-0.2-0.4-0.2-0.4
		s0.1,0.2,0.4,0.5c0.3,0.3,0.8,0.9,1.8,1.5c0.9,0.6,2.2,1.2,3.4,1.5c1.3,0.3,2.4,0.3,3.2,0.3h0.3c0.1,0,0,0,0,0l0,0c0,0,0,0-0.1,0
		c0,0,0,0-0.1,0h-0.1c-0.3,0.1-1.1,0.5-2.1,1.6c-1,1-2.1,2.4-3,4.2c-1,1.7-1.8,3.7-2.4,5.7c-0.6,2-1,4-1,5.7c0,0.4,0,0.8,0,1.2
		c0,0.5,0,1,0.1,1.6c0.1,1.2,0.3,2.7,0.4,4.3c0.4,3.1,0.9,6.7,1.2,10.6c0.2,2,0.3,4.1,0.4,6.4c0,2.3,0,4.9-0.4,7.8
		c-0.4,3-1.1,6.4-3.1,10.5c-1,2-2.4,4.2-4.2,6.2s-4.1,3.8-6.5,5.1s-4.8,2.2-7,2.7s-4.2,0.8-6,0.8c-3.6,0.1-6.6-0.3-9.2-0.8l-1.8-0.4
		l-1.3-0.3l-2.6-0.6l-5.2-1.3c-7-1.8-14.1-3.8-21.6-6.7c-3.7-1.5-7.6-3.2-11.7-5.5c-2-1.2-4.2-2.6-6.3-4.3c-2.2-1.8-4.5-3.9-6.8-6.8
		c-1.1-1.5-2.2-3.2-3.2-5.1c-1-2-1.8-4.2-2.3-6.5c-1.1-4.7-0.7-9.9,0.5-13.9c1.2-4.1,2.9-7.2,4.7-9.7c0.4-0.6,0.9-1.2,1.3-1.8
		c0.4-0.6,0.9-1.1,1.3-1.6l1.3-1.5l0.9-1c4.6-5.1,9.2-10,13.1-14.6c1.9-2.3,3.7-4.6,4.8-6.2c0.5-0.8,0.8-1.5,0.7-1.1
		c-0.1,0.2-0.3,0.6-0.4,1.8c-0.1,0.6-0.1,1.4,0,2.4s0.3,2.2,0.7,3.4s1.1,2.4,1.8,3.4s1.4,1.8,2.1,2.3c1.3,1.1,2.2,1.5,2.6,1.7
		c0.4,0.2,0.5,0.2,0.4,0.2c-0.4-0.1-0.9-0.2-1.3-0.3c-1.9-0.3-4.1-0.5-6.4-0.4c-4.6,0.1-9.5,1.1-13.8,2.8s-8,4-10.5,6.6l-1.2,1.2
		c-0.5,0.4-0.9,0.9-1.4,1.3c-0.9,0.8-1.9,1.6-2.9,2.4c-1.9,1.5-3.9,2.8-5.9,4.1c-4,2.4-8,4.4-12.2,6s-8.5,2.9-13.3,3.7
		c-2.4,0.4-4.9,0.7-7.7,0.8s-5.8,0-9.4-0.8c-1.8-0.4-3.8-0.9-6-1.9c-2.2-0.9-4.6-2.3-7-4.4c-2.4-2-4.7-4.9-6.2-8.1
		c-0.4-0.8-0.7-1.6-1-2.4c-0.1-0.4-0.3-0.8-0.4-1.2l-0.3-1c-0.2-0.7-0.3-1.3-0.5-2c-0.5-2.5-0.8-4.5-1.1-6.4
		c-0.3-1.8-0.5-3.4-0.7-4.7s-0.4-2.4-0.6-3c-0.2-0.6-0.3-0.8,0-0.3c0.2,0.3,0.4,0.7,0.9,1.3s1.2,1.2,2,1.7s1.6,0.9,2.3,1.1
		c0.7,0.2,1.2,0.3,1.5,0.3s0.4,0,0.4,0l-1,0.2c-2,0.3-3.9,0.6-5.6,0.8c-1.7,0.2-3.3,0.4-4.6,0.6c-1.2,0.2-2.2,0.4-2.5,0.5
		s0.1,0,0.8-0.4s1.3-1.1,1.5-1.4c0.2-0.3,0.1-0.1-0.1,0.4c-0.2,0.5-0.4,1.4-0.6,2.4c-0.2,1.1-0.4,2.2-0.6,3.5
		c-0.1,0.6-0.2,1.3-0.2,2l-0.2,2.3c-0.3,3.2-0.5,6.4-0.8,9.8c-0.3,3.4-0.5,6.8-0.9,10.7c-0.2,1.9-0.5,4-0.9,6.3s-0.9,4.8-2,8
		c-0.6,1.6-1.3,3.3-2.4,5.3c-1.1,2-2.6,4.1-4.7,6.3c-2.1,2.1-4.8,4.1-7.7,5.4c-2.9,1.3-5.7,2.1-8.2,2.4c-2.5,0.3-4.6,0.3-6.5,0.2
		c-0.9-0.1-1.8-0.2-2.6-0.3c-0.4-0.1-0.8-0.1-1.2-0.2l-0.9-0.2c-1.9-0.3-4-0.7-6.4-1.4c-2.5-0.7-5.4-1.6-9-3.4
		c-1.8-1-3.6-2.2-5.4-3.6c-1.8-1.5-3.5-3.2-4.8-5.1c-0.7-0.9-1.3-1.8-1.9-2.8c-0.5-0.9-1-1.8-1.5-2.7c-0.8-1.7-1.5-3.4-2-4.9
		c-1-3.1-1.5-5.7-1.9-8.1c-0.7-4.7-0.9-8.7-1.1-12.5c-0.1-1.9-0.1-3.8-0.1-5.6v-5c0-2.7-0.2-5.4-0.5-7.7c-0.2-1.1-0.4-2.2-0.6-3.2
		s-0.5-1.8-0.7-2.4c-0.2-0.6-0.5-1-0.5-1.1c-0.1-0.1,0,0.1,0.5,0.6s1.4,1.1,2.4,1.5s2,0.5,2.6,0.5s0.8-0.1,0.6,0
		c-0.6,0.2-1.4,0.5-2.2,0.9c-1.7,0.8-3.4,1.9-4.8,3c-1.4,1.2-2.7,2.4-3.4,3.4c-0.8,1.1-1.2,1.9-1.3,2.4c-0.1,0.5-0.1,0.8-0.1,1.4
		c0,0.2,0,0.3,0.1,0.5c0,0.1,0.1,0.2,0.1,0.3l0.4,1.3l0.8,2.8l0.7,2.8c1.8,7.4,3,14.1,4.4,19.3c0.7,2.6,1.5,4.9,2.4,7s1.9,4,3.1,6
		l1,1.5c0.3,0.5,0.6,1,1,1.5c0.7,1,1.4,1.9,2.3,3c1.7,2.1,3.7,4.2,5.8,6.4l7,7.2c1.3,1.3,2.6,2.8,4.1,4.5c0.8,0.9,1.6,1.8,2.4,3
		c0.9,1.2,1.8,2.4,3,4.4c0.6,1,1.2,2.2,1.8,3.7c0.6,1.6,1.3,3.6,1.7,6.5c0.1,0.8,0.2,1.5,0.2,2.4s0,1.8-0.1,2.8s-0.2,2-0.5,3.1
		c-0.2,1.1-0.6,2.2-0.9,3.2c-0.4,1.1-0.9,2.1-1.4,3.1s-1.1,1.9-1.8,2.8c-0.6,0.8-1.3,1.6-2,2.3c-0.6,0.6-1.3,1.2-1.9,1.8
		c-2.5,2-4.6,3.1-6.4,3.8c-1.6,0.7-3.1,1.1-4.3,1.4c-2.4,0.6-4.1,0.8-5.7,0.9c-1.6,0.1-2.9,0.2-4.1,0.2h-2.2c-1,0.1-2,0.1-2.9,0.3
		c-3.9,0.5-7.6,1.9-10.9,3.9c-3.4,2-6.4,4.8-8.6,7.9c-1.1,1.6-2.1,3.2-2.9,4.9l-0.3,0.6l-0.5,0.9c-0.3,0.6-0.6,1.2-1,1.8
		c-0.7,1.2-1.6,2.4-2.5,3.6c-1.9,2.3-4.2,4.4-6.7,6c-2.4,1.6-4.9,2.7-7.2,3.5c-2.3,0.8-4.5,1.2-6.4,1.5c-4,0.5-7.2,0.4-10.2,0.1
		c-2.9-0.3-5.5-0.8-7.9-1.5c-4.8-1.2-9-2.8-12.9-4.5c-7.9-3.5-14.8-7.6-21.7-12.8c-1.7-1.3-3.5-2.7-5.2-4.3s-3.5-3.2-5.4-5.3
		c-0.9-1-1.9-2.2-2.9-3.6c-1-1.4-2-2.9-3.1-5.1c-0.3-0.6-0.6-1.2-0.8-1.8l-0.5-1.1c-0.3-0.7-0.6-1.4-0.8-2.2
		c-0.3-0.7-0.5-1.5-0.7-2.3s-0.4-1.6-0.6-2.4c-0.7-3.3-1.1-6.8-1-10.6c0.2-3.8,0.9-7.8,2.4-11.6s3.6-7.4,6.1-10.4s5.4-5.4,8.2-7.3
		c5.7-3.8,11.3-5.7,16.5-6.9c1.3-0.3,2.5-0.5,3.8-0.7l1.8-0.3l0.8-0.1c-0.1,0-0.2,0-0.4,0.1c-1,0.2-2,0.6-2.6,1
		c-0.7,0.4-1,0.8-1.2,1s-0.1,0.2-0.1,0.1c0.1-0.2,0.3-0.8,0.4-1c0-0.1,0-0.1,0.1,0.2c0.1,0.2,0.2,0.7,0.7,1.4c0.4,0.7,1.1,1.5,2,2.1
		c0.8,0.6,1.7,1,2.2,1.1s0.7,0.1,0.5,0.1s-0.6,0-1.3,0.1c-0.2,0-0.3,0.1-0.5,0.1h-0.1c-0.6,0.1-1.6,0.3-2.4,0.4
		c-0.9,0.1-1.7,0.1-2.5,0.1c-0.8,0-1.7,0-2.5-0.1c-1.5-0.2-3.1-0.5-4.3-0.9c-0.6-0.2-1.4-0.4-1.9-0.6c-0.5-0.2-1.1-0.4-1.6-0.7
		c-0.6-0.3-0.9-0.5-1.4-0.7c-0.4-0.2-0.9-0.5-1.3-0.7c-0.7-0.4-1.4-0.9-2-1.4c-2.3-1.8-3.7-3.2-4.9-4.5c-1.2-1.3-2-2.4-2.8-3.5
		c-1.5-2.1-2.6-3.9-3.7-5.6c-1-1.7-1.9-3.2-2.8-4.7c-1.7-2.9-3.2-5.5-4.5-7.3c-0.6-0.9-1.1-1.5-1.2-1.6c0,0,0.1,0,0.5,0.3
		s1.2,0.9,2.8,1.5c0.4,0.2,0.9,0.3,1.3,0.4c0.5,0.2,1,0.3,1.6,0.3c1.2,0.2,2.5,0.2,3.8,0.1c0.6-0.1,1.3-0.2,1.9-0.3s1.2-0.3,1.7-0.5
		c0.3-0.1,0.5-0.2,0.8-0.3l0.7-0.3c0.4-0.2,0.8-0.5,1.1-0.6c1.3-0.8,1.9-1.5,2.2-1.8l0.2-0.2c0-0.1,0.1-0.1,0.1-0.2c0,0,0-0.1,0,0
		c0-0.1-0.4,0.6-0.7,1c-0.3,0.4-0.5,0.9-0.8,1.4l-0.8,1.5c-0.3,0.5-0.5,1-0.8,1.6c-1.1,2.2-2,4.6-3,7.3c-2,5.4-3.7,11.9-6.6,19.5
		c-0.8,1.9-1.5,3.9-2.5,5.9c-0.5,1-1,2.1-1.6,3.1c-0.6,1.1-1.2,2.1-1.9,3.2c-2.7,4.3-6.5,8.8-11.4,12.1c-1.2,0.8-2.4,1.6-3.7,2.3
		l-0.5,0.3l-0.3,0.1l-0.6,0.3l-1.2,0.6c-1.7,0.7-3.3,1.4-5,2.1c-3.3,1.4-6.7,2.6-10.1,3.7c-3.4,1.1-6.8,2.2-10.2,3.1
		c-1.7,0.5-3.4,0.9-5.2,1.3c-1.8,0.4-3.5,0.8-5.3,1.1l-7.1-16.5c1.2-1,2.6-2,3.9-3s2.7-2,4-3.1l7.9-6l7.8-6c1.3-1,2.5-2,3.8-3
		l0.9-0.7l0.5-0.4c0.1-0.1,0.2-0.1,0.2-0.2l0.1-0.1c0.1-0.1,0.2-0.2,0.2-0.3c0.1-0.1,0.1-0.2,0.2-0.4c0.3-0.5,0.5-0.9,0.7-1.5
		s0.5-1.2,0.7-2.1c0.5-1.6,1.1-3.9,1.6-6.5c1.1-5.4,2-12.2,3.9-19.8c0.9-3.8,2.1-7.8,3.7-11.9c0.4-1,0.9-2,1.3-3.1
		c0.5-1,0.9-2.1,1.5-3.1c0.5-1,1-2.1,1.6-3.1c0.6-1.1,1.1-1.9,2-3.4c0.4-0.6,1-1.4,1.5-2.1l0.9-1.1l0.5-0.6l0.6-0.6
		c1.4-1.6,3.3-3.3,6.1-5c0.6-0.4,1.4-0.8,2.2-1.2c0.4-0.2,0.8-0.4,1.2-0.6c0.4-0.2,0.9-0.4,1.4-0.5c0.9-0.3,1.9-0.6,2.9-0.9
		c1-0.2,2.1-0.4,3.1-0.5c1.1-0.1,2.1-0.1,3.2-0.1s2.1,0.1,3.1,0.3s1.9,0.4,2.9,0.6c0.9,0.2,1.7,0.5,2.5,0.8c3.1,1.2,5.4,2.7,7.2,4
		c1.8,1.3,3.1,2.6,4.2,3.7c2.3,2.3,3.8,4.3,5.2,6.2c2.7,3.7,4.6,7,6.4,9.9c0.9,1.5,1.7,2.8,2.5,4s1.5,2.2,2,2.9
		c0.2,0.3,0.4,0.5,0.4,0.5s-0.2-0.3-1.2-1.1c-0.2-0.2-0.6-0.5-0.9-0.6c-0.2-0.1-0.5-0.3-0.7-0.4c-0.3-0.1-0.5-0.2-0.8-0.4
		s-0.7-0.3-1-0.4c-0.3-0.1-0.8-0.3-1.2-0.4c-0.8-0.2-2-0.5-3.1-0.6c-0.6-0.1-1.2-0.1-1.8-0.1c-0.6,0-1.2,0-1.9,0.1
		c-0.6,0.1-1.4,0.2-1.8,0.3l0.5-0.1c0.7-0.1,1.3-0.3,2-0.4c2.7-0.5,5.6-0.8,8.8-0.8c3.2,0,6.8,0.4,10.5,1.5
		c3.8,1.1,7.7,2.9,11.2,5.6c3.5,2.6,6.5,6.1,8.7,9.6c2.2,3.6,3.5,7.3,4.4,10.8c0.8,3.5,1.1,7,1,10.2c-0.2,6.6-1.7,12.7-4.6,18.6
		c-1.5,2.9-3.3,5.8-5.7,8.6c-2.4,2.8-5.3,5.4-8.8,7.6c-3.5,2.2-7.7,3.8-12,4.6l-2.8,0.4c-0.4,0.1-0.8,0.2-1.2,0.2
		c-1.4,0.3-2.3,0.8-2.2,0.8c0,0,0.3-0.2,0.6-0.6c0.3-0.4,0.7-1,1-1.7c0.3-0.6,0.4-1.3,0.4-1.7s0-0.6,0-0.5c0,0,0,0,0,0.1v0.1
		c0,0.1,0,0.1,0.1,0.2v0.1c0,0,0,0.1,0,0c-0.1-0.2-0.2-0.4-0.3-0.6c-0.3-0.7-0.4-0.8-0.5-0.8c0,0,0.1,0.1,0.3,0.4
		c0.4,0.4,1,1.1,1.8,1.8s1.7,1.4,2.7,2.2c3.9,2.9,8.7,5.8,13.2,7.7c2.2,1,4.5,1.8,6.2,2.2c0.9,0.2,1.6,0.4,2.1,0.4
		c0.4,0,0.6,0,0,0.1c-0.5,0.1-2.1,0.3-4.2,1.7c-1,0.7-2.1,1.6-2.9,2.6c-0.4,0.5-0.8,1-1.1,1.5l-0.4,0.7l-0.2,0.4
		c-0.1,0.1-0.1,0.3,0,0c2-4.5,4.5-8.7,7.3-12.6c5.7-7.8,12.9-14.3,21.2-19.3c8.2-4.9,17.6-8.2,27.1-9.4c2.4-0.3,4.8-0.5,7.2-0.6h2.9
		c0.4,0,0.8,0,0.9,0s0.1,0-0.7,0.1c-0.3,0.1-1,0.3-1.8,0.6c-1,0.4-2.3,1-4.2,2.6c-0.5,0.4-1,0.9-1.5,1.3c-0.6,0.6-1.1,1.2-1.5,1.8
		c-0.5,0.7-1,1.4-1.4,2.2s-0.8,1.7-1.2,2.5c-0.3,0.9-0.6,1.7-0.8,2.6c-0.2,0.8-0.3,1.6-0.4,2.4c-0.1,0.7-0.1,1.4-0.1,2.1
		c0,0.7,0.1,1.2,0.1,1.7c0.3,2.1,0.7,3.3,1.1,4.1c0.3,0.7,0.6,1.2,0.7,1.4c0.3,0.5,0.3,0.4,0.1,0.2c-0.2-0.2-0.4-0.6-0.8-1
		c-0.7-0.8-1.7-1.9-2.7-3l-7.1-7.4c-2.5-2.7-5.1-5.5-7.7-8.7c-1.3-1.5-2.6-3.3-3.9-5.1c-0.6-0.9-1.3-1.8-1.9-2.7s-1.2-1.8-1.8-2.8
		c-2.3-3.8-4.4-7.9-6.1-12.1c-1.7-4.2-3-8.4-4-12.3c-2-7.9-3-14.6-4.4-20.4l-0.5-2.2l-0.5-2.1l-0.3-1.2l-0.5-2.2
		c-0.3-1.4-0.6-3-0.8-4.5c-0.4-3.1-0.4-6.3-0.2-9.4c0.3-3.2,0.9-6.3,1.8-9.3c1.9-5.9,4.8-11.1,8.2-15.4c3.3-4.3,7.1-7.8,11-10.8
		s8-5.5,12.5-7.5c2.2-1,4.6-2,7.2-2.8c3-0.9,6.6-1.7,10.5-1.8c4-0.1,8.4,0.5,12.6,2s8,4,11,6.7s5.2,5.7,6.8,8.5
		c1.7,2.8,2.8,5.5,3.8,8.1c0.9,2.6,1.6,5,2.1,7.4s0.9,4.6,1.2,6.8c0.5,4.4,0.7,8.6,0.7,12.6l-0.1,5.2c0,1.6,0,3.1,0,4.6
		c0,2.9,0.2,5.7,0.5,7.7c0.1,0.9,0.3,1.7,0.3,1.8s0,0-0.1-0.2c-0.1-0.1-0.1-0.3-0.3-0.5c-0.1-0.2-0.3-0.4-0.4-0.7
		c-0.4-0.4-0.9-1-1.4-1.4s-0.9-0.7-1.2-0.8c-0.6-0.3-0.3-0.1,0.5,0.1c0.8,0.2,2,0.5,3.5,0.8l0.3,0.1h0.1c0,0,0,0-0.1,0
		c-0.2,0-0.6,0-1.4,0.1c-0.8,0.1-2,0.4-3.3,1s-2.7,1.6-3.6,2.5c-0.9,0.9-1.4,1.7-1.7,2.2s-0.3,0.7-0.3,0.7s0.3-0.8,0.5-1.8
		s0.4-2.4,0.6-3.8c0.3-2.9,0.6-6.1,0.9-9.5c0.3-3.4,0.6-6.9,1-10.5c0.2-1.7,0.4-3.8,0.7-5.8s0.7-4.2,1.2-6.5s1.2-4.7,2.2-7.3
		c1-2.7,2.3-5.6,4.4-8.7c1-1.5,2.3-3.1,3.8-4.6s3.1-2.9,4.8-4c3.4-2.3,7-3.8,10-4.6c2.9-0.8,5.4-1.2,7.5-1.6
		c2.1-0.3,3.9-0.5,5.5-0.7s3.1-0.4,4.5-0.6l1.6-0.2c0.8-0.1,1.5-0.2,2.4-0.2c1.7-0.1,3.5-0.2,5.4,0c2,0.2,4.2,0.5,6.5,1.2
		s4.7,1.7,6.9,3.1c2.2,1.4,4.3,3.1,5.9,5c1.6,1.8,2.9,3.7,3.9,5.4c2,3.5,2.9,6.6,3.6,9.2c0.7,2.6,1.1,4.9,1.4,6.9
		c0.3,2,0.5,3.8,0.7,5.3s0.4,2.8,0.6,3.7l0.1,0.5c0,0.1,0-0.2-0.1-0.4s-0.1-0.4-0.2-0.6c-0.1-0.4-0.3-0.8-0.5-1.2
		c-0.8-1.6-2-3.2-3.1-4.1c-1.1-1-2.1-1.4-2.7-1.7c-0.6-0.3-1-0.3-1.1-0.4c-0.3,0,0.1,0,0.7,0c0.6,0,1.5-0.1,2.4-0.2
		c1.9-0.3,4.1-0.9,6.2-1.7c2.1-0.8,4.2-1.8,6-2.9c0.9-0.6,1.8-1.1,2.5-1.7c0.4-0.3,0.7-0.6,1-0.8c0.2-0.1,0.3-0.3,0.5-0.4l0.6-0.6
		c7.1-7,15.2-11.7,23.6-14.9c8.4-3.1,16.9-4.8,25.9-5.1c4.5-0.1,9.1,0.2,13.8,1c1.2,0.2,2.4,0.5,3.6,0.8c1.5,0.4,3.2,0.9,5.2,1.7
		s4.3,2.1,6.9,4.3c1.3,1.1,2.6,2.5,3.8,4.2s2.2,3.6,2.9,5.7c0.7,2,1.1,4.1,1.2,5.9c0.1,1.8,0.1,3.5-0.1,4.9c-0.4,2.9-1.1,5-1.7,6.7
		c-1.4,3.5-2.8,5.8-4.1,7.8c-2.6,4-5.1,7-7.6,9.9c-4.8,5.7-9.5,10.7-14,15.6l-0.8,0.9l-0.4,0.4c-0.1,0.1-0.2,0.2-0.3,0.3
		c0,0.1-0.1,0.2-0.2,0.2c-0.2,0.2,0,0.2,0.2-0.7c0.1-0.4,0.2-1,0.3-1.7c0-0.7,0-1.5-0.2-2.2s-0.4-1.3-0.6-1.8
		c-0.2-0.4-0.4-0.7-0.5-0.8c-0.2-0.3,0,0,0.4,0.3c0.5,0.4,1.2,0.9,2.1,1.4c1.8,1,4.1,2.1,6.7,3.2c5.1,2,11.1,3.8,17.2,5.4l4.7,1.2
		l2.4,0.6l1.8,0.4c0.7,0.1,1.2,0.1,0.9,0.1c-0.2,0-1.4,0-3.2,1.1c-0.9,0.5-1.8,1.2-2.5,2s-1.1,1.5-1.4,2c-0.5,1-0.4,1.2-0.3,0.8
		c0.1-0.4,0.1-1.3,0.1-2.3c0-1.1-0.1-2.3-0.2-3.7c-0.2-2.8-0.7-6-1.1-9.5c-0.2-1.8-0.4-3.7-0.6-5.8c-0.1-1.1-0.1-2.2-0.2-3.4
		c0-1.3,0-2.6,0-3.8c0.2-5.1,1.2-9.7,2.5-14.2s3.1-8.8,5.4-13c2.3-4.2,5.2-8.3,9-12.1s8.6-7.4,14.6-9.7c0.7-0.3,1.5-0.6,2.3-0.8
		c0.8-0.3,1.6-0.5,2.4-0.7c0.8-0.2,1.6-0.4,2.4-0.5l1.2-0.2c0.2,0,0.4-0.1,0.7-0.1l0.9-0.1c2.5-0.2,5.4-0.1,8.3,0.6
		c2.9,0.7,5.8,2,8,3.5c2.3,1.5,4.1,3.3,5.5,4.9c1.4,1.6,2.5,3.2,3.3,4.6c1.7,2.9,2.7,5.4,3.6,7.7c1.6,4.6,2.5,8.5,3.3,12.2
		s1.4,7.1,2,10.3s1.2,6.2,1.9,8.7c0.3,1.3,0.7,2.4,1,3.3c0.2,0.4,0.3,0.8,0.5,1.1c0.1,0.3,0.2,0.4,0.4,0.8c0.1,0.2,0.2,0.4,0,0.1
		c-0.1-0.1-0.1-0.1-0.2-0.3l-0.2-0.2c-0.1-0.1-0.2-0.2-0.3-0.3c-0.4-0.4-0.9-0.9-2-1.6c-1.1-0.7-2.7-1.6-4.9-2
		c-2.2-0.5-4.9-0.4-6.8,0.1c-2,0.5-3.3,1.2-4.2,1.7c-0.9,0.6-1.3,0.9-1.6,1.2c-0.6,0.5-0.5,0.5-0.4,0.3s0.4-0.6,0.8-1.1
		c0.7-1,1.5-2.3,2.4-3.7c1.8-2.9,3.9-6.2,6.3-9.5c1.2-1.7,2.5-3.4,4-5.1l1.1-1.3l0.6-0.6l0.3-0.3c0.1-0.1,0.1-0.1,0.1-0.2
		c0.2-0.3,0.5-0.6,0.7-0.8c0.8-1.1,1-1.7,1.3-2.5c0.1-0.5,0.2-1,0.2-1.7s0.1-1.5,0-2.5c-0.1-1.9-0.6-4.3-1.2-6.8
		c-0.6-2.6-1.5-5.3-2.5-8.1c-2-5.7-4.4-11.6-7.1-17.5c-1.3-3-2.7-6-4-9l-1-2.3l-0.2-0.5l-0.2-0.4l-0.4-0.8c-0.5-0.9-1-1.9-1.5-2.6
		c-0.5-0.7-0.9-1.3-1.3-1.7c-0.4-0.4-0.6-0.5-0.7-0.6c-0.1,0,0.1,0.1,0.3,0.2c0.2,0.1,0.5,0.2,0.6,0.2s0,0-0.3,0.1s-0.9,0.3-1.5,0.6
		c-1.3,0.6-3.1,1.7-4.9,3.1c-1.8,1.4-3.7,3.2-5.5,5.1c-0.9,0.9-1.8,1.9-2.7,3c-0.4,0.5-0.9,1-1.3,1.5l-0.6,0.7l-0.3,0.3l-0.1,0.1
		c0,0-0.1,0.1,0,0l-10.2,7l0,0l-2.3,0.6l-2.1,0.5c-1.4,0.3-2.7,0.6-4.1,0.9c-2.7,0.6-5.5,1.1-8.3,1.6c-5.6,0.9-11.4,1.7-17.7,1.9
		c-3.2,0.1-6.5,0-10.2-0.4c-1.9-0.2-3.8-0.5-6-1c-2.1-0.5-4.4-1.2-7-2.3c-2.5-1.1-5.4-2.8-8.2-5.3s-5.5-6.1-7-9.9
		c-1.6-3.9-2.2-7.7-2.2-11v-0.6V472l-0.1-0.8c-0.1-1-0.3-1.6-0.4-1.9c-0.1-0.3-0.1-0.3-0.2-0.3c0-0.1-0.2-0.2-0.8-0.5
		c-0.5-0.3-1.5-0.6-2.6-0.9c-1.2-0.3-2.6-0.4-4.2-0.5c-0.2,0-0.4,0-0.6,0h-0.3c-0.1,0-0.1,0-0.1,0c-0.2,0-0.1,0,0,0s0.2,0,0.4-0.1
		c0.1,0,0.2,0,0.4-0.1l0.4-0.1c0.4-0.1,0.7-0.2,1.3-0.5c0.3-0.1,0.5-0.2,0.8-0.4s0.7-0.4,1-0.6c1.4-0.9,3-2.3,4.2-4s1.8-3.3,2-4.5
		c0.1-0.3,0.1-0.5,0.2-0.7l0.1-0.6c0-0.2,0-0.3,0-0.5c0-0.1,0-0.2,0-0.3v-0.1v-0.1v-0.1c0,0,0,0,0,0.1c0,0.3,0.1,1.1,0.3,2.1
		l0.6,3.6c0.4,2.7,0.9,5.9,1.1,9.2c0.1,1.6,0.2,3.2,0.2,5.1c0,1.9-0.1,3.9-0.4,6.3c-0.3,2.4-0.9,5.2-2.2,8.4
		c-1.3,3.1-3.5,6.6-6.2,9.2c-2.7,2.7-5.6,4.5-8.2,5.8c-2.6,1.3-4.9,2-7,2.6c-4.2,1.1-7.5,1.5-10.7,1.7l-2.3,0.2l-2.1,0.1
		c-1.4,0.1-2.9,0.1-4.6,0.1c-1.7,0-3.6,0-6.2-0.3c-1.4-0.2-2.8-0.4-4.8-1c-0.9-0.2-2.1-0.7-3.1-1.1c-1.2-0.5-2.3-1.1-3.6-2
		c-1.2-0.8-2.5-1.8-3.6-2.9c-0.6-0.6-1.1-1.1-1.6-1.7c-0.5-0.6-0.9-1.2-1.4-1.8c-1.6-2.4-2.6-4.6-3.1-6.4c-0.6-1.7-0.9-3.2-1.1-4.3
		l-0.2-0.9l-0.1-0.8c-0.1-0.5-0.1-1-0.2-1.4c-0.4-3.5-0.5-5.9-0.7-8.3l-0.1-1.5c0-0.3-0.1-0.6-0.1-0.9c-0.1-0.6-0.2-1.1-0.3-1.6
		c-0.2-0.9-0.6-1.6-0.6-1.6s0.1,0.1,0.3,0.4c0.3,0.2,0.7,0.6,1.4,0.9c0.6,0.3,1.4,0.6,2,0.7c0.6,0.1,1.1,0.1,1.4,0
		c0.5-0.1,0-0.1-0.8,0.4c-0.9,0.4-2.1,1.2-3.4,2.2c-0.6,0.5-1.3,1-2,1.7c-0.3,0.3-0.7,0.6-1,0.9l-1.4,1.3c-1.9,1.8-3.9,3.6-6.2,5.5
		c-1.2,1-2.3,1.9-3.7,3c-1.3,1-2.8,2.1-4.7,3.2c-1.8,1.1-4,2.3-7,3.4c-0.8,0.3-1.6,0.5-2.5,0.7s-1.8,0.4-2.8,0.6
		c-2,0.3-4.1,0.4-6.3,0.2s-4.3-0.7-6.2-1.4c-1-0.3-1.8-0.7-2.6-1.1c-0.8-0.4-1.5-0.8-2.3-1.2c-2.8-1.6-4.7-3.2-6.2-4.7
		c-1.6-1.5-2.8-2.8-3.9-4.1c-1.1-1.3-2.1-2.4-3-3.7c-1.9-2.4-3.5-5.2-4.5-7.9c-1.1-2.7-1.7-5.4-2-7.8c-0.7-4.9-0.3-8.9,0-12.2
		c0.4-3.4,1-6.2,1.4-8.6c0.5-2.4,0.8-4.4,0.9-5.4c0.1-0.5,0-0.6,0.1-0.1c0,0.3,0.1,0.8,0.3,1.4c0.2,0.6,0.6,1.5,1.1,2.4
		c0.6,0.9,1.3,1.7,2.1,2.4c0.4,0.3,0.7,0.6,1.1,0.9c0.3,0.2,0.7,0.4,1,0.6c0.6,0.3,1,0.4,1.3,0.5c0.1,0,0.2,0.1,0.3,0.1h0.1
		c0,0-0.3-0.1-0.9-0.1c-0.7,0-0.9,0-1.1,0c-0.3,0-0.2,0-0.3,0s-0.4,0.2-1,0.9s-1.4,1.9-2.3,3.4c-0.8,1.5-1.7,3.4-2.7,5.5l-3.1,7.1
		c-1.2,2.6-2.5,5.4-4.4,8.6c-1.9,3.2-4.5,6.9-8.8,10.4c-2.2,1.8-4.9,3.4-7.8,4.5c-2.9,1.2-6.1,1.8-8.9,2c-1.4,0.1-2.8,0.1-4.3,0
		s-3.1-0.4-4.8-0.8c-0.9-0.2-1.7-0.5-2.6-0.8s-1.8-0.7-2.7-1.2c-1.8-0.9-3.5-2.1-5.1-3.4c-3.1-2.7-5.1-5.9-6.4-8.6
		c-1.3-2.8-2-5.2-2.4-7.3c-0.9-4.3-1-7.6-1.1-10.7c-0.1-3,0-5.7,0-8.2s0.1-4.7,0-6.6c0-0.9-0.1-1.7-0.2-2.4
		c-0.1-0.6-0.2-1.1-0.2-1.1s0.1,0.3,0.6,1.1c0.3,0.4,0.7,1,1.2,1.5c0.5,0.6,1.2,1,1.9,1.4c0.4,0.2,0.7,0.4,1,0.5s0.7,0.2,0.9,0.3
		c0.1,0,0.3,0.1,0.4,0.1s0.1,0,0.1,0h0.1c0.1,0,0.2,0,0.3,0c0.5,0.1,1.2,0.1,1.9-0.1c0.7-0.1,1.2-0.4,1.5-0.6
		c0.3-0.2,0.3-0.2,0.2-0.1c-0.2,0.2-0.9,1.1-1.6,2.3c-1.5,2.5-2.9,6.2-4.1,10.2c-1.1,4-2.1,8.3-2.7,12.6c-0.3,2.2-0.6,4.4-0.8,6.6
		l-0.3,3.7l-0.4,4c-0.6,5.4-1.4,11-2.6,16.6s-2.7,11.1-4.3,16.2l-2.4,7.4l-0.6,1.8l-0.3,1c-0.2,0.7-0.4,1.3-0.7,2
		c-1.1,2.7-2.8,5.6-5.3,8.4c-2.5,2.7-5.8,5.1-9.3,6.5s-6.9,2-9.9,2.1s-5.7-0.3-8.1-0.8s-4.5-1.3-6.5-2.1c-3.9-1.7-7.3-3.7-10.4-6
		c-3-2.3-5.8-4.8-8.3-7.7s-4.7-6-6.6-9.7c-1.9-3.6-3.4-7.7-4.2-12.3c-0.8-4.5-0.7-8.7-0.4-12.3c0.3-3.7,1-6.9,1.7-9.9
		c1.4-6,3.1-11,4.4-15.4c0.6-2.2,1.1-4.1,1.4-5.7c0.3-1.5,0.3-2.6,0.3-2.5c0,0,0,0.4,0.3,1.1c0.2,0.6,0.7,1.5,1.2,2.1
		c0.3,0.3,0.5,0.6,0.7,0.8l0.2,0.1l0.1,0.1l0,0c0,0,0,0-0.1-0.1s-0.3-0.2-0.5-0.3c-0.8-0.4-2.8-0.7-4.8-0.4c-1,0.1-2,0.4-2.8,0.7
		s-1.4,0.7-1.4,0.8c0,0,0.1,0,0.3-0.3c0.2-0.3,0.5-0.8,0.8-1.5c0.1-0.4,0.3-0.8,0.3-1.2c0-0.2,0.1-0.4,0.1-0.7c0,0,0-0.2,0-0.1v0.2
		v0.5l-0.3,4c-0.4,5.4-1.1,11.1-2.1,16.8c-1.1,5.8-2.5,11.7-4.9,17.9c-1.2,3.1-2.7,6.3-4.6,9.6c-1.9,3.2-4.3,6.6-7.5,9.7
		c-3.2,3.1-7.2,6.1-11.9,8.1c-2.3,1-4.7,1.8-7.1,2.3c-1.2,0.3-2.4,0.5-3.6,0.6c-0.6,0.1-1.1,0.1-1.8,0.2c-0.7,0-1.3,0.1-2,0.1
		c-2.8,0-6.1-0.3-9.6-1.4c-3.5-1.1-7.2-3.2-10.1-5.8s-4.9-5.6-6.3-8.2c-1.4-2.7-2.3-5.1-2.9-7.3c-1.2-4.4-1.5-8-1.7-11.4
		c-0.2-3.3-0.2-6.3-0.1-9.2c0.1-2.8,0.2-5.5,0.3-8c0.1-2.5,0.3-4.9,0.3-6.9c0-1,0-1.9,0-2.6c0-0.7-0.1-1.2-0.1-1c0,0,0,0,0,0.1v0.2
		c0,0.2,0.1,0.4,0.2,0.8c0.3,0.7,0.7,1.8,2,3.6c0.3,0.5,0.8,1,1.2,1.4c0.5,0.5,1,1,1.6,1.4l0.6,0.4c0.2,0.1,0.3,0.2,0.5,0.3
		c0.4,0.2,0.8,0.5,1.2,0.7c1.6,0.9,3.7,1.4,5.3,1.5c1.7,0.1,2.9-0.1,3.7-0.2c0.8-0.2,1.2-0.3,1.4-0.4c0.3-0.1-0.1,0-0.7,0.5
		l-2.9,1.9c-1.3,0.8-2.8,1.8-4.9,2.9c-1.1,0.5-2.4,1.1-4,1.7c-1.6,0.6-3.6,1.1-6.1,1.4c-2.5,0.3-5.6,0.2-8.9-0.6
		c-3.2-0.8-6.3-2.4-8.6-4.2c-2.3-1.8-3.9-3.6-5.1-5.2c-1.2-1.6-2-3.1-2.7-4.4c-0.4-0.7-0.6-1.3-0.9-1.9c-0.2-0.6-0.5-1.2-0.7-1.7
		s-0.4-1.1-0.6-1.6l-0.4-1.4c-1.5-5-3-10.2-4.3-16.2c-1.3-5.9-2.2-12.9-1.7-20.1c0.2-3.6,0.8-7.1,1.5-10.5c0.8-3.3,1.7-6.6,2.8-9.6
		l0.4-1.1l0.2-0.6l0.1-0.3l0.3-0.7c0.7-1.7,1.6-3.4,2.7-5c2.1-3.1,4.6-5.5,7-7.4c2.4-1.8,4.7-3.1,6.9-4.1c2.2-1,4.2-1.7,6.1-2.3
		c3.9-1.1,7.3-1.7,10.6-2.2c3.3-0.4,6.4-0.6,9.4-0.7c6-0.1,11.7,0.2,17.3,0.7c2.8,0.3,5.6,0.6,8.3,0.9c1.4,0.2,2.8,0.4,4.1,0.6
		l2.1,0.3l2.3,0.4l2.4,0.6L208,387l0,0h0.1l0.4,0.1c0.3,0.1,0.7,0.1,1,0.2c0.7,0.1,1.4,0.2,2.1,0.3c1.4,0.1,2.6,0.1,3.4-0.1
		c0.8-0.1,1.2-0.3,1.3-0.4c0.1-0.1-0.1,0.1,0,0s0.4-0.5,0.7-1.5c0.3-0.9,0.6-2.3,0.8-3.8c0.2-1.4,0.1-2.5,0.1-2.6s0,0.1,0.2,0.5
		s0.5,0.9,0.9,1.4c0.4,0.4,0.8,0.8,1,0.9c0.2,0.1,0.2,0.1,0,0c-0.5-0.2-1.8-0.6-3.6-0.9c-3.6-0.6-8.5-0.8-13.9-0.9
		c-2.7-0.1-5.6-0.2-8.5-0.4c-1.5-0.1-3-0.2-4.6-0.3l-1.9-0.2c-0.4,0-0.8-0.1-1.3-0.1c-3.5-0.2-7.7,0.2-13.4,0.9
		c-2.9,0.3-6.1,0.7-10.2,0.7c-2.1,0-4.3-0.1-6.9-0.5c-2.5-0.4-5.3-1-8.2-2.1c-2.9-1.1-5.7-2.7-8.2-4.6c-2.5-1.9-4.6-4.1-6.3-6.2
		c-3.4-4.3-5.3-8.4-6.8-12.1c-1.4-3.7-2.3-7.2-3-10.5s-1-6.6-1.3-9.3c-0.5-5.8-0.8-11.6-0.8-18c0.1-3.2,0.2-6.6,0.7-10.6
		c0.3-2,0.7-4.2,1.4-6.8c0.8-2.6,2-5.7,4.5-8.9c1.2-1.6,2.8-3.2,4.5-4.5s3.5-2.3,5.1-3c3.3-1.4,6-1.8,8-2.1c2.1-0.3,3.7-0.3,5.1-0.4
		l2.1-0.1c0.7,0,1.5-0.1,2.2-0.1s1.4,0.1,2.1,0.1c2.7,0.2,5,0.7,6.9,1.3c2,0.6,3.8,1.2,5.4,1.8c3.3,1.3,6.1,2.7,8.8,4.1
		c5.3,2.8,10,5.5,14.6,7.9c4.5,2.4,8.9,4.6,13,6.2c2,0.8,4,1.4,5.9,1.9l1.4,0.3l1.7,0.3c1.2,0.2,2.4,0.4,3.6,0.6
		c4.9,0.8,10.1,1.4,15.4,1.9c5.3,0.6,10.8,1.1,16.6,1.8c2.9,0.4,5.8,0.8,8.9,1.4c3.1,0.6,6.2,1.2,9.6,2.2c1.7,0.5,3.4,1.1,5.2,1.7
		c0.9,0.4,1.8,0.7,2.7,1.1l1.4,0.7l0.2,0.1l0.3,0.2l0.7,0.4c0.5,0.3,0.9,0.5,1.3,0.8c1.8,1.1,3.3,2.5,4.7,4c1.3,1.4,2.4,2.9,3.3,4.4
		c1.7,2.9,2.7,5.6,3.3,7.9c1.3,4.7,1.5,8.5,1.7,12c0.1,3.5,0,6.6-0.1,9.7c-0.3,6-0.9,11.6-1.3,16.9c-0.2,2.6-0.4,5.2-0.5,7.5
		c-0.1,2.4-0.2,4.7-0.1,6.6c0.1,1.9,0.4,3.5,0.5,3.8c0,0,0,0.1,0,0l0,0c-0.1-0.3-0.2-0.6-0.4-0.9c-0.5-1.2-1.3-2.3-2.1-3.1
		c-1.6-1.7-3-2.3-3.8-2.6s-1.1-0.3-1.2-0.3s0.1,0,0.3-0.1c0.5-0.1,1.4-0.5,2.2-1c1.7-1,3.3-2.6,4.5-4.7c1.2-2.1,2.1-4.9,2.5-8.2
		c0.1-0.8,0.2-1.7,0.2-2.6v-1.6l0.1-2.5c0.2-3.4,0.5-6.8,1.2-10.5c0.7-3.6,1.6-7.4,3.2-11.4s3.8-8.2,7.2-12.3c1.7-2,3.7-4,6-5.7
		s4.9-3.2,7.6-4.4s5.6-2,8.5-2.5c1.5-0.2,2.9-0.4,4.5-0.4c0.8,0,1.6,0,2.4,0c0.4,0,0.9,0.1,1.3,0.1l0.8,0.1l0.5,0.1l0.8,0.1
		l-4.6-0.3c1.3-0.1,1.4,0,1.8,0s0.8,0,1,0c0.6,0,1.2,0.1,1.7,0.1c1.1,0.1,2,0.3,2.9,0.5c1.8,0.4,3.4,0.9,5,1.5
		c3.1,1.2,5.8,2.7,8.2,4.4c4.7,3.4,8.1,7.4,10.7,11.2c2.6,3.9,4.5,7.7,6,11.4s2.6,7.3,3.5,10.8s1.5,7,2.1,10.4l0.5,3.6
		c0,0.2,0.1,0.3,0,0.2c-0.1-0.2-0.6-1.1-1.5-1.7c-0.9-0.6-1.8-0.8-2.2-0.8c-0.5,0-0.5,0.1-0.4,0c0.1-0.1,0.5-0.2,0.9-0.6
		c0.8-0.8,1.8-2.6,2.3-5.4c0.1-0.3,0.1-0.7,0.2-1.1l0.3-2.6c0.4-3.5,1.6-7.2,3.3-10.5s3.9-6.2,6.2-8.4s4.6-4,6.9-5.4
		c4.5-2.7,8.7-4.3,12.5-5.5c3.9-1.1,7.6-1.9,11.1-2.4c7.1-1,13.7-1.4,20.3-1.3c3.3,0,6.5,0.2,10,0.4l0.7,0.1c-0.7,0-0.6,0-0.4,0h0.4
		l1.4,0.1c0.9,0.1,1.8,0.2,2.7,0.2c1.8,0.2,3.5,0.4,5.2,0.7c3.5,0.5,7,1.3,10.6,2.3s7.3,2.2,11.1,4s7.9,4.1,11.9,7.7
		c2,1.8,4,4,5.7,6.5s3.2,5.5,4.2,8.5c0.5,1.5,0.9,3.1,1.1,4.7c0.3,1.5,0.4,3.2,0.4,4.5c0,2.3,0,4.6-0.4,7.1
		c-0.6,4.9-2.3,10.7-5.8,15.8c-3.4,5.1-8.4,9.1-13.2,11.4c-2.4,1.2-4.8,2.1-7,2.7c-2.3,0.7-4.5,1.1-6.6,1.4
		c-8.4,1.1-15.6,0.4-22.5-0.6c-1.7-0.3-3.4-0.6-5-0.9l-1.2-0.3l-0.6-0.1c-0.3-0.1-0.6-0.1-0.9-0.2c-0.5-0.1-0.9-0.1-1.1-0.1
		c-0.2,0-0.1-0.1,0.1-0.2c0.2-0.1,0.5-0.3,0.7-0.5s0.2-0.4,0.1-0.3c-0.2,0.1-0.7,1-1,2.4c-0.2,0.7-0.3,1.5-0.4,2.2v0.5v0.2l0,0
		c0-0.2,0,0.2,0,0.2s0,0,0,0.1c0,0,0,0.1,0,0s-0.1-0.2-0.1-0.4c-0.1-0.5-0.5-1.2-0.7-1.6c-0.3-0.4-0.5-0.5-0.5-0.5
		c0.1,0.2,1.3,0.9,2.9,1.4c1.6,0.6,3.7,1,5.9,1.4c4.4,0.7,9.5,0.8,14.5,0.6s10.2-0.9,15-1.9c2.4-0.5,4.7-1.1,6.8-1.8
		c1-0.3,2-0.7,2.8-1.1l4-1.8c5.8-2.6,11.9-5.1,18.8-6.9c3.5-0.9,7.2-1.6,11.4-1.8c4.1-0.2,8.8,0.1,13.8,1.8c2.5,0.8,4.9,2.1,7.2,3.6
		c2.3,1.6,4.3,3.5,6,5.5c3.3,4.1,5.2,8.4,6.4,12.4l0.6,2c0.2,0.6,0.4,1.1,0.5,1.7c0.4,1.1,0.8,2.2,1.2,3.2c0.8,2,1.8,3.8,2.6,4.9
		c0.4,0.6,0.8,1,0.9,1.1c0.2,0.2,0.1,0.1-0.3-0.1c-0.4-0.2-1.3-0.3-1.9-0.2c-0.7,0.1-1.1,0.3-1.2,0.4c-0.1,0.1,0.1-0.1,0.4-0.4
		c0.3-0.3,0.7-0.8,1-1.4c0.7-1.2,1.4-2.9,1.9-4.8c0.2-0.9,0.4-1.9,0.6-2.9l0.4-2.4c0.1-0.8,0.3-1.7,0.4-2.5
		c0.7-3.4,1.4-6.9,3.2-11.2c0.2-0.5,0.5-1.1,0.8-1.7c0.3-0.6,0.6-1.1,1-1.8c0.7-1.2,1.6-2.6,2.9-4c1.3-1.4,2.9-2.9,5.2-4.1
		c2.2-1.2,4.9-2.1,7.5-2.2c2.5-0.2,4.8,0.1,6.6,0.6s3.3,1.1,4.6,1.7c2.5,1.2,4.3,2.4,6,3.6c3.2,2.4,5.6,4.6,8,6.7l6.5,6.1
		c2.1,1.9,4.1,3.7,6,5.4l1.5,1.2l0.7,0.6c0.2,0.2,0.4,0.2,0.5,0.4c0.3,0.2,0.6,0.5,1,0.6c0.3,0.2,0.6,0.4,1,0.6
		c2.6,1.3,5.3,1.7,8.1,1.4c2.8-0.4,5.7-1.6,8.4-3.7c2.7-2.1,5.2-5,7.3-8.4c1-1.7,1.9-3.6,2.7-5.6s1.4-4.1,2-6.2
		c0.6-2.3,1-4.6,1.2-6.4c0.2-1.8,0-3.2,0-3c0,0.1,0.1,0.8,0.6,1.6s1.2,1.6,1.6,1.9c0.4,0.3,0.5,0.3,0.2,0.3c-0.3-0.1-1-0.2-1.8-0.3
		c-1.7-0.2-4-0.4-6.6-0.5c-2.5-0.1-5.3-0.1-8.1-0.1c-5.7,0-11.8,0.1-17.9-0.1h-0.6h-0.7l-1.5-0.1c-1-0.1-2-0.1-3.1-0.3
		c-2.1-0.2-4.2-0.6-6.4-1.1c-4.4-1-9.2-2.8-13.9-5.9c-2.4-1.6-4.7-3.5-6.8-5.8s-4-5.1-5.5-8.1c-3-6-3.9-13.1-3-19.3
		c0.8-6.3,3.3-12,6.7-16.7s7.7-8.5,12.5-11.3c4.7-2.8,9.9-4.5,14.9-5.3c2.5-0.4,5-0.6,7.4-0.6c1.2,0,2.4,0,3.6,0.1l1.8,0.1
		c0.2,0,0.3,0,0.3,0h0.1h0.2c2.3,0.1,5-0.4,7.9-1.6c2.8-1.2,5.6-3.1,7.6-5.2c1-1,1.8-2.1,2.3-2.9c0.2-0.4,0.4-0.8,0.5-1.1
		s0.1-0.4,0.1-0.4s-0.1,0.8,0.1,1.7c0.1,0.4,0.3,0.9,0.5,1.1c0.2,0.3,0.3,0.4,0.3,0.3c0,0-0.2-0.2-0.5-0.4c-0.1-0.1-0.4-0.2-0.6-0.3
		l-0.4-0.2l-0.2-0.1l-0.3-0.2c-1.8-0.9-3.7-1.7-5.5-2.4c-3.7-1.3-7.5-2.1-11.4-2.3s-7.8,0.1-11.7,0.9c-4,0.8-7.9,2.2-11.8,4.1
		c-7.7,3.7-15,9.3-20.4,15.9c-2.7,3.2-5,6.7-6.4,9.9c-0.7,1.6-1.2,3.1-1.5,4.3c-0.1,0.3-0.1,0.6-0.2,0.9c0,0.1-0.1,0.4-0.1,0.6
		l-0.1,0.7c-0.1,0.9-0.2,1.8-0.2,2.8c-0.1,2,0,4.1,0.2,6.7c0.2,2.6,0.5,5.5,0.7,9.6c0.1,2.1,0.1,4.5-0.3,7.4
		c-0.3,2.9-1.2,6.6-2.9,10.3c-0.9,1.8-2,3.6-3.2,5.3c-1.3,1.6-2.6,3.1-4,4.3c-2.8,2.5-5.5,4-8,5.2c-4.9,2.3-9,3.2-12.7,4
		c-1.9,0.4-3.7,0.7-5.4,0.9l-1.7,0.2c-0.7,0.1-1.5,0.1-2.3,0.2c-1.6,0.1-3.3,0-5-0.1c-3.4-0.3-7.1-1.3-10.5-3
		c-3.3-1.6-6.2-3.8-8.5-6.1s-4-4.7-5.3-6.9c-1.4-2.3-2.4-4.4-3.2-6.5c-1.7-4.2-2.6-8-3.3-11.6c-0.7-3.7-1.1-7.1-1.4-10.5
		c-0.5-6.8-0.5-13.2-0.2-19.5s0.9-12.5,1.6-18.6c0.4-3.1,0.8-6.1,1.3-9.1l0.8-4.6l0.4-2.3l0.5-2.4L531.8,297.2z"/>
</g>
<path class="st6" d="M454.4,801.6c8.2-19.3,13-43.2,13-68.9c0-64.6-30.2-116.9-67.5-116.9c-37.3,0-67.5,52.3-67.5,116.9
	c0,25.8,4.8,49.6,13,69c-11.7,18.7-18.9,43.4-18.9,70.5c0,43,23.5,74.8,29.3,90.6c16.8,45.6,22.1,73.4,44,73.4
	c21.9,0,26.3-28.1,44-73.4c7.5-18.7,29.5-46.8,29.5-90.6C473.3,845,466.2,820.3,454.4,801.6z"/>
<path class="st5" d="M792.1,113.5c10.5-14.1,11-34-0.1-48.9c-11.3-15.2-31.2-20.3-48-13.6c-0.4-0.6-0.8-1.3-1.3-1.9
	c-12-16.1-36-18.6-53.5-5.5c-14.1,10.5-19.8,27.9-15.2,42.7c-10.5-2.1-22.9,0.7-33.3,8.5c-15.2,11.3-21.4,29.5-15.8,43.5
	c-8.2,0.4-16.9,3.4-24.5,9.1c-10.5,7.8-16.7,18.9-17.7,29.7c-11.8-5.9-28.2-4.2-41.4,5.7c-8.5,6.3-14.2,14.8-16.5,23.5
	c-11.8-6-28.2-4.2-41.5,5.7c-6.1,4.5-10.7,10.2-13.7,16.2c-0.5-0.8-1-1.6-1.6-2.4c-10.7-14.4-33.6-15.5-51.2-2.4
	c-3.2,2.4-6.1,5.2-8.5,8.1c-0.8-2-1.9-3.9-3.2-5.7c-10.7-14.4-33.6-15.5-51.2-2.4c-1.1,0.8-2.2,1.7-3.2,2.6c-0.7-4.2-2.4-8.1-5-11.6
	c-10.7-14.4-33.6-15.5-51.2-2.4c-0.6,0.5-1.3,1-1.9,1.5c3.3-9.9,2.4-20.3-3.6-28.3c-10.3-13.8-31.9-15.4-49.1-3.8
	c-0.2-5.8-1.9-11.4-5.4-16.1c-9.1-12.2-27-14.8-42.9-7.3c0-6.1-1.8-11.9-5.5-16.8c-6.7-9-18.1-12.8-30-11.2c-1.1-3.9-2.9-7.6-5.4-11
	c-12-16.1-35.9-18.5-53.4-5.5c-8.3,6.2-13.7,14.7-15.8,23.7c-7.1-1.7-14.6-2.2-22.3-1c-31.1,4.8-52.4,33.9-47.7,65
	c0.8,5.3,2.3,10.2,4.4,14.9c-11.6,9.3-18,24.3-15.6,40c1.8,11.7,8.2,21.5,17,28C7.7,293.3,2.5,307,4.7,321.4
	c1.2,7.9,4.5,14.9,9.2,20.7c-10.3,9.3-15.8,23.5-13.6,38.2c1.8,11.6,8.1,21.4,16.8,27.8c-9.8,10.1-15,25.3-12.5,41.3
	c1.7,11.1,6.8,20.7,13.9,27.8c-7.7,9.9-11.5,23.5-9.3,37.6c2.1,13.8,9.5,25.3,19.4,32.5c-5.3,11.5-5.9,25.5-0.5,38.8
	c5.1,12.6,14.6,22,25.7,26.8c-5.5,14.2-3.3,31.7,7.1,45.7c7.7,10.4,18.5,16.9,29.8,19.2c-4.4,13.8-2,30.1,7.9,43.5
	c15.5,20.9,43.5,26.3,62.5,12.2c8.7-6.5,14-15.9,15.7-26.3c7.6-0.5,14.9-3,21.3-7.7c19-14.1,21.7-42.5,6.2-63.3
	c-6.1-8.2-14.2-14-22.8-17.2c3.9-12.2,2.2-25.8-5.8-36.5c-3.7-5-8.5-8.9-13.8-11.6c4.2-12.4,2.6-26.3-5.5-37.2
	c-5.8-7.8-14.1-12.9-23.1-15c6.5-13.5,5.7-29.7-3.6-42.1c-4-5.3-9.1-9.4-14.8-12.1c9.4-14.3,9.7-33.1-0.8-47.1
	c-3.5-4.7-7.9-8.4-12.8-11.1c11.2-14.6,12.2-34.8,1.1-49.7c-1.1-1.5-2.3-2.9-3.6-4.2c16-13.3,19.8-35.8,8.3-51.3
	c-1.2-1.6-2.5-3-3.9-4.3c9.6-10.6,13-25,8.9-37.5c8.8,4.1,18.9,5.7,29.3,4.2c1.8-0.3,3.6-0.7,5.4-1.1c0.8,3.9,2.4,7.6,4.8,10.8
	c9.3,12.4,27.6,14.9,43.7,7c0.1,0.1,0.2,0.3,0.3,0.4c11.5,15.4,34.9,17.7,54.5,6.1c1,2.4,2.3,4.7,3.9,6.9
	c12.8,17.1,39.9,18.5,60.9,3.2c1,4.3,2.9,8.3,5.6,11.9c11.9,16,36.4,18.2,56.6,6c0.8,1.6,1.8,3.1,2.8,4.6
	c12.8,17.1,39.9,18.5,60.9,3.1c14.3,8.5,35,6.8,51.8-5.6c4.6-3.4,8.5-7.4,11.7-11.7c13.7,13.9,38.8,14,58.3-0.5
	c7.7-5.7,13.4-12.9,17-20.5c13.2,3.7,29.4,0.7,42.9-9.4c11.7-8.7,18.9-20.8,20.8-32.8c7.7,2.9,16.3,4.1,25.2,3.5
	c0.3,6.7,2.4,13.1,6.5,18.6c4.1,5.6,9.8,9.4,16.3,11.6c-11,15.1-12.7,34.1-2.8,47.4c1.4,1.8,2.9,3.4,4.5,4.9
	c-12.5,15.5-15,35.7-4.5,49.7c1.2,1.6,2.5,3.1,4,4.4c-16.1,15.9-20.2,38.8-8.7,54.3c0.8,1,1.6,2,2.4,2.9c-1.4,0.8-2.8,1.7-4.1,2.7
	c-20.9,15.5-23.9,46.7-6.8,69.7c1.6,2.1,3.3,4.1,5.1,6c-2.4,1-4.6,2.3-6.8,3.9c-14.3,10.6-17.2,30.8-6.6,45.1
	c0.9,1.2,1.9,2.3,2.9,3.4c-18.8-1.1-36.1,17.2-39.1,41.7c-1,7.9-0.4,15.6,1.5,22.4c-9.5-8.1-23.6-8.8-34.1-1.1
	c-4.8,3.5-8,8.3-9.7,13.6c-0.7-1.4-1.5-2.7-2.5-4c-8.2-11-23-14.1-34.8-7.9c-0.5-8.1-3.2-16.2-8.4-23.1c-9.3-12.5-24.1-18.4-38.5-17
	c-0.7-6.6-3.2-13.2-7.5-18.9c-9.8-13.1-26.3-18.3-41.2-14.4c-4.4-10.9-12.1-18.1-20.9-18.1c-12.7,0-23.2,15.1-24.6,34.4
	c-5.9-0.1-11.8,1.6-16.9,5.4c-12.1,9-14.6,26.2-5.6,38.3c4,5.4,9.7,8.9,15.8,10.3c-0.4,6.2,1.3,12.6,5.4,18
	c6.5,8.8,17.3,12.5,27.4,10.5c1.4,4.6,3.6,9,6.6,13.1c4.6,6.1,10.5,10.7,17,13.6c-1.9,11.1,0.6,22.9,7.9,32.7
	c8.7,11.7,22.2,17.6,35.7,17.2c0.1,0.2,0.3,0.4,0.4,0.6c15.5,20.8,43.4,26.3,62.3,12.3c15.4,10.1,35,10.7,49.4-0.1
	c5-3.7,8.9-8.5,11.6-13.8c14.8,8,32.6,7.8,46-2.1c8.3-6.2,13.5-15,15.4-24.8c9.9,1,20-1.5,28.2-7.6c15.6-11.6,20.2-32.8,12.8-51.6
	c5.6-1.1,10.9-3.4,15.7-7c18.2-13.6,21.5-40.3,7.9-60.9c2.8-1.2,5.4-2.7,8-4.6c19-14.1,21.7-42.5,6.2-63.3c-1.9-2.5-4-4.8-6.2-6.9
	c1.9-1,3.7-2.1,5.5-3.4c19-14.1,21.7-42.5,6.2-63.3c-1.4-1.9-2.9-3.6-4.5-5.2c17.4-14.5,19.5-41.8,4.5-62c-1.1-1.5-2.3-2.9-3.5-4.2
	c16.5-14.7,18.3-41.3,3.5-61.2c-0.8-1.1-1.6-2.1-2.5-3.1c0.9-0.5,1.8-1.1,2.6-1.8c15.2-11.3,18.3-32.8,7-48c-1.5-2-3.1-3.7-4.9-5.3
	c0.4-0.3,0.8-0.5,1.2-0.8c18.2-13.5,21.9-39.2,8.4-57.4c-3.2-4.3-7.1-7.8-11.5-10.5C794.4,164.7,801.4,137,792.1,113.5z
	 M211.4,221.7c-0.2-0.2-0.4-0.4-0.6-0.5c1.6-0.6,3.3-1.4,4.9-2.2C214.2,219.9,212.8,220.8,211.4,221.7z M220.1,216.7
	c-0.9,0.4-1.8,0.9-2.7,1.3c0.9-0.5,1.8-1.1,2.7-1.7C220.1,216.5,220.1,216.6,220.1,216.7z"/>
</svg>
