<?xml version="1.0" encoding="utf-8"?>
<!-- Generator: Adobe Illustrator 21.0.0, SVG Export Plug-In . SVG Version: 6.00 Build 0)  -->
<svg version="1.1" id="Ebene_1" xmlns="http://www.w3.org/2000/svg" xmlns:xlink="http://www.w3.org/1999/xlink" x="0px" y="0px"
	 viewBox="0 0 800 800" style="enable-background:new 0 0 800 800;" xml:space="preserve">
<style type="text/css">
	.st0{fill:none;stroke:#8E1919;stroke-width:60;stroke-miterlimit:10;}
	.st1{fill:#A46946;}
	.st2{fill:#C92828;}
	.st3{fill:#8E1919;}
	.st4{fill:#DD0000;}
	.st5{fill:#FF976E;}
	.st6{fill:#8E4F4F;}
	.st7{clip-path:url(#SVGID_2_);fill:#F4F4F4;stroke:#7EA1B4;stroke-miterlimit:10;}
	.st8{clip-path:url(#SVGID_2_);}
	.st9{fill:#F4F4F4;stroke:#7EA1B4;stroke-miterlimit:10;}
	.st10{fill:#E8EAE9;}
	.st11{fill:#CCD2DB;}
	.st12{fill:none;stroke:#FFCD9D;stroke-width:70;}
	.st13{fill:#FF976E;stroke:#FF976E;stroke-width:60;}
	.st14{fill:none;stroke:#FFCD9D;stroke-width:4;stroke-miterlimit:10;}
	.st15{fill:#FFCD9D;}
	.st16{fill:#EAAF9D;}
	.st17{fill:none;stroke:#A46946;stroke-width:10;stroke-linecap:round;stroke-miterlimit:10;}
	.st18{fill:none;stroke:#C92828;stroke-width:8;stroke-miterlimit:10;}
	.st19{fill:#FFFFFF;}
	.st20{fill:#FF8673;}
	.st21{fill:#CAFF76;}
</style>
<g>
	<path class="st3" d="M532.7,232.5c-51.2,0-91.9-15.3-120.7-45.3c-42-43.8-42.2-103.4-42.1-111.5V-995h60V76.8l0,0.3
		c0,2.3-0.2,42.2,25.7,68.8c17.1,17.6,43.1,26.5,77.1,26.5V232.5z"/>
</g>
<g>
	<path class="st15" d="M546.4,1104.1l-70-0.4c0.1-18.9,0.9-37.7,1.7-55.9c2.1-48.8,4.5-104-12.2-121.5c-1.9-1.9-7.5-7.9-26.5-7.9
		c-12,0-23,0.1-33.7,0.3c-56.6,0.7-101.4,1.3-185.1-21.3c-43.6-11.7-79.7-38.6-104.5-77.7c-21.7-34.3-33.6-76-34.5-120.6
		c-0.9-45.3,10.1-90.5,31.1-127.1c24-42,59.6-71.4,102.7-84.9c66.2-20.7,112.7-20.7,237.1-20.7v70c-127,0-162.4,0.7-216.2,17.5
		c-43.3,13.5-86.3,63.3-84.7,143.8c0.6,31.4,9,61.4,23.7,84.6c15.4,24.4,36.8,40.4,63.5,47.6c74.3,20,110.8,19.6,166,18.9
		c10.9-0.1,22.1-0.3,34.5-0.3c32.4,0,58.3,9.9,77,29.5c37.4,39.1,34.6,104.1,31.6,173C547.3,1068.4,546.5,1086.5,546.4,1104.1z"/>
</g>
<path class="st20" d="M672.4,129.9c-81.3-43.1-183.2-3.4-201.9,105.8c-12.8,74.4-40.7,175.8-92.8,195.2
	c-94.7,35.3-141.4,30.4-131.5,87.6c1.7,9.7,4.6,18.8,8.6,27.2c4.9,10.3,11.4,19.6,19.3,27.9c46.5,48.8,141.6,62.1,238.7,26.7
	c84.7-30.9,167.5-109.9,214.3-208C773.8,294.9,753.7,173,672.4,129.9z"/>
</svg>
