<?xml version="1.0" encoding="utf-8"?>
<!-- Generator: Adobe Illustrator 21.0.0, SVG Export Plug-In . SVG Version: 6.00 Build 0)  -->
<svg version="1.1" id="Ebene_1" xmlns="http://www.w3.org/2000/svg" xmlns:xlink="http://www.w3.org/1999/xlink" x="0px" y="0px"
	 viewBox="0 0 800 800" style="enable-background:new 0 0 800 800;" xml:space="preserve">
<style type="text/css">
	.st0{fill:none;stroke:#8E1919;stroke-width:60;stroke-miterlimit:10;}
	.st1{fill:#A46946;}
	.st2{fill:#C92828;}
	.st3{fill:#8E1919;}
	.st4{fill:#DD0000;}
	.st5{fill:#FF976E;}
	.st6{fill:#8E4F4F;}
	.st7{clip-path:url(#SVGID_2_);fill:#F4F4F4;stroke:#7EA1B4;stroke-miterlimit:10;}
	.st8{clip-path:url(#SVGID_2_);}
	.st9{fill:#F4F4F4;stroke:#7EA1B4;stroke-miterlimit:10;}
	.st10{fill:#E8EAE9;}
	.st11{fill:#CCD2DB;}
	.st12{fill:none;stroke:#FFCD9D;stroke-width:70;}
	.st13{fill:#FF976E;stroke:#FF976E;stroke-width:60;}
	.st14{fill:none;stroke:#FFCD9D;stroke-width:4;stroke-miterlimit:10;}
	.st15{fill:#FFCD9D;}
	.st16{fill:#EAAF9D;}
	.st17{fill:none;stroke:#A46946;stroke-width:10;stroke-linecap:round;stroke-miterlimit:10;}
	.st18{fill:none;stroke:#C92828;stroke-width:8;stroke-miterlimit:10;}
	.st19{fill:#FFFFFF;}
	.st20{fill:#FF8673;}
	.st21{fill:#CAFF76;}
</style>
<g>
	<path class="st3" d="M532.7,1832.5c-51.2,0-91.9-15.3-120.7-45.3c-42-43.8-42.2-103.4-42.1-111.5V605h60v1071.8l0,0.3
		c0,2.3-0.2,42.2,25.7,68.8c17.1,17.6,43.1,26.5,77.1,26.5V1832.5z"/>
</g>
<polygon class="st1" points="243.4,327 178.2,207.3 264,199.5 264.4,104.7 385,146.9 435.4,87.7 479,162.5 549.4,144.7 559.9,197.2 
	628.9,188.2 549.4,298.8 "/>
<circle class="st2" cx="400" cy="405" r="180"/>
<circle class="st3" cx="400" cy="455" r="120"/>
<ellipse class="st2" cx="400" cy="355" rx="30" ry="50"/>
<path class="st4" d="M569.9,490c-19.7-9.4-43.8-15-69.9-15c-41.8,0-78.5,14.2-100,35.8c-21.5-21.6-58.2-35.8-100-35.8
	c-29.2,0-56,7-76.8,18.5l153.6,123c8.9-5,16.7-10.8,23.2-17.3c6.2,6.3,13.7,11.9,22.3,16.8L569.9,490z"/>
<path class="st5" d="M650,315c-11.7,0-22.5,7.2-31,19.4c-11-34.3-30.1-65.8-56.4-92c-33.9-33.9-76.5-55.9-122.7-63.9
	c0.1-1.1,0.1-2.3,0.1-3.4c0-27.6-17.9-50-40-50s-40,22.4-40,50c0,1.2,0,2.3,0.1,3.4c-46.3,8-88.9,30.1-122.7,63.9
	c-26.2,26.2-45.3,57.7-56.4,92c-8.5-12.1-19.3-19.4-31-19.4c-27.6,0-50,40.3-50,90s22.4,90,50,90c11.7,0,22.5-7.2,31-19.4
	c11,34.3,30.1,65.8,56.4,92C280.8,611.1,338.6,635,400,635s119.2-23.9,162.6-67.4c26.2-26.2,45.3-57.7,56.4-92
	c8.5,12.1,19.3,19.4,31,19.4c27.6,0,50-40.3,50-90S677.6,315,650,315z M400,575c-93.7,0-170-76.3-170-170c0-93.7,76.3-170,170-170
	s170,76.3,170,170C570,498.7,493.7,575,400,575z"/>
<circle class="st3" cx="385" cy="160" r="5"/>
<circle class="st3" cx="415" cy="160" r="5"/>
</svg>
